{
.appVersion = "1230";
copyright = "Copyright 2019 The Sofia Sans Project Authors (nikoltchev@lettersoup.de)";
customParameters = (
{
name = openTypeOS2Type;
value = (
);
}
);
date = "2019-07-23 21:42:26 +0000";
designer = "Botio Nikoltchev, Ani Petrova ";
designerURL = "http://lettersoup.de";
disablesNiceNames = 1;
familyName = "Sofia Sans Pictograms";
featurePrefixes = (
{
automatic = 1;
code = "languagesystem DFLT dflt;\012";
name = Languagesystems;
}
);
fontMaster = (
{
alignmentZones = (
"{683, 12}",
"{655, 12}",
"{537, 20}",
"{488, 12}",
"{0, -12}",
"{-185, -12}"
);
ascender = 800;
capHeight = 655;
descender = -200;
guideLines = (
{
position = "{531, 88}";
},
{
position = "{1247, 636}";
}
);
horizontalStems = (
79
);
id = "9E4B8FD8-F8AF-4AA7-8E0D-0C907FFB2BDD";
userData = {
GSCornerRadius = 12;
GSOffsetHorizontal = -4;
GSOffsetMakeStroke = 1;
GSOffsetProportional = 1;
GSOffsetVertical = 10;
};
verticalStems = (
85
);
weightValue = 85;
xHeight = 488;
}
);
glyphs = (
{
glyphname = A;
lastChange = "2018-03-12 12:07:02 +0000";
layers = (
{
background = {
components = (
{
name = whiteRoundedCornersSquare;
transform = "{1, 0, 0, 1, 41, 0}";
}
);
paths = (
{
closed = 1;
nodes = (
"348 132 LINE SMOOTH",
"352 132 OFFCURVE",
"355 134 OFFCURVE",
"356 139 CURVE SMOOTH",
"378 280 LINE SMOOTH",
"382 308 OFFCURVE",
"385 333 OFFCURVE",
"387 361 CURVE",
"389 361 LINE",
"390 333 OFFCURVE",
"392 308 OFFCURVE",
"396 280 CURVE SMOOTH",
"414 138 LINE SMOOTH",
"414 135 OFFCURVE",
"418 132 OFFCURVE",
"421 132 CURVE SMOOTH",
"510 132 LINE SMOOTH",
"514 132 OFFCURVE",
"516 135 OFFCURVE",
"517 139 CURVE SMOOTH",
"582 580 LINE SMOOTH",
"583 587 OFFCURVE",
"580 591 OFFCURVE",
"576 591 CURVE SMOOTH",
"501 591 LINE SMOOTH",
"497 591 OFFCURVE",
"493 588 OFFCURVE",
"493 584 CURVE SMOOTH",
"472 324 LINE SMOOTH",
"470 294 OFFCURVE",
"468 264 OFFCURVE",
"466 234 CURVE",
"464 234 LINE",
"461 264 OFFCURVE",
"458 293 OFFCURVE",
"455 323 CURVE SMOOTH",
"428 574 LINE SMOOTH",
"428 578 OFFCURVE",
"425 580 OFFCURVE",
"422 580 CURVE SMOOTH",
"338 580 LINE SMOOTH",
"334 580 OFFCURVE",
"331 578 OFFCURVE",
"332 572 CURVE SMOOTH",
"350 489 LINE",
"323 324 LINE SMOOTH",
"318 294 OFFCURVE",
"315 264 OFFCURVE",
"311 234 CURVE",
"309 234 LINE",
"308 264 OFFCURVE",
"307 295 OFFCURVE",
"304 325 CURVE SMOOTH",
"282 584 LINE SMOOTH",
"282 588 OFFCURVE",
"278 591 OFFCURVE",
"273 591 CURVE SMOOTH",
"197 591 LINE SMOOTH",
"193 591 OFFCURVE",
"190 587 OFFCURVE",
"191 580 CURVE SMOOTH",
"256 138 LINE SMOOTH",
"256 135 OFFCURVE",
"258 132 OFFCURVE",
"263 132 CURVE SMOOTH"
);
},
{
closed = 1;
nodes = (
"874 290 OFFCURVE",
"871 296 OFFCURVE",
"866 296 CURVE SMOOTH",
"798 295 LINE SMOOTH",
"791 295 OFFCURVE",
"789 289 OFFCURVE",
"789 284 CURVE SMOOTH",
"789 246 OFFCURVE",
"790 209 OFFCURVE",
"753 209 CURVE SMOOTH",
"721 209 OFFCURVE",
"710 231 OFFCURVE",
"710 281 CURVE SMOOTH",
"710 442 LINE SMOOTH",
"710 493 OFFCURVE",
"721 514 OFFCURVE",
"753 514 CURVE SMOOTH",
"790 514 OFFCURVE",
"789 477 OFFCURVE",
"789 439 CURVE SMOOTH",
"789 434 OFFCURVE",
"791 428 OFFCURVE",
"798 428 CURVE SMOOTH",
"866 427 LINE SMOOTH",
"871 427 OFFCURVE",
"873 433 OFFCURVE",
"874 438 CURVE SMOOTH",
"889 515 OFFCURVE",
"852 598 OFFCURVE",
"750 598 CURVE SMOOTH",
"672 598 OFFCURVE",
"620 554 OFFCURVE",
"620 447 CURVE SMOOTH",
"620 276 LINE SMOOTH",
"620 153 OFFCURVE",
"672 125 OFFCURVE",
"750 125 CURVE SMOOTH",
"852 125 OFFCURVE",
"874 198 OFFCURVE",
"874 285 CURVE SMOOTH"
);
}
);
};
components = (
{
name = whiteRoundedCornersSquare;
}
);
layerId = "9E4B8FD8-F8AF-4AA7-8E0D-0C907FFB2BDD";
paths = (
{
closed = 1;
nodes = (
"343 132 LINE SMOOTH",
"347 132 OFFCURVE",
"350 134 OFFCURVE",
"351 139 CURVE SMOOTH",
"373 280 LINE SMOOTH",
"377 308 OFFCURVE",
"380 333 OFFCURVE",
"382 361 CURVE",
"384 361 LINE",
"385 333 OFFCURVE",
"387 308 OFFCURVE",
"391 280 CURVE SMOOTH",
"409 138 LINE SMOOTH",
"409 135 OFFCURVE",
"413 132 OFFCURVE",
"416 132 CURVE SMOOTH",
"505 132 LINE SMOOTH",
"509 132 OFFCURVE",
"511 135 OFFCURVE",
"512 139 CURVE SMOOTH",
"577 580 LINE SMOOTH",
"578 587 OFFCURVE",
"575 591 OFFCURVE",
"571 591 CURVE SMOOTH",
"496 591 LINE SMOOTH",
"492 591 OFFCURVE",
"488 588 OFFCURVE",
"488 584 CURVE SMOOTH",
"467 324 LINE SMOOTH",
"465 294 OFFCURVE",
"463 264 OFFCURVE",
"461 234 CURVE",
"459 234 LINE",
"456 264 OFFCURVE",
"453 293 OFFCURVE",
"450 323 CURVE SMOOTH",
"423 574 LINE SMOOTH",
"423 578 OFFCURVE",
"420 580 OFFCURVE",
"417 580 CURVE SMOOTH",
"333 580 LINE SMOOTH",
"329 580 OFFCURVE",
"326 578 OFFCURVE",
"327 572 CURVE SMOOTH",
"345 489 LINE",
"318 324 LINE SMOOTH",
"313 294 OFFCURVE",
"310 264 OFFCURVE",
"306 234 CURVE",
"304 234 LINE",
"303 264 OFFCURVE",
"302 295 OFFCURVE",
"299 325 CURVE SMOOTH",
"277 584 LINE SMOOTH",
"277 588 OFFCURVE",
"273 591 OFFCURVE",
"268 591 CURVE SMOOTH",
"192 591 LINE SMOOTH",
"188 591 OFFCURVE",
"185 587 OFFCURVE",
"186 580 CURVE SMOOTH",
"251 138 LINE SMOOTH",
"251 135 OFFCURVE",
"253 132 OFFCURVE",
"258 132 CURVE SMOOTH"
);
},
{
closed = 1;
nodes = (
"869 290 OFFCURVE",
"866 296 OFFCURVE",
"861 296 CURVE SMOOTH",
"793 295 LINE SMOOTH",
"786 295 OFFCURVE",
"784 289 OFFCURVE",
"784 284 CURVE SMOOTH",
"784 246 OFFCURVE",
"785 209 OFFCURVE",
"748 209 CURVE SMOOTH",
"716 209 OFFCURVE",
"705 231 OFFCURVE",
"705 281 CURVE SMOOTH",
"705 442 LINE SMOOTH",
"705 493 OFFCURVE",
"716 514 OFFCURVE",
"748 514 CURVE SMOOTH",
"785 514 OFFCURVE",
"784 477 OFFCURVE",
"784 439 CURVE SMOOTH",
"784 434 OFFCURVE",
"786 428 OFFCURVE",
"793 428 CURVE SMOOTH",
"861 427 LINE SMOOTH",
"866 427 OFFCURVE",
"868 433 OFFCURVE",
"869 438 CURVE SMOOTH",
"884 515 OFFCURVE",
"847 598 OFFCURVE",
"745 598 CURVE SMOOTH",
"667 598 OFFCURVE",
"615 554 OFFCURVE",
"615 447 CURVE SMOOTH",
"615 276 LINE SMOOTH",
"615 153 OFFCURVE",
"667 125 OFFCURVE",
"745 125 CURVE SMOOTH",
"847 125 OFFCURVE",
"869 198 OFFCURVE",
"869 285 CURVE SMOOTH"
);
}
);
width = 1068;
}
);
unicode = 0041;
},
{
glyphname = B;
lastChange = "2018-03-12 12:07:02 +0000";
layers = (
{
annotations = (
{
position = "{1507.758, 722.969}";
type = Text;
}
);
background = {
paths = (
{
closed = 1;
nodes = (
"110 -75 OFFCURVE",
"75 -40 OFFCURVE",
"75 24 CURVE SMOOTH",
"75 692 LINE SMOOTH",
"75 756 OFFCURVE",
"110 791 OFFCURVE",
"174 791 CURVE SMOOTH",
"895 791 LINE SMOOTH",
"959 791 OFFCURVE",
"994 756 OFFCURVE",
"994 692 CURVE SMOOTH",
"994 24 LINE SMOOTH",
"994 -40 OFFCURVE",
"959 -75 OFFCURVE",
"895 -75 CURVE SMOOTH",
"174 -75 LINE SMOOTH"
);
},
{
closed = 1;
nodes = (
"342 132 LINE SMOOTH",
"346 132 OFFCURVE",
"349 134 OFFCURVE",
"350 139 CURVE SMOOTH",
"372 280 LINE SMOOTH",
"376 308 OFFCURVE",
"379 333 OFFCURVE",
"381 361 CURVE",
"383 361 LINE",
"384 333 OFFCURVE",
"386 308 OFFCURVE",
"390 280 CURVE SMOOTH",
"408 138 LINE SMOOTH",
"408 135 OFFCURVE",
"412 132 OFFCURVE",
"415 132 CURVE SMOOTH",
"504 132 LINE SMOOTH",
"508 132 OFFCURVE",
"510 135 OFFCURVE",
"511 139 CURVE SMOOTH",
"576 580 LINE SMOOTH",
"577 587 OFFCURVE",
"574 591 OFFCURVE",
"570 591 CURVE SMOOTH",
"495 591 LINE SMOOTH",
"491 591 OFFCURVE",
"487 588 OFFCURVE",
"487 584 CURVE SMOOTH",
"466 324 LINE SMOOTH",
"464 294 OFFCURVE",
"462 264 OFFCURVE",
"460 234 CURVE",
"458 234 LINE",
"455 264 OFFCURVE",
"452 293 OFFCURVE",
"449 323 CURVE SMOOTH",
"422 574 LINE SMOOTH",
"422 578 OFFCURVE",
"419 580 OFFCURVE",
"416 580 CURVE SMOOTH",
"332 580 LINE SMOOTH",
"328 580 OFFCURVE",
"325 578 OFFCURVE",
"326 572 CURVE SMOOTH",
"344 489 LINE",
"317 324 LINE SMOOTH",
"312 294 OFFCURVE",
"309 264 OFFCURVE",
"305 234 CURVE",
"303 234 LINE",
"302 264 OFFCURVE",
"301 295 OFFCURVE",
"298 325 CURVE SMOOTH",
"276 584 LINE SMOOTH",
"276 588 OFFCURVE",
"272 591 OFFCURVE",
"267 591 CURVE SMOOTH",
"191 591 LINE SMOOTH",
"187 591 OFFCURVE",
"184 587 OFFCURVE",
"185 580 CURVE SMOOTH",
"250 138 LINE SMOOTH",
"250 135 OFFCURVE",
"252 132 OFFCURVE",
"257 132 CURVE SMOOTH"
);
},
{
closed = 1;
nodes = (
"868 290 OFFCURVE",
"865 296 OFFCURVE",
"860 296 CURVE SMOOTH",
"792 295 LINE SMOOTH",
"785 295 OFFCURVE",
"783 289 OFFCURVE",
"783 284 CURVE SMOOTH",
"783 246 OFFCURVE",
"784 209 OFFCURVE",
"747 209 CURVE SMOOTH",
"715 209 OFFCURVE",
"704 231 OFFCURVE",
"704 281 CURVE SMOOTH",
"704 442 LINE SMOOTH",
"704 493 OFFCURVE",
"715 514 OFFCURVE",
"747 514 CURVE SMOOTH",
"784 514 OFFCURVE",
"783 477 OFFCURVE",
"783 439 CURVE SMOOTH",
"783 434 OFFCURVE",
"785 428 OFFCURVE",
"792 428 CURVE SMOOTH",
"860 427 LINE SMOOTH",
"865 427 OFFCURVE",
"867 433 OFFCURVE",
"868 438 CURVE SMOOTH",
"883 515 OFFCURVE",
"846 598 OFFCURVE",
"744 598 CURVE SMOOTH",
"666 598 OFFCURVE",
"614 554 OFFCURVE",
"614 447 CURVE SMOOTH",
"614 276 LINE SMOOTH",
"614 153 OFFCURVE",
"666 125 OFFCURVE",
"744 125 CURVE SMOOTH",
"846 125 OFFCURVE",
"868 198 OFFCURVE",
"868 285 CURVE SMOOTH"
);
}
);
};
components = (
{
name = blackSquare.roundBlackBox;
}
);
layerId = "9E4B8FD8-F8AF-4AA7-8E0D-0C907FFB2BDD";
paths = (
{
closed = 1;
nodes = (
"343 132 LINE SMOOTH",
"347 132 OFFCURVE",
"350 134 OFFCURVE",
"351 139 CURVE SMOOTH",
"373 280 LINE SMOOTH",
"377 308 OFFCURVE",
"380 333 OFFCURVE",
"382 361 CURVE",
"384 361 LINE",
"385 333 OFFCURVE",
"387 308 OFFCURVE",
"391 280 CURVE SMOOTH",
"409 138 LINE SMOOTH",
"409 135 OFFCURVE",
"413 132 OFFCURVE",
"416 132 CURVE SMOOTH",
"505 132 LINE SMOOTH",
"509 132 OFFCURVE",
"511 135 OFFCURVE",
"512 139 CURVE SMOOTH",
"577 580 LINE SMOOTH",
"578 587 OFFCURVE",
"575 591 OFFCURVE",
"571 591 CURVE SMOOTH",
"496 591 LINE SMOOTH",
"492 591 OFFCURVE",
"488 588 OFFCURVE",
"488 584 CURVE SMOOTH",
"467 324 LINE SMOOTH",
"465 294 OFFCURVE",
"463 264 OFFCURVE",
"461 234 CURVE",
"459 234 LINE",
"456 264 OFFCURVE",
"453 293 OFFCURVE",
"450 323 CURVE SMOOTH",
"423 574 LINE SMOOTH",
"423 578 OFFCURVE",
"420 580 OFFCURVE",
"417 580 CURVE SMOOTH",
"333 580 LINE SMOOTH",
"329 580 OFFCURVE",
"326 578 OFFCURVE",
"327 572 CURVE SMOOTH",
"345 489 LINE",
"318 324 LINE SMOOTH",
"313 294 OFFCURVE",
"310 264 OFFCURVE",
"306 234 CURVE",
"304 234 LINE",
"303 264 OFFCURVE",
"302 295 OFFCURVE",
"299 325 CURVE SMOOTH",
"277 584 LINE SMOOTH",
"277 588 OFFCURVE",
"273 591 OFFCURVE",
"268 591 CURVE SMOOTH",
"192 591 LINE SMOOTH",
"188 591 OFFCURVE",
"185 587 OFFCURVE",
"186 580 CURVE SMOOTH",
"251 138 LINE SMOOTH",
"251 135 OFFCURVE",
"253 132 OFFCURVE",
"258 132 CURVE SMOOTH"
);
},
{
closed = 1;
nodes = (
"869 290 OFFCURVE",
"866 296 OFFCURVE",
"861 296 CURVE SMOOTH",
"793 295 LINE SMOOTH",
"786 295 OFFCURVE",
"784 289 OFFCURVE",
"784 284 CURVE SMOOTH",
"784 246 OFFCURVE",
"785 209 OFFCURVE",
"748 209 CURVE SMOOTH",
"716 209 OFFCURVE",
"705 231 OFFCURVE",
"705 281 CURVE SMOOTH",
"705 442 LINE SMOOTH",
"705 493 OFFCURVE",
"716 514 OFFCURVE",
"748 514 CURVE SMOOTH",
"785 514 OFFCURVE",
"784 477 OFFCURVE",
"784 439 CURVE SMOOTH",
"784 434 OFFCURVE",
"786 428 OFFCURVE",
"793 428 CURVE SMOOTH",
"861 427 LINE SMOOTH",
"866 427 OFFCURVE",
"868 433 OFFCURVE",
"869 438 CURVE SMOOTH",
"884 515 OFFCURVE",
"847 598 OFFCURVE",
"745 598 CURVE SMOOTH",
"667 598 OFFCURVE",
"615 554 OFFCURVE",
"615 447 CURVE SMOOTH",
"615 276 LINE SMOOTH",
"615 153 OFFCURVE",
"667 125 OFFCURVE",
"745 125 CURVE SMOOTH",
"847 125 OFFCURVE",
"869 198 OFFCURVE",
"869 285 CURVE SMOOTH"
);
}
);
width = 1068;
}
);
unicode = 0042;
},
{
glyphname = C;
lastChange = "2018-03-12 12:07:02 +0000";
layers = (
{
background = {
components = (
{
name = whiteRoundedCornersSquare;
transform = "{1, 0, 0, 1, 31, 0}";
}
);
paths = (
{
closed = 1;
nodes = (
"338 132 LINE SMOOTH",
"342 132 OFFCURVE",
"345 134 OFFCURVE",
"346 139 CURVE SMOOTH",
"368 280 LINE SMOOTH",
"372 308 OFFCURVE",
"375 333 OFFCURVE",
"377 361 CURVE",
"379 361 LINE",
"380 333 OFFCURVE",
"382 308 OFFCURVE",
"386 280 CURVE SMOOTH",
"404 138 LINE SMOOTH",
"404 135 OFFCURVE",
"408 132 OFFCURVE",
"411 132 CURVE SMOOTH",
"500 132 LINE SMOOTH",
"504 132 OFFCURVE",
"506 135 OFFCURVE",
"507 139 CURVE SMOOTH",
"572 580 LINE SMOOTH",
"573 587 OFFCURVE",
"570 591 OFFCURVE",
"566 591 CURVE SMOOTH",
"491 591 LINE SMOOTH",
"487 591 OFFCURVE",
"483 588 OFFCURVE",
"483 584 CURVE SMOOTH",
"462 324 LINE SMOOTH",
"460 294 OFFCURVE",
"458 264 OFFCURVE",
"456 234 CURVE",
"454 234 LINE",
"451 264 OFFCURVE",
"448 293 OFFCURVE",
"445 323 CURVE SMOOTH",
"418 574 LINE SMOOTH",
"418 578 OFFCURVE",
"415 580 OFFCURVE",
"412 580 CURVE SMOOTH",
"328 580 LINE SMOOTH",
"324 580 OFFCURVE",
"321 578 OFFCURVE",
"322 572 CURVE SMOOTH",
"340 489 LINE",
"313 324 LINE SMOOTH",
"308 294 OFFCURVE",
"305 264 OFFCURVE",
"301 234 CURVE",
"299 234 LINE",
"298 264 OFFCURVE",
"297 295 OFFCURVE",
"294 325 CURVE SMOOTH",
"272 584 LINE SMOOTH",
"272 588 OFFCURVE",
"268 591 OFFCURVE",
"263 591 CURVE SMOOTH",
"187 591 LINE SMOOTH",
"183 591 OFFCURVE",
"180 587 OFFCURVE",
"181 580 CURVE SMOOTH",
"246 138 LINE SMOOTH",
"246 135 OFFCURVE",
"248 132 OFFCURVE",
"253 132 CURVE SMOOTH"
);
},
{
closed = 1;
nodes = (
"864 290 OFFCURVE",
"861 296 OFFCURVE",
"856 296 CURVE SMOOTH",
"788 295 LINE SMOOTH",
"781 295 OFFCURVE",
"779 289 OFFCURVE",
"779 284 CURVE SMOOTH",
"779 246 OFFCURVE",
"780 209 OFFCURVE",
"743 209 CURVE SMOOTH",
"711 209 OFFCURVE",
"700 231 OFFCURVE",
"700 281 CURVE SMOOTH",
"700 442 LINE SMOOTH",
"700 493 OFFCURVE",
"711 514 OFFCURVE",
"743 514 CURVE SMOOTH",
"780 514 OFFCURVE",
"779 477 OFFCURVE",
"779 439 CURVE SMOOTH",
"779 434 OFFCURVE",
"781 428 OFFCURVE",
"788 428 CURVE SMOOTH",
"856 427 LINE SMOOTH",
"861 427 OFFCURVE",
"863 433 OFFCURVE",
"864 438 CURVE SMOOTH",
"879 515 OFFCURVE",
"842 598 OFFCURVE",
"740 598 CURVE SMOOTH",
"662 598 OFFCURVE",
"610 554 OFFCURVE",
"610 447 CURVE SMOOTH",
"610 276 LINE SMOOTH",
"610 153 OFFCURVE",
"662 125 OFFCURVE",
"740 125 CURVE SMOOTH",
"842 125 OFFCURVE",
"864 198 OFFCURVE",
"864 285 CURVE SMOOTH"
);
}
);
};
components = (
{
name = largecircle;
}
);
layerId = "9E4B8FD8-F8AF-4AA7-8E0D-0C907FFB2BDD";
paths = (
{
closed = 1;
nodes = (
"351 132 LINE SMOOTH",
"355 132 OFFCURVE",
"358 134 OFFCURVE",
"359 139 CURVE SMOOTH",
"381 280 LINE SMOOTH",
"385 308 OFFCURVE",
"388 333 OFFCURVE",
"390 361 CURVE",
"392 361 LINE",
"393 333 OFFCURVE",
"395 308 OFFCURVE",
"399 280 CURVE SMOOTH",
"417 138 LINE SMOOTH",
"417 135 OFFCURVE",
"421 132 OFFCURVE",
"424 132 CURVE SMOOTH",
"513 132 LINE SMOOTH",
"517 132 OFFCURVE",
"519 135 OFFCURVE",
"520 139 CURVE SMOOTH",
"585 580 LINE SMOOTH",
"586 587 OFFCURVE",
"583 591 OFFCURVE",
"579 591 CURVE SMOOTH",
"504 591 LINE SMOOTH",
"500 591 OFFCURVE",
"496 588 OFFCURVE",
"496 584 CURVE SMOOTH",
"475 324 LINE SMOOTH",
"473 294 OFFCURVE",
"471 264 OFFCURVE",
"469 234 CURVE",
"467 234 LINE",
"464 264 OFFCURVE",
"461 293 OFFCURVE",
"458 323 CURVE SMOOTH",
"431 574 LINE SMOOTH",
"431 578 OFFCURVE",
"428 580 OFFCURVE",
"425 580 CURVE SMOOTH",
"341 580 LINE SMOOTH",
"337 580 OFFCURVE",
"334 578 OFFCURVE",
"335 572 CURVE SMOOTH",
"353 489 LINE",
"326 324 LINE SMOOTH",
"321 294 OFFCURVE",
"318 264 OFFCURVE",
"314 234 CURVE",
"312 234 LINE",
"311 264 OFFCURVE",
"310 295 OFFCURVE",
"307 325 CURVE SMOOTH",
"285 584 LINE SMOOTH",
"285 588 OFFCURVE",
"281 591 OFFCURVE",
"276 591 CURVE SMOOTH",
"200 591 LINE SMOOTH",
"196 591 OFFCURVE",
"193 587 OFFCURVE",
"194 580 CURVE SMOOTH",
"259 138 LINE SMOOTH",
"259 135 OFFCURVE",
"261 132 OFFCURVE",
"266 132 CURVE SMOOTH"
);
},
{
closed = 1;
nodes = (
"877 290 OFFCURVE",
"874 296 OFFCURVE",
"869 296 CURVE SMOOTH",
"801 295 LINE SMOOTH",
"794 295 OFFCURVE",
"792 289 OFFCURVE",
"792 284 CURVE SMOOTH",
"792 246 OFFCURVE",
"793 209 OFFCURVE",
"756 209 CURVE SMOOTH",
"724 209 OFFCURVE",
"713 231 OFFCURVE",
"713 281 CURVE SMOOTH",
"713 442 LINE SMOOTH",
"713 493 OFFCURVE",
"724 514 OFFCURVE",
"756 514 CURVE SMOOTH",
"793 514 OFFCURVE",
"792 477 OFFCURVE",
"792 439 CURVE SMOOTH",
"792 434 OFFCURVE",
"794 428 OFFCURVE",
"801 428 CURVE SMOOTH",
"869 427 LINE SMOOTH",
"874 427 OFFCURVE",
"876 433 OFFCURVE",
"877 438 CURVE SMOOTH",
"892 515 OFFCURVE",
"855 598 OFFCURVE",
"753 598 CURVE SMOOTH",
"675 598 OFFCURVE",
"623 554 OFFCURVE",
"623 447 CURVE SMOOTH",
"623 276 LINE SMOOTH",
"623 153 OFFCURVE",
"675 125 OFFCURVE",
"753 125 CURVE SMOOTH",
"855 125 OFFCURVE",
"877 198 OFFCURVE",
"877 285 CURVE SMOOTH"
);
}
);
width = 1068;
},
{
associatedMasterId = "9E4B8FD8-F8AF-4AA7-8E0D-0C907FFB2BDD";
background = {
paths = (
{
closed = 1;
nodes = (
"139 806 LINE SMOOTH",
"85 806 OFFCURVE",
"40 762 OFFCURVE",
"40 708 CURVE SMOOTH",
"40 25 LINE SMOOTH",
"40 -29 OFFCURVE",
"85 -74 OFFCURVE",
"139 -74 CURVE SMOOTH",
"862 -74 LINE SMOOTH",
"916 -74 OFFCURVE",
"960 -29 OFFCURVE",
"960 25 CURVE SMOOTH",
"960 708 LINE SMOOTH",
"960 762 OFFCURVE",
"916 806 OFFCURVE",
"862 806 CURVE SMOOTH"
);
},
{
closed = 1;
nodes = (
"902 784 OFFCURVE",
"938 748 OFFCURVE",
"938 705 CURVE SMOOTH",
"938 28 LINE SMOOTH",
"938 -15 OFFCURVE",
"902 -52 OFFCURVE",
"859 -52 CURVE SMOOTH",
"142 -52 LINE SMOOTH",
"99 -52 OFFCURVE",
"62 -15 OFFCURVE",
"62 28 CURVE SMOOTH",
"62 705 LINE SMOOTH",
"62 748 OFFCURVE",
"99 784 OFFCURVE",
"142 784 CURVE SMOOTH",
"859 784 LINE SMOOTH"
);
},
{
closed = 1;
nodes = (
"266 185 LINE",
"266 97 LINE SMOOTH",
"266 92 OFFCURVE",
"270 88 OFFCURVE",
"275 88 CURVE SMOOTH",
"340 88 LINE SMOOTH",
"346 88 OFFCURVE",
"350 92 OFFCURVE",
"350 97 CURVE SMOOTH",
"350 185 LINE"
);
},
{
closed = 1;
nodes = (
"342 238 OFFCURVE",
"362 258 OFFCURVE",
"362 284 CURVE SMOOTH",
"362 309 OFFCURVE",
"342 329 OFFCURVE",
"317 329 CURVE SMOOTH",
"292 329 OFFCURVE",
"272 309 OFFCURVE",
"272 284 CURVE SMOOTH",
"272 258 OFFCURVE",
"292 238 OFFCURVE",
"317 238 CURVE SMOOTH"
);
},
{
closed = 1;
nodes = (
"655 97 LINE SMOOTH",
"655 92 OFFCURVE",
"659 88 OFFCURVE",
"665 88 CURVE SMOOTH",
"730 88 LINE SMOOTH",
"735 88 OFFCURVE",
"739 92 OFFCURVE",
"739 97 CURVE SMOOTH",
"739 185 LINE",
"655 185 LINE"
);
},
{
closed = 1;
nodes = (
"713 238 OFFCURVE",
"733 258 OFFCURVE",
"733 284 CURVE SMOOTH",
"733 309 OFFCURVE",
"713 329 OFFCURVE",
"688 329 CURVE SMOOTH",
"663 329 OFFCURVE",
"643 309 OFFCURVE",
"643 284 CURVE SMOOTH",
"643 258 OFFCURVE",
"663 238 OFFCURVE",
"688 238 CURVE SMOOTH"
);
},
{
closed = 1;
nodes = (
"271 560 LINE",
"260 397 LINE",
"745 397 LINE",
"734 560 LINE"
);
},
{
closed = 1;
nodes = (
"760 592 LINE",
"602 592 LINE",
"602 645 LINE",
"403 645 LINE",
"403 592 LINE",
"245 592 LINE",
"231 397 LINE",
"194 397 LINE",
"194 160 LINE",
"811 160 LINE",
"811 397 LINE",
"774 397 LINE"
);
},
{
closed = 1;
nodes = (
"400 310 LINE",
"400 290 LINE",
"605 290 LINE",
"605 310 LINE"
);
},
{
closed = 1;
nodes = (
"400 265 LINE",
"400 245 LINE",
"605 245 LINE",
"605 265 LINE"
);
}
);
};
layerId = "346C0EA8-9638-4244-B17D-E97A86FA40DB";
name = "Sep 8 17, 13:27";
paths = (
{
closed = 1;
nodes = (
"139 806 LINE SMOOTH",
"85 806 OFFCURVE",
"40 762 OFFCURVE",
"40 708 CURVE SMOOTH",
"40 25 LINE SMOOTH",
"40 -29 OFFCURVE",
"85 -74 OFFCURVE",
"139 -74 CURVE SMOOTH",
"862 -74 LINE SMOOTH",
"916 -74 OFFCURVE",
"960 -29 OFFCURVE",
"960 25 CURVE SMOOTH",
"960 708 LINE SMOOTH",
"960 762 OFFCURVE",
"916 806 OFFCURVE",
"862 806 CURVE SMOOTH"
);
},
{
closed = 1;
nodes = (
"902 784 OFFCURVE",
"938 748 OFFCURVE",
"938 705 CURVE SMOOTH",
"938 28 LINE SMOOTH",
"938 -15 OFFCURVE",
"902 -52 OFFCURVE",
"859 -52 CURVE SMOOTH",
"142 -52 LINE SMOOTH",
"99 -52 OFFCURVE",
"62 -15 OFFCURVE",
"62 28 CURVE SMOOTH",
"62 705 LINE SMOOTH",
"62 748 OFFCURVE",
"99 784 OFFCURVE",
"142 784 CURVE SMOOTH",
"859 784 LINE SMOOTH"
);
},
{
closed = 1;
nodes = (
"266 185 LINE",
"266 97 LINE SMOOTH",
"266 92 OFFCURVE",
"270 88 OFFCURVE",
"275 88 CURVE SMOOTH",
"340 88 LINE SMOOTH",
"346 88 OFFCURVE",
"350 92 OFFCURVE",
"350 97 CURVE SMOOTH",
"350 185 LINE"
);
},
{
closed = 1;
nodes = (
"342 238 OFFCURVE",
"362 258 OFFCURVE",
"362 284 CURVE SMOOTH",
"362 309 OFFCURVE",
"342 329 OFFCURVE",
"317 329 CURVE SMOOTH",
"292 329 OFFCURVE",
"272 309 OFFCURVE",
"272 284 CURVE SMOOTH",
"272 258 OFFCURVE",
"292 238 OFFCURVE",
"317 238 CURVE SMOOTH"
);
},
{
closed = 1;
nodes = (
"655 97 LINE SMOOTH",
"655 92 OFFCURVE",
"659 88 OFFCURVE",
"665 88 CURVE SMOOTH",
"730 88 LINE SMOOTH",
"735 88 OFFCURVE",
"739 92 OFFCURVE",
"739 97 CURVE SMOOTH",
"739 185 LINE",
"655 185 LINE"
);
},
{
closed = 1;
nodes = (
"713 238 OFFCURVE",
"733 258 OFFCURVE",
"733 284 CURVE SMOOTH",
"733 309 OFFCURVE",
"713 329 OFFCURVE",
"688 329 CURVE SMOOTH",
"663 329 OFFCURVE",
"643 309 OFFCURVE",
"643 284 CURVE SMOOTH",
"643 258 OFFCURVE",
"663 238 OFFCURVE",
"688 238 CURVE SMOOTH"
);
},
{
closed = 1;
nodes = (
"271 560 LINE",
"260 397 LINE",
"745 397 LINE",
"734 560 LINE"
);
},
{
closed = 1;
nodes = (
"760 592 LINE",
"602 592 LINE",
"602 645 LINE",
"403 645 LINE",
"403 592 LINE",
"245 592 LINE",
"231 397 LINE",
"194 397 LINE",
"194 160 LINE",
"811 160 LINE",
"811 397 LINE",
"774 397 LINE"
);
},
{
closed = 1;
nodes = (
"400 310 LINE",
"400 290 LINE",
"605 290 LINE",
"605 310 LINE"
);
},
{
closed = 1;
nodes = (
"400 265 LINE",
"400 245 LINE",
"605 245 LINE",
"605 265 LINE"
);
}
);
width = 1000;
}
);
unicode = 0043;
},
{
glyphname = D;
lastChange = "2018-03-12 12:07:02 +0000";
layers = (
{
background = {
paths = (
{
closed = 1;
nodes = (
"352 132 LINE SMOOTH",
"356 132 OFFCURVE",
"359 134 OFFCURVE",
"360 139 CURVE SMOOTH",
"382 280 LINE SMOOTH",
"386 308 OFFCURVE",
"389 333 OFFCURVE",
"391 361 CURVE",
"393 361 LINE",
"394 333 OFFCURVE",
"396 308 OFFCURVE",
"400 280 CURVE SMOOTH",
"418 138 LINE SMOOTH",
"418 135 OFFCURVE",
"422 132 OFFCURVE",
"425 132 CURVE SMOOTH",
"514 132 LINE SMOOTH",
"518 132 OFFCURVE",
"520 135 OFFCURVE",
"521 139 CURVE SMOOTH",
"586 580 LINE SMOOTH",
"587 587 OFFCURVE",
"584 591 OFFCURVE",
"580 591 CURVE SMOOTH",
"505 591 LINE SMOOTH",
"501 591 OFFCURVE",
"497 588 OFFCURVE",
"497 584 CURVE SMOOTH",
"476 324 LINE SMOOTH",
"474 294 OFFCURVE",
"472 264 OFFCURVE",
"470 234 CURVE",
"468 234 LINE",
"465 264 OFFCURVE",
"462 293 OFFCURVE",
"459 323 CURVE SMOOTH",
"432 574 LINE SMOOTH",
"432 578 OFFCURVE",
"429 580 OFFCURVE",
"426 580 CURVE SMOOTH",
"342 580 LINE SMOOTH",
"338 580 OFFCURVE",
"335 578 OFFCURVE",
"336 572 CURVE SMOOTH",
"354 489 LINE",
"327 324 LINE SMOOTH",
"322 294 OFFCURVE",
"319 264 OFFCURVE",
"315 234 CURVE",
"313 234 LINE",
"312 264 OFFCURVE",
"311 295 OFFCURVE",
"308 325 CURVE SMOOTH",
"286 584 LINE SMOOTH",
"286 588 OFFCURVE",
"282 591 OFFCURVE",
"277 591 CURVE SMOOTH",
"201 591 LINE SMOOTH",
"197 591 OFFCURVE",
"194 587 OFFCURVE",
"195 580 CURVE SMOOTH",
"260 138 LINE SMOOTH",
"260 135 OFFCURVE",
"262 132 OFFCURVE",
"267 132 CURVE SMOOTH"
);
},
{
closed = 1;
nodes = (
"878 290 OFFCURVE",
"875 296 OFFCURVE",
"870 296 CURVE SMOOTH",
"802 295 LINE SMOOTH",
"795 295 OFFCURVE",
"793 289 OFFCURVE",
"793 284 CURVE SMOOTH",
"793 246 OFFCURVE",
"794 209 OFFCURVE",
"757 209 CURVE SMOOTH",
"725 209 OFFCURVE",
"714 231 OFFCURVE",
"714 281 CURVE SMOOTH",
"714 442 LINE SMOOTH",
"714 493 OFFCURVE",
"725 514 OFFCURVE",
"757 514 CURVE SMOOTH",
"794 514 OFFCURVE",
"793 477 OFFCURVE",
"793 439 CURVE SMOOTH",
"793 434 OFFCURVE",
"795 428 OFFCURVE",
"802 428 CURVE SMOOTH",
"870 427 LINE SMOOTH",
"875 427 OFFCURVE",
"877 433 OFFCURVE",
"878 438 CURVE SMOOTH",
"893 515 OFFCURVE",
"856 598 OFFCURVE",
"754 598 CURVE SMOOTH",
"676 598 OFFCURVE",
"624 554 OFFCURVE",
"624 447 CURVE SMOOTH",
"624 276 LINE SMOOTH",
"624 153 OFFCURVE",
"676 125 OFFCURVE",
"754 125 CURVE SMOOTH",
"856 125 OFFCURVE",
"878 198 OFFCURVE",
"878 285 CURVE SMOOTH"
);
}
);
};
components = (
{
name = blackLargeCircle;
}
);
layerId = "9E4B8FD8-F8AF-4AA7-8E0D-0C907FFB2BDD";
paths = (
{
closed = 1;
nodes = (
"351 132 LINE SMOOTH",
"355 132 OFFCURVE",
"358 134 OFFCURVE",
"359 139 CURVE SMOOTH",
"381 280 LINE SMOOTH",
"385 308 OFFCURVE",
"388 333 OFFCURVE",
"390 361 CURVE",
"392 361 LINE",
"393 333 OFFCURVE",
"395 308 OFFCURVE",
"399 280 CURVE SMOOTH",
"417 138 LINE SMOOTH",
"417 135 OFFCURVE",
"421 132 OFFCURVE",
"424 132 CURVE SMOOTH",
"513 132 LINE SMOOTH",
"517 132 OFFCURVE",
"519 135 OFFCURVE",
"520 139 CURVE SMOOTH",
"585 580 LINE SMOOTH",
"586 587 OFFCURVE",
"583 591 OFFCURVE",
"579 591 CURVE SMOOTH",
"504 591 LINE SMOOTH",
"500 591 OFFCURVE",
"496 588 OFFCURVE",
"496 584 CURVE SMOOTH",
"475 324 LINE SMOOTH",
"473 294 OFFCURVE",
"471 264 OFFCURVE",
"469 234 CURVE",
"467 234 LINE",
"464 264 OFFCURVE",
"461 293 OFFCURVE",
"458 323 CURVE SMOOTH",
"431 574 LINE SMOOTH",
"431 578 OFFCURVE",
"428 580 OFFCURVE",
"425 580 CURVE SMOOTH",
"341 580 LINE SMOOTH",
"337 580 OFFCURVE",
"334 578 OFFCURVE",
"335 572 CURVE SMOOTH",
"353 489 LINE",
"326 324 LINE SMOOTH",
"321 294 OFFCURVE",
"318 264 OFFCURVE",
"314 234 CURVE",
"312 234 LINE",
"311 264 OFFCURVE",
"310 295 OFFCURVE",
"307 325 CURVE SMOOTH",
"285 584 LINE SMOOTH",
"285 588 OFFCURVE",
"281 591 OFFCURVE",
"276 591 CURVE SMOOTH",
"200 591 LINE SMOOTH",
"196 591 OFFCURVE",
"193 587 OFFCURVE",
"194 580 CURVE SMOOTH",
"259 138 LINE SMOOTH",
"259 135 OFFCURVE",
"261 132 OFFCURVE",
"266 132 CURVE SMOOTH"
);
},
{
closed = 1;
nodes = (
"877 290 OFFCURVE",
"874 296 OFFCURVE",
"869 296 CURVE SMOOTH",
"801 295 LINE SMOOTH",
"794 295 OFFCURVE",
"792 289 OFFCURVE",
"792 284 CURVE SMOOTH",
"792 246 OFFCURVE",
"793 209 OFFCURVE",
"756 209 CURVE SMOOTH",
"724 209 OFFCURVE",
"713 231 OFFCURVE",
"713 281 CURVE SMOOTH",
"713 442 LINE SMOOTH",
"713 493 OFFCURVE",
"724 514 OFFCURVE",
"756 514 CURVE SMOOTH",
"793 514 OFFCURVE",
"792 477 OFFCURVE",
"792 439 CURVE SMOOTH",
"792 434 OFFCURVE",
"794 428 OFFCURVE",
"801 428 CURVE SMOOTH",
"869 427 LINE SMOOTH",
"874 427 OFFCURVE",
"876 433 OFFCURVE",
"877 438 CURVE SMOOTH",
"892 515 OFFCURVE",
"855 598 OFFCURVE",
"753 598 CURVE SMOOTH",
"675 598 OFFCURVE",
"623 554 OFFCURVE",
"623 447 CURVE SMOOTH",
"623 276 LINE SMOOTH",
"623 153 OFFCURVE",
"675 125 OFFCURVE",
"753 125 CURVE SMOOTH",
"855 125 OFFCURVE",
"877 198 OFFCURVE",
"877 285 CURVE SMOOTH"
);
}
);
width = 1068;
}
);
unicode = 0044;
},
{
glyphname = E;
lastChange = "2018-03-12 12:07:02 +0000";
layers = (
{
background = {
components = (
{
name = whiteRoundedCornersSquare;
transform = "{1, 0, 0, 1, 35, 0}";
}
);
paths = (
{
closed = 1;
nodes = (
"342 132 LINE SMOOTH",
"346 132 OFFCURVE",
"349 134 OFFCURVE",
"350 139 CURVE SMOOTH",
"372 280 LINE SMOOTH",
"376 308 OFFCURVE",
"379 333 OFFCURVE",
"381 361 CURVE",
"383 361 LINE",
"384 333 OFFCURVE",
"386 308 OFFCURVE",
"390 280 CURVE SMOOTH",
"408 138 LINE SMOOTH",
"408 135 OFFCURVE",
"412 132 OFFCURVE",
"415 132 CURVE SMOOTH",
"504 132 LINE SMOOTH",
"508 132 OFFCURVE",
"510 135 OFFCURVE",
"511 139 CURVE SMOOTH",
"576 580 LINE SMOOTH",
"577 587 OFFCURVE",
"574 591 OFFCURVE",
"570 591 CURVE SMOOTH",
"495 591 LINE SMOOTH",
"491 591 OFFCURVE",
"487 588 OFFCURVE",
"487 584 CURVE SMOOTH",
"466 324 LINE SMOOTH",
"464 294 OFFCURVE",
"462 264 OFFCURVE",
"460 234 CURVE",
"458 234 LINE",
"455 264 OFFCURVE",
"452 293 OFFCURVE",
"449 323 CURVE SMOOTH",
"422 574 LINE SMOOTH",
"422 578 OFFCURVE",
"419 580 OFFCURVE",
"416 580 CURVE SMOOTH",
"332 580 LINE SMOOTH",
"328 580 OFFCURVE",
"325 578 OFFCURVE",
"326 572 CURVE SMOOTH",
"344 489 LINE",
"317 324 LINE SMOOTH",
"312 294 OFFCURVE",
"309 264 OFFCURVE",
"305 234 CURVE",
"303 234 LINE",
"302 264 OFFCURVE",
"301 295 OFFCURVE",
"298 325 CURVE SMOOTH",
"276 584 LINE SMOOTH",
"276 588 OFFCURVE",
"272 591 OFFCURVE",
"267 591 CURVE SMOOTH",
"191 591 LINE SMOOTH",
"187 591 OFFCURVE",
"184 587 OFFCURVE",
"185 580 CURVE SMOOTH",
"250 138 LINE SMOOTH",
"250 135 OFFCURVE",
"252 132 OFFCURVE",
"257 132 CURVE SMOOTH"
);
},
{
closed = 1;
nodes = (
"868 290 OFFCURVE",
"865 296 OFFCURVE",
"860 296 CURVE SMOOTH",
"792 295 LINE SMOOTH",
"785 295 OFFCURVE",
"783 289 OFFCURVE",
"783 284 CURVE SMOOTH",
"783 246 OFFCURVE",
"784 209 OFFCURVE",
"747 209 CURVE SMOOTH",
"715 209 OFFCURVE",
"704 231 OFFCURVE",
"704 281 CURVE SMOOTH",
"704 442 LINE SMOOTH",
"704 493 OFFCURVE",
"715 514 OFFCURVE",
"747 514 CURVE SMOOTH",
"784 514 OFFCURVE",
"783 477 OFFCURVE",
"783 439 CURVE SMOOTH",
"783 434 OFFCURVE",
"785 428 OFFCURVE",
"792 428 CURVE SMOOTH",
"860 427 LINE SMOOTH",
"865 427 OFFCURVE",
"867 433 OFFCURVE",
"868 438 CURVE SMOOTH",
"883 515 OFFCURVE",
"846 598 OFFCURVE",
"744 598 CURVE SMOOTH",
"666 598 OFFCURVE",
"614 554 OFFCURVE",
"614 447 CURVE SMOOTH",
"614 276 LINE SMOOTH",
"614 153 OFFCURVE",
"666 125 OFFCURVE",
"744 125 CURVE SMOOTH",
"846 125 OFFCURVE",
"868 198 OFFCURVE",
"868 285 CURVE SMOOTH"
);
}
);
};
layerId = "9E4B8FD8-F8AF-4AA7-8E0D-0C907FFB2BDD";
paths = (
{
closed = 1;
nodes = (
"342 132 LINE SMOOTH",
"346 132 OFFCURVE",
"349 134 OFFCURVE",
"350 139 CURVE SMOOTH",
"372 280 LINE SMOOTH",
"376 308 OFFCURVE",
"379 333 OFFCURVE",
"381 361 CURVE",
"383 361 LINE",
"384 333 OFFCURVE",
"386 308 OFFCURVE",
"390 280 CURVE SMOOTH",
"408 138 LINE SMOOTH",
"408 135 OFFCURVE",
"412 132 OFFCURVE",
"415 132 CURVE SMOOTH",
"504 132 LINE SMOOTH",
"508 132 OFFCURVE",
"510 135 OFFCURVE",
"511 139 CURVE SMOOTH",
"576 580 LINE SMOOTH",
"577 587 OFFCURVE",
"574 591 OFFCURVE",
"570 591 CURVE SMOOTH",
"495 591 LINE SMOOTH",
"491 591 OFFCURVE",
"487 588 OFFCURVE",
"487 584 CURVE SMOOTH",
"466 324 LINE SMOOTH",
"464 294 OFFCURVE",
"462 264 OFFCURVE",
"460 234 CURVE",
"458 234 LINE",
"455 264 OFFCURVE",
"452 293 OFFCURVE",
"449 323 CURVE SMOOTH",
"422 574 LINE SMOOTH",
"422 578 OFFCURVE",
"419 580 OFFCURVE",
"416 580 CURVE SMOOTH",
"332 580 LINE SMOOTH",
"328 580 OFFCURVE",
"325 578 OFFCURVE",
"326 572 CURVE SMOOTH",
"344 489 LINE",
"317 324 LINE SMOOTH",
"312 294 OFFCURVE",
"309 264 OFFCURVE",
"305 234 CURVE",
"303 234 LINE",
"302 264 OFFCURVE",
"301 295 OFFCURVE",
"298 325 CURVE SMOOTH",
"276 584 LINE SMOOTH",
"276 588 OFFCURVE",
"272 591 OFFCURVE",
"267 591 CURVE SMOOTH",
"191 591 LINE SMOOTH",
"187 591 OFFCURVE",
"184 587 OFFCURVE",
"185 580 CURVE SMOOTH",
"250 138 LINE SMOOTH",
"250 135 OFFCURVE",
"252 132 OFFCURVE",
"257 132 CURVE SMOOTH"
);
},
{
closed = 1;
nodes = (
"868 290 OFFCURVE",
"865 296 OFFCURVE",
"860 296 CURVE SMOOTH",
"792 295 LINE SMOOTH",
"785 295 OFFCURVE",
"783 289 OFFCURVE",
"783 284 CURVE SMOOTH",
"783 246 OFFCURVE",
"784 209 OFFCURVE",
"747 209 CURVE SMOOTH",
"715 209 OFFCURVE",
"704 231 OFFCURVE",
"704 281 CURVE SMOOTH",
"704 442 LINE SMOOTH",
"704 493 OFFCURVE",
"715 514 OFFCURVE",
"747 514 CURVE SMOOTH",
"784 514 OFFCURVE",
"783 477 OFFCURVE",
"783 439 CURVE SMOOTH",
"783 434 OFFCURVE",
"785 428 OFFCURVE",
"792 428 CURVE SMOOTH",
"860 427 LINE SMOOTH",
"865 427 OFFCURVE",
"867 433 OFFCURVE",
"868 438 CURVE SMOOTH",
"883 515 OFFCURVE",
"846 598 OFFCURVE",
"744 598 CURVE SMOOTH",
"666 598 OFFCURVE",
"614 554 OFFCURVE",
"614 447 CURVE SMOOTH",
"614 276 LINE SMOOTH",
"614 153 OFFCURVE",
"666 125 OFFCURVE",
"744 125 CURVE SMOOTH",
"846 125 OFFCURVE",
"868 198 OFFCURVE",
"868 285 CURVE SMOOTH"
);
}
);
width = 1068;
}
);
unicode = 0045;
},
{
glyphname = F;
lastChange = "2018-03-12 12:07:02 +0000";
layers = (
{
background = {
components = (
{
name = whiteRoundedCornersSquare;
transform = "{1, 0, 0, 1, 34, 0}";
}
);
paths = (
{
closed = 1;
nodes = (
"428 89 LINE SMOOTH",
"435 89 OFFCURVE",
"441 94 OFFCURVE",
"441 102 CURVE SMOOTH",
"441 295 LINE",
"627 295 LINE",
"627 102 LINE SMOOTH",
"627 94 OFFCURVE",
"632 89 OFFCURVE",
"640 89 CURVE SMOOTH",
"772 89 LINE SMOOTH",
"779 89 OFFCURVE",
"785 94 OFFCURVE",
"785 102 CURVE SMOOTH",
"785 622 LINE SMOOTH",
"785 631 OFFCURVE",
"779 635 OFFCURVE",
"772 635 CURVE SMOOTH",
"640 635 LINE SMOOTH",
"632 635 OFFCURVE",
"627 631 OFFCURVE",
"627 622 CURVE SMOOTH",
"627 427 LINE",
"441 427 LINE",
"441 622 LINE SMOOTH",
"441 631 OFFCURVE",
"435 635 OFFCURVE",
"428 635 CURVE SMOOTH",
"296 635 LINE SMOOTH",
"288 635 OFFCURVE",
"283 631 OFFCURVE",
"283 622 CURVE SMOOTH",
"283 102 LINE SMOOTH",
"283 94 OFFCURVE",
"288 89 OFFCURVE",
"296 89 CURVE SMOOTH"
);
}
);
};
components = (
{
name = whiteRoundedCornersSquare;
}
);
layerId = "9E4B8FD8-F8AF-4AA7-8E0D-0C907FFB2BDD";
paths = (
{
closed = 1;
nodes = (
"428 89 LINE SMOOTH",
"435 89 OFFCURVE",
"441 94 OFFCURVE",
"441 102 CURVE SMOOTH",
"441 295 LINE",
"627 295 LINE",
"627 102 LINE SMOOTH",
"627 94 OFFCURVE",
"632 89 OFFCURVE",
"640 89 CURVE SMOOTH",
"772 89 LINE SMOOTH",
"779 89 OFFCURVE",
"785 94 OFFCURVE",
"785 102 CURVE SMOOTH",
"785 622 LINE SMOOTH",
"785 631 OFFCURVE",
"779 635 OFFCURVE",
"772 635 CURVE SMOOTH",
"640 635 LINE SMOOTH",
"632 635 OFFCURVE",
"627 631 OFFCURVE",
"627 622 CURVE SMOOTH",
"627 427 LINE",
"441 427 LINE",
"441 622 LINE SMOOTH",
"441 631 OFFCURVE",
"435 635 OFFCURVE",
"428 635 CURVE SMOOTH",
"296 635 LINE SMOOTH",
"288 635 OFFCURVE",
"283 631 OFFCURVE",
"283 622 CURVE SMOOTH",
"283 102 LINE SMOOTH",
"283 94 OFFCURVE",
"288 89 OFFCURVE",
"296 89 CURVE SMOOTH"
);
}
);
width = 1068;
}
);
unicode = 0046;
},
{
glyphname = G;
lastChange = "2018-03-12 12:07:02 +0000";
layers = (
{
background = {
paths = (
{
closed = 1;
nodes = (
"174 791 LINE SMOOTH",
"110 791 OFFCURVE",
"75 756 OFFCURVE",
"75 692 CURVE SMOOTH",
"75 24 LINE SMOOTH",
"75 -40 OFFCURVE",
"110 -75 OFFCURVE",
"174 -75 CURVE SMOOTH",
"895 -75 LINE SMOOTH",
"959 -75 OFFCURVE",
"994 -40 OFFCURVE",
"994 24 CURVE SMOOTH",
"994 692 LINE SMOOTH",
"994 756 OFFCURVE",
"959 791 OFFCURVE",
"895 791 CURVE SMOOTH"
);
},
{
closed = 1;
nodes = (
"289 89 OFFCURVE",
"284 94 OFFCURVE",
"284 102 CURVE SMOOTH",
"284 622 LINE SMOOTH",
"284 631 OFFCURVE",
"289 635 OFFCURVE",
"297 635 CURVE SMOOTH",
"429 635 LINE SMOOTH",
"436 635 OFFCURVE",
"442 631 OFFCURVE",
"442 622 CURVE SMOOTH",
"442 427 LINE",
"628 427 LINE",
"628 622 LINE SMOOTH",
"628 631 OFFCURVE",
"633 635 OFFCURVE",
"641 635 CURVE SMOOTH",
"773 635 LINE SMOOTH",
"780 635 OFFCURVE",
"786 631 OFFCURVE",
"786 622 CURVE SMOOTH",
"786 102 LINE SMOOTH",
"786 94 OFFCURVE",
"780 89 OFFCURVE",
"773 89 CURVE SMOOTH",
"641 89 LINE SMOOTH",
"633 89 OFFCURVE",
"628 94 OFFCURVE",
"628 102 CURVE SMOOTH",
"628 295 LINE",
"442 295 LINE",
"442 102 LINE SMOOTH",
"442 94 OFFCURVE",
"436 89 OFFCURVE",
"429 89 CURVE SMOOTH",
"297 89 LINE SMOOTH"
);
}
);
};
components = (
{
name = blackSquare.roundBlackBox;
}
);
layerId = "9E4B8FD8-F8AF-4AA7-8E0D-0C907FFB2BDD";
paths = (
{
closed = 1;
nodes = (
"428 89 LINE SMOOTH",
"435 89 OFFCURVE",
"441 94 OFFCURVE",
"441 102 CURVE SMOOTH",
"441 295 LINE",
"627 295 LINE",
"627 102 LINE SMOOTH",
"627 94 OFFCURVE",
"632 89 OFFCURVE",
"640 89 CURVE SMOOTH",
"772 89 LINE SMOOTH",
"779 89 OFFCURVE",
"785 94 OFFCURVE",
"785 102 CURVE SMOOTH",
"785 622 LINE SMOOTH",
"785 631 OFFCURVE",
"779 635 OFFCURVE",
"772 635 CURVE SMOOTH",
"640 635 LINE SMOOTH",
"632 635 OFFCURVE",
"627 631 OFFCURVE",
"627 622 CURVE SMOOTH",
"627 427 LINE",
"441 427 LINE",
"441 622 LINE SMOOTH",
"441 631 OFFCURVE",
"435 635 OFFCURVE",
"428 635 CURVE SMOOTH",
"296 635 LINE SMOOTH",
"288 635 OFFCURVE",
"283 631 OFFCURVE",
"283 622 CURVE SMOOTH",
"283 102 LINE SMOOTH",
"283 94 OFFCURVE",
"288 89 OFFCURVE",
"296 89 CURVE SMOOTH"
);
}
);
width = 1068;
}
);
unicode = 0047;
},
{
glyphname = H;
lastChange = "2018-03-12 12:07:02 +0000";
layers = (
{
background = {
components = (
{
name = whiteRoundedCornersSquare;
transform = "{1, 0, 0, 1, 10, 0}";
}
);
paths = (
{
closed = 1;
nodes = (
"404 89 LINE SMOOTH",
"411 89 OFFCURVE",
"417 94 OFFCURVE",
"417 102 CURVE SMOOTH",
"417 295 LINE",
"603 295 LINE",
"603 102 LINE SMOOTH",
"603 94 OFFCURVE",
"608 89 OFFCURVE",
"616 89 CURVE SMOOTH",
"748 89 LINE SMOOTH",
"755 89 OFFCURVE",
"761 94 OFFCURVE",
"761 102 CURVE SMOOTH",
"761 622 LINE SMOOTH",
"761 631 OFFCURVE",
"755 635 OFFCURVE",
"748 635 CURVE SMOOTH",
"616 635 LINE SMOOTH",
"608 635 OFFCURVE",
"603 631 OFFCURVE",
"603 622 CURVE SMOOTH",
"603 427 LINE",
"417 427 LINE",
"417 622 LINE SMOOTH",
"417 631 OFFCURVE",
"411 635 OFFCURVE",
"404 635 CURVE SMOOTH",
"272 635 LINE SMOOTH",
"264 635 OFFCURVE",
"259 631 OFFCURVE",
"259 622 CURVE SMOOTH",
"259 102 LINE SMOOTH",
"259 94 OFFCURVE",
"264 89 OFFCURVE",
"272 89 CURVE SMOOTH"
);
}
);
};
components = (
{
name = largecircle;
}
);
layerId = "9E4B8FD8-F8AF-4AA7-8E0D-0C907FFB2BDD";
paths = (
{
closed = 1;
nodes = (
"438 89 LINE SMOOTH",
"445 89 OFFCURVE",
"451 94 OFFCURVE",
"451 102 CURVE SMOOTH",
"451 295 LINE",
"637 295 LINE",
"637 102 LINE SMOOTH",
"637 94 OFFCURVE",
"642 89 OFFCURVE",
"650 89 CURVE SMOOTH",
"782 89 LINE SMOOTH",
"789 89 OFFCURVE",
"795 94 OFFCURVE",
"795 102 CURVE SMOOTH",
"795 622 LINE SMOOTH",
"795 631 OFFCURVE",
"789 635 OFFCURVE",
"782 635 CURVE SMOOTH",
"650 635 LINE SMOOTH",
"642 635 OFFCURVE",
"637 631 OFFCURVE",
"637 622 CURVE SMOOTH",
"637 427 LINE",
"451 427 LINE",
"451 622 LINE SMOOTH",
"451 631 OFFCURVE",
"445 635 OFFCURVE",
"438 635 CURVE SMOOTH",
"306 635 LINE SMOOTH",
"298 635 OFFCURVE",
"293 631 OFFCURVE",
"293 622 CURVE SMOOTH",
"293 102 LINE SMOOTH",
"293 94 OFFCURVE",
"298 89 OFFCURVE",
"306 89 CURVE SMOOTH"
);
}
);
width = 1068;
}
);
unicode = 0048;
},
{
glyphname = I;
lastChange = "2018-03-12 12:07:02 +0000";
layers = (
{
background = {
paths = (
{
closed = 1;
nodes = (
"139 791 LINE SMOOTH",
"75 791 OFFCURVE",
"40 756 OFFCURVE",
"40 692 CURVE SMOOTH",
"40 24 LINE SMOOTH",
"40 -40 OFFCURVE",
"75 -75 OFFCURVE",
"139 -75 CURVE SMOOTH",
"860 -75 LINE SMOOTH",
"924 -75 OFFCURVE",
"959 -40 OFFCURVE",
"959 24 CURVE SMOOTH",
"959 692 LINE SMOOTH",
"959 756 OFFCURVE",
"924 791 OFFCURVE",
"860 791 CURVE SMOOTH"
);
},
{
closed = 1;
nodes = (
"254 89 OFFCURVE",
"249 94 OFFCURVE",
"249 102 CURVE SMOOTH",
"249 622 LINE SMOOTH",
"249 631 OFFCURVE",
"254 635 OFFCURVE",
"262 635 CURVE SMOOTH",
"394 635 LINE SMOOTH",
"401 635 OFFCURVE",
"407 631 OFFCURVE",
"407 622 CURVE SMOOTH",
"407 427 LINE",
"593 427 LINE",
"593 622 LINE SMOOTH",
"593 631 OFFCURVE",
"598 635 OFFCURVE",
"606 635 CURVE SMOOTH",
"738 635 LINE SMOOTH",
"745 635 OFFCURVE",
"751 631 OFFCURVE",
"751 622 CURVE SMOOTH",
"751 102 LINE SMOOTH",
"751 94 OFFCURVE",
"745 89 OFFCURVE",
"738 89 CURVE SMOOTH",
"606 89 LINE SMOOTH",
"598 89 OFFCURVE",
"593 94 OFFCURVE",
"593 102 CURVE SMOOTH",
"593 295 LINE",
"407 295 LINE",
"407 102 LINE SMOOTH",
"407 94 OFFCURVE",
"401 89 OFFCURVE",
"394 89 CURVE SMOOTH",
"262 89 LINE SMOOTH"
);
}
);
};
components = (
{
name = blackLargeCircle;
}
);
layerId = "9E4B8FD8-F8AF-4AA7-8E0D-0C907FFB2BDD";
paths = (
{
closed = 1;
nodes = (
"428 89 LINE SMOOTH",
"435 89 OFFCURVE",
"441 94 OFFCURVE",
"441 102 CURVE SMOOTH",
"441 295 LINE",
"627 295 LINE",
"627 102 LINE SMOOTH",
"627 94 OFFCURVE",
"632 89 OFFCURVE",
"640 89 CURVE SMOOTH",
"772 89 LINE SMOOTH",
"779 89 OFFCURVE",
"785 94 OFFCURVE",
"785 102 CURVE SMOOTH",
"785 622 LINE SMOOTH",
"785 631 OFFCURVE",
"779 635 OFFCURVE",
"772 635 CURVE SMOOTH",
"640 635 LINE SMOOTH",
"632 635 OFFCURVE",
"627 631 OFFCURVE",
"627 622 CURVE SMOOTH",
"627 427 LINE",
"441 427 LINE",
"441 622 LINE SMOOTH",
"441 631 OFFCURVE",
"435 635 OFFCURVE",
"428 635 CURVE SMOOTH",
"296 635 LINE SMOOTH",
"288 635 OFFCURVE",
"283 631 OFFCURVE",
"283 622 CURVE SMOOTH",
"283 102 LINE SMOOTH",
"283 94 OFFCURVE",
"288 89 OFFCURVE",
"296 89 CURVE SMOOTH"
);
}
);
width = 1068;
},
{
associatedMasterId = "9E4B8FD8-F8AF-4AA7-8E0D-0C907FFB2BDD";
background = {
paths = (
{
closed = 1;
nodes = (
"139 806 LINE SMOOTH",
"85 806 OFFCURVE",
"40 762 OFFCURVE",
"40 708 CURVE SMOOTH",
"40 25 LINE SMOOTH",
"40 -29 OFFCURVE",
"85 -74 OFFCURVE",
"139 -74 CURVE SMOOTH",
"862 -74 LINE SMOOTH",
"916 -74 OFFCURVE",
"960 -29 OFFCURVE",
"960 25 CURVE SMOOTH",
"960 708 LINE SMOOTH",
"960 762 OFFCURVE",
"916 806 OFFCURVE",
"862 806 CURVE SMOOTH"
);
},
{
closed = 1;
nodes = (
"902 784 OFFCURVE",
"938 748 OFFCURVE",
"938 705 CURVE SMOOTH",
"938 28 LINE SMOOTH",
"938 -15 OFFCURVE",
"902 -52 OFFCURVE",
"859 -52 CURVE SMOOTH",
"142 -52 LINE SMOOTH",
"99 -52 OFFCURVE",
"62 -15 OFFCURVE",
"62 28 CURVE SMOOTH",
"62 705 LINE SMOOTH",
"62 748 OFFCURVE",
"99 784 OFFCURVE",
"142 784 CURVE SMOOTH",
"859 784 LINE SMOOTH"
);
},
{
closed = 1;
nodes = (
"266 185 LINE",
"266 97 LINE SMOOTH",
"266 92 OFFCURVE",
"270 88 OFFCURVE",
"275 88 CURVE SMOOTH",
"340 88 LINE SMOOTH",
"346 88 OFFCURVE",
"350 92 OFFCURVE",
"350 97 CURVE SMOOTH",
"350 185 LINE"
);
},
{
closed = 1;
nodes = (
"342 238 OFFCURVE",
"362 258 OFFCURVE",
"362 284 CURVE SMOOTH",
"362 309 OFFCURVE",
"342 329 OFFCURVE",
"317 329 CURVE SMOOTH",
"292 329 OFFCURVE",
"272 309 OFFCURVE",
"272 284 CURVE SMOOTH",
"272 258 OFFCURVE",
"292 238 OFFCURVE",
"317 238 CURVE SMOOTH"
);
},
{
closed = 1;
nodes = (
"655 97 LINE SMOOTH",
"655 92 OFFCURVE",
"659 88 OFFCURVE",
"665 88 CURVE SMOOTH",
"730 88 LINE SMOOTH",
"735 88 OFFCURVE",
"739 92 OFFCURVE",
"739 97 CURVE SMOOTH",
"739 185 LINE",
"655 185 LINE"
);
},
{
closed = 1;
nodes = (
"713 238 OFFCURVE",
"733 258 OFFCURVE",
"733 284 CURVE SMOOTH",
"733 309 OFFCURVE",
"713 329 OFFCURVE",
"688 329 CURVE SMOOTH",
"663 329 OFFCURVE",
"643 309 OFFCURVE",
"643 284 CURVE SMOOTH",
"643 258 OFFCURVE",
"663 238 OFFCURVE",
"688 238 CURVE SMOOTH"
);
},
{
closed = 1;
nodes = (
"271 560 LINE",
"260 397 LINE",
"745 397 LINE",
"734 560 LINE"
);
},
{
closed = 1;
nodes = (
"760 592 LINE",
"602 592 LINE",
"602 645 LINE",
"403 645 LINE",
"403 592 LINE",
"245 592 LINE",
"231 397 LINE",
"194 397 LINE",
"194 160 LINE",
"811 160 LINE",
"811 397 LINE",
"774 397 LINE"
);
},
{
closed = 1;
nodes = (
"400 310 LINE",
"400 290 LINE",
"605 290 LINE",
"605 310 LINE"
);
},
{
closed = 1;
nodes = (
"400 265 LINE",
"400 245 LINE",
"605 245 LINE",
"605 265 LINE"
);
}
);
};
layerId = "346C0EA8-9638-4244-B17D-E97A86FA40DB";
name = "Sep 8 17, 13:27";
paths = (
{
closed = 1;
nodes = (
"139 806 LINE SMOOTH",
"85 806 OFFCURVE",
"40 762 OFFCURVE",
"40 708 CURVE SMOOTH",
"40 25 LINE SMOOTH",
"40 -29 OFFCURVE",
"85 -74 OFFCURVE",
"139 -74 CURVE SMOOTH",
"862 -74 LINE SMOOTH",
"916 -74 OFFCURVE",
"960 -29 OFFCURVE",
"960 25 CURVE SMOOTH",
"960 708 LINE SMOOTH",
"960 762 OFFCURVE",
"916 806 OFFCURVE",
"862 806 CURVE SMOOTH"
);
},
{
closed = 1;
nodes = (
"902 784 OFFCURVE",
"938 748 OFFCURVE",
"938 705 CURVE SMOOTH",
"938 28 LINE SMOOTH",
"938 -15 OFFCURVE",
"902 -52 OFFCURVE",
"859 -52 CURVE SMOOTH",
"142 -52 LINE SMOOTH",
"99 -52 OFFCURVE",
"62 -15 OFFCURVE",
"62 28 CURVE SMOOTH",
"62 705 LINE SMOOTH",
"62 748 OFFCURVE",
"99 784 OFFCURVE",
"142 784 CURVE SMOOTH",
"859 784 LINE SMOOTH"
);
},
{
closed = 1;
nodes = (
"266 185 LINE",
"266 97 LINE SMOOTH",
"266 92 OFFCURVE",
"270 88 OFFCURVE",
"275 88 CURVE SMOOTH",
"340 88 LINE SMOOTH",
"346 88 OFFCURVE",
"350 92 OFFCURVE",
"350 97 CURVE SMOOTH",
"350 185 LINE"
);
},
{
closed = 1;
nodes = (
"342 238 OFFCURVE",
"362 258 OFFCURVE",
"362 284 CURVE SMOOTH",
"362 309 OFFCURVE",
"342 329 OFFCURVE",
"317 329 CURVE SMOOTH",
"292 329 OFFCURVE",
"272 309 OFFCURVE",
"272 284 CURVE SMOOTH",
"272 258 OFFCURVE",
"292 238 OFFCURVE",
"317 238 CURVE SMOOTH"
);
},
{
closed = 1;
nodes = (
"655 97 LINE SMOOTH",
"655 92 OFFCURVE",
"659 88 OFFCURVE",
"665 88 CURVE SMOOTH",
"730 88 LINE SMOOTH",
"735 88 OFFCURVE",
"739 92 OFFCURVE",
"739 97 CURVE SMOOTH",
"739 185 LINE",
"655 185 LINE"
);
},
{
closed = 1;
nodes = (
"713 238 OFFCURVE",
"733 258 OFFCURVE",
"733 284 CURVE SMOOTH",
"733 309 OFFCURVE",
"713 329 OFFCURVE",
"688 329 CURVE SMOOTH",
"663 329 OFFCURVE",
"643 309 OFFCURVE",
"643 284 CURVE SMOOTH",
"643 258 OFFCURVE",
"663 238 OFFCURVE",
"688 238 CURVE SMOOTH"
);
},
{
closed = 1;
nodes = (
"271 560 LINE",
"260 397 LINE",
"745 397 LINE",
"734 560 LINE"
);
},
{
closed = 1;
nodes = (
"760 592 LINE",
"602 592 LINE",
"602 645 LINE",
"403 645 LINE",
"403 592 LINE",
"245 592 LINE",
"231 397 LINE",
"194 397 LINE",
"194 160 LINE",
"811 160 LINE",
"811 397 LINE",
"774 397 LINE"
);
},
{
closed = 1;
nodes = (
"400 310 LINE",
"400 290 LINE",
"605 290 LINE",
"605 310 LINE"
);
},
{
closed = 1;
nodes = (
"400 265 LINE",
"400 245 LINE",
"605 245 LINE",
"605 265 LINE"
);
}
);
width = 1000;
}
);
unicode = 0049;
},
{
glyphname = J;
lastChange = "2018-03-12 12:07:02 +0000";
layers = (
{
background = {
components = (
{
name = whiteRoundedCornersSquare;
transform = "{1, 0, 0, 1, 35, 0}";
}
);
paths = (
{
closed = 1;
nodes = (
"429 89 LINE SMOOTH",
"436 89 OFFCURVE",
"442 94 OFFCURVE",
"442 102 CURVE SMOOTH",
"442 295 LINE",
"628 295 LINE",
"628 102 LINE SMOOTH",
"628 94 OFFCURVE",
"633 89 OFFCURVE",
"641 89 CURVE SMOOTH",
"773 89 LINE SMOOTH",
"780 89 OFFCURVE",
"786 94 OFFCURVE",
"786 102 CURVE SMOOTH",
"786 622 LINE SMOOTH",
"786 631 OFFCURVE",
"780 635 OFFCURVE",
"773 635 CURVE SMOOTH",
"641 635 LINE SMOOTH",
"633 635 OFFCURVE",
"628 631 OFFCURVE",
"628 622 CURVE SMOOTH",
"628 427 LINE",
"442 427 LINE",
"442 622 LINE SMOOTH",
"442 631 OFFCURVE",
"436 635 OFFCURVE",
"429 635 CURVE SMOOTH",
"297 635 LINE SMOOTH",
"289 635 OFFCURVE",
"284 631 OFFCURVE",
"284 622 CURVE SMOOTH",
"284 102 LINE SMOOTH",
"284 94 OFFCURVE",
"289 89 OFFCURVE",
"297 89 CURVE SMOOTH"
);
}
);
};
layerId = "9E4B8FD8-F8AF-4AA7-8E0D-0C907FFB2BDD";
paths = (
{
closed = 1;
nodes = (
"429 89 LINE SMOOTH",
"436 89 OFFCURVE",
"442 94 OFFCURVE",
"442 102 CURVE SMOOTH",
"442 295 LINE",
"628 295 LINE",
"628 102 LINE SMOOTH",
"628 94 OFFCURVE",
"633 89 OFFCURVE",
"641 89 CURVE SMOOTH",
"773 89 LINE SMOOTH",
"780 89 OFFCURVE",
"786 94 OFFCURVE",
"786 102 CURVE SMOOTH",
"786 622 LINE SMOOTH",
"786 631 OFFCURVE",
"780 635 OFFCURVE",
"773 635 CURVE SMOOTH",
"641 635 LINE SMOOTH",
"633 635 OFFCURVE",
"628 631 OFFCURVE",
"628 622 CURVE SMOOTH",
"628 427 LINE",
"442 427 LINE",
"442 622 LINE SMOOTH",
"442 631 OFFCURVE",
"436 635 OFFCURVE",
"429 635 CURVE SMOOTH",
"297 635 LINE SMOOTH",
"289 635 OFFCURVE",
"284 631 OFFCURVE",
"284 622 CURVE SMOOTH",
"284 102 LINE SMOOTH",
"284 94 OFFCURVE",
"289 89 OFFCURVE",
"297 89 CURVE SMOOTH"
);
}
);
width = 1068;
}
);
unicode = 004A;
},
{
glyphname = K;
lastChange = "2018-03-12 12:07:02 +0000";
layers = (
{
background = {
components = (
{
name = whiteRoundedCornersSquare;
transform = "{1, 0, 0, 1, 35, 0}";
}
);
paths = (
{
closed = 1;
nodes = (
"468 89 LINE SMOOTH",
"476 89 OFFCURVE",
"482 94 OFFCURVE",
"482 102 CURVE SMOOTH",
"482 250 LINE",
"533 250 LINE SMOOTH",
"696 250 OFFCURVE",
"769 318 OFFCURVE",
"769 441 CURVE SMOOTH",
"769 569 OFFCURVE",
"705 635 OFFCURVE",
"532 635 CURVE SMOOTH",
"335 635 LINE SMOOTH",
"328 635 OFFCURVE",
"323 631 OFFCURVE",
"323 623 CURVE SMOOTH",
"323 102 LINE SMOOTH",
"323 94 OFFCURVE",
"328 89 OFFCURVE",
"335 89 CURVE SMOOTH"
);
},
{
closed = 1;
nodes = (
"481 381 LINE",
"481 505 LINE",
"533 505 LINE SMOOTH",
"585 505 OFFCURVE",
"610 489 OFFCURVE",
"610 444 CURVE SMOOTH",
"610 397 OFFCURVE",
"583 381 OFFCURVE",
"533 381 CURVE SMOOTH"
);
}
);
};
components = (
{
name = whiteRoundedCornersSquare;
}
);
layerId = "9E4B8FD8-F8AF-4AA7-8E0D-0C907FFB2BDD";
paths = (
{
closed = 1;
nodes = (
"468 89 LINE SMOOTH",
"476 89 OFFCURVE",
"482 94 OFFCURVE",
"482 102 CURVE SMOOTH",
"482 250 LINE",
"533 250 LINE SMOOTH",
"696 250 OFFCURVE",
"769 318 OFFCURVE",
"769 441 CURVE SMOOTH",
"769 569 OFFCURVE",
"705 635 OFFCURVE",
"532 635 CURVE SMOOTH",
"335 635 LINE SMOOTH",
"328 635 OFFCURVE",
"323 631 OFFCURVE",
"323 623 CURVE SMOOTH",
"323 102 LINE SMOOTH",
"323 94 OFFCURVE",
"328 89 OFFCURVE",
"335 89 CURVE SMOOTH"
);
},
{
closed = 1;
nodes = (
"481 381 LINE",
"481 505 LINE",
"533 505 LINE SMOOTH",
"585 505 OFFCURVE",
"610 489 OFFCURVE",
"610 444 CURVE SMOOTH",
"610 397 OFFCURVE",
"583 381 OFFCURVE",
"533 381 CURVE SMOOTH"
);
}
);
width = 1068;
},
{
associatedMasterId = "9E4B8FD8-F8AF-4AA7-8E0D-0C907FFB2BDD";
background = {
paths = (
{
closed = 1;
nodes = (
"139 806 LINE SMOOTH",
"85 806 OFFCURVE",
"40 762 OFFCURVE",
"40 708 CURVE SMOOTH",
"40 25 LINE SMOOTH",
"40 -29 OFFCURVE",
"85 -74 OFFCURVE",
"139 -74 CURVE SMOOTH",
"862 -74 LINE SMOOTH",
"916 -74 OFFCURVE",
"960 -29 OFFCURVE",
"960 25 CURVE SMOOTH",
"960 708 LINE SMOOTH",
"960 762 OFFCURVE",
"916 806 OFFCURVE",
"862 806 CURVE SMOOTH"
);
},
{
closed = 1;
nodes = (
"902 784 OFFCURVE",
"938 748 OFFCURVE",
"938 705 CURVE SMOOTH",
"938 28 LINE SMOOTH",
"938 -15 OFFCURVE",
"902 -52 OFFCURVE",
"859 -52 CURVE SMOOTH",
"142 -52 LINE SMOOTH",
"99 -52 OFFCURVE",
"62 -15 OFFCURVE",
"62 28 CURVE SMOOTH",
"62 705 LINE SMOOTH",
"62 748 OFFCURVE",
"99 784 OFFCURVE",
"142 784 CURVE SMOOTH",
"859 784 LINE SMOOTH"
);
},
{
closed = 1;
nodes = (
"266 185 LINE",
"266 97 LINE SMOOTH",
"266 92 OFFCURVE",
"270 88 OFFCURVE",
"275 88 CURVE SMOOTH",
"340 88 LINE SMOOTH",
"346 88 OFFCURVE",
"350 92 OFFCURVE",
"350 97 CURVE SMOOTH",
"350 185 LINE"
);
},
{
closed = 1;
nodes = (
"342 238 OFFCURVE",
"362 258 OFFCURVE",
"362 284 CURVE SMOOTH",
"362 309 OFFCURVE",
"342 329 OFFCURVE",
"317 329 CURVE SMOOTH",
"292 329 OFFCURVE",
"272 309 OFFCURVE",
"272 284 CURVE SMOOTH",
"272 258 OFFCURVE",
"292 238 OFFCURVE",
"317 238 CURVE SMOOTH"
);
},
{
closed = 1;
nodes = (
"655 97 LINE SMOOTH",
"655 92 OFFCURVE",
"659 88 OFFCURVE",
"665 88 CURVE SMOOTH",
"730 88 LINE SMOOTH",
"735 88 OFFCURVE",
"739 92 OFFCURVE",
"739 97 CURVE SMOOTH",
"739 185 LINE",
"655 185 LINE"
);
},
{
closed = 1;
nodes = (
"713 238 OFFCURVE",
"733 258 OFFCURVE",
"733 284 CURVE SMOOTH",
"733 309 OFFCURVE",
"713 329 OFFCURVE",
"688 329 CURVE SMOOTH",
"663 329 OFFCURVE",
"643 309 OFFCURVE",
"643 284 CURVE SMOOTH",
"643 258 OFFCURVE",
"663 238 OFFCURVE",
"688 238 CURVE SMOOTH"
);
},
{
closed = 1;
nodes = (
"271 560 LINE",
"260 397 LINE",
"745 397 LINE",
"734 560 LINE"
);
},
{
closed = 1;
nodes = (
"760 592 LINE",
"602 592 LINE",
"602 645 LINE",
"403 645 LINE",
"403 592 LINE",
"245 592 LINE",
"231 397 LINE",
"194 397 LINE",
"194 160 LINE",
"811 160 LINE",
"811 397 LINE",
"774 397 LINE"
);
},
{
closed = 1;
nodes = (
"400 310 LINE",
"400 290 LINE",
"605 290 LINE",
"605 310 LINE"
);
},
{
closed = 1;
nodes = (
"400 265 LINE",
"400 245 LINE",
"605 245 LINE",
"605 265 LINE"
);
}
);
};
layerId = "346C0EA8-9638-4244-B17D-E97A86FA40DB";
name = "Sep 8 17, 13:27";
paths = (
{
closed = 1;
nodes = (
"139 806 LINE SMOOTH",
"85 806 OFFCURVE",
"40 762 OFFCURVE",
"40 708 CURVE SMOOTH",
"40 25 LINE SMOOTH",
"40 -29 OFFCURVE",
"85 -74 OFFCURVE",
"139 -74 CURVE SMOOTH",
"862 -74 LINE SMOOTH",
"916 -74 OFFCURVE",
"960 -29 OFFCURVE",
"960 25 CURVE SMOOTH",
"960 708 LINE SMOOTH",
"960 762 OFFCURVE",
"916 806 OFFCURVE",
"862 806 CURVE SMOOTH"
);
},
{
closed = 1;
nodes = (
"902 784 OFFCURVE",
"938 748 OFFCURVE",
"938 705 CURVE SMOOTH",
"938 28 LINE SMOOTH",
"938 -15 OFFCURVE",
"902 -52 OFFCURVE",
"859 -52 CURVE SMOOTH",
"142 -52 LINE SMOOTH",
"99 -52 OFFCURVE",
"62 -15 OFFCURVE",
"62 28 CURVE SMOOTH",
"62 705 LINE SMOOTH",
"62 748 OFFCURVE",
"99 784 OFFCURVE",
"142 784 CURVE SMOOTH",
"859 784 LINE SMOOTH"
);
},
{
closed = 1;
nodes = (
"266 185 LINE",
"266 97 LINE SMOOTH",
"266 92 OFFCURVE",
"270 88 OFFCURVE",
"275 88 CURVE SMOOTH",
"340 88 LINE SMOOTH",
"346 88 OFFCURVE",
"350 92 OFFCURVE",
"350 97 CURVE SMOOTH",
"350 185 LINE"
);
},
{
closed = 1;
nodes = (
"342 238 OFFCURVE",
"362 258 OFFCURVE",
"362 284 CURVE SMOOTH",
"362 309 OFFCURVE",
"342 329 OFFCURVE",
"317 329 CURVE SMOOTH",
"292 329 OFFCURVE",
"272 309 OFFCURVE",
"272 284 CURVE SMOOTH",
"272 258 OFFCURVE",
"292 238 OFFCURVE",
"317 238 CURVE SMOOTH"
);
},
{
closed = 1;
nodes = (
"655 97 LINE SMOOTH",
"655 92 OFFCURVE",
"659 88 OFFCURVE",
"665 88 CURVE SMOOTH",
"730 88 LINE SMOOTH",
"735 88 OFFCURVE",
"739 92 OFFCURVE",
"739 97 CURVE SMOOTH",
"739 185 LINE",
"655 185 LINE"
);
},
{
closed = 1;
nodes = (
"713 238 OFFCURVE",
"733 258 OFFCURVE",
"733 284 CURVE SMOOTH",
"733 309 OFFCURVE",
"713 329 OFFCURVE",
"688 329 CURVE SMOOTH",
"663 329 OFFCURVE",
"643 309 OFFCURVE",
"643 284 CURVE SMOOTH",
"643 258 OFFCURVE",
"663 238 OFFCURVE",
"688 238 CURVE SMOOTH"
);
},
{
closed = 1;
nodes = (
"271 560 LINE",
"260 397 LINE",
"745 397 LINE",
"734 560 LINE"
);
},
{
closed = 1;
nodes = (
"760 592 LINE",
"602 592 LINE",
"602 645 LINE",
"403 645 LINE",
"403 592 LINE",
"245 592 LINE",
"231 397 LINE",
"194 397 LINE",
"194 160 LINE",
"811 160 LINE",
"811 397 LINE",
"774 397 LINE"
);
},
{
closed = 1;
nodes = (
"400 310 LINE",
"400 290 LINE",
"605 290 LINE",
"605 310 LINE"
);
},
{
closed = 1;
nodes = (
"400 265 LINE",
"400 245 LINE",
"605 245 LINE",
"605 265 LINE"
);
}
);
width = 1000;
}
);
unicode = 004B;
},
{
glyphname = L;
lastChange = "2018-03-12 12:07:02 +0000";
layers = (
{
background = {
paths = (
{
closed = 1;
nodes = (
"895 -75 LINE SMOOTH",
"959 -75 OFFCURVE",
"994 -40 OFFCURVE",
"994 24 CURVE SMOOTH",
"994 692 LINE SMOOTH",
"994 756 OFFCURVE",
"959 791 OFFCURVE",
"895 791 CURVE SMOOTH",
"174 791 LINE SMOOTH",
"110 791 OFFCURVE",
"75 756 OFFCURVE",
"75 692 CURVE SMOOTH",
"75 24 LINE SMOOTH",
"75 -40 OFFCURVE",
"110 -75 OFFCURVE",
"174 -75 CURVE SMOOTH"
);
},
{
closed = 1;
nodes = (
"328 89 OFFCURVE",
"323 94 OFFCURVE",
"323 102 CURVE SMOOTH",
"323 623 LINE SMOOTH",
"323 631 OFFCURVE",
"328 635 OFFCURVE",
"335 635 CURVE SMOOTH",
"532 635 LINE SMOOTH",
"705 635 OFFCURVE",
"769 569 OFFCURVE",
"769 441 CURVE SMOOTH",
"769 318 OFFCURVE",
"696 250 OFFCURVE",
"533 250 CURVE SMOOTH",
"482 250 LINE",
"482 102 LINE SMOOTH",
"482 94 OFFCURVE",
"476 89 OFFCURVE",
"468 89 CURVE SMOOTH",
"335 89 LINE SMOOTH"
);
},
{
closed = 1;
nodes = (
"533 381 LINE SMOOTH",
"583 381 OFFCURVE",
"610 397 OFFCURVE",
"610 444 CURVE SMOOTH",
"610 489 OFFCURVE",
"585 505 OFFCURVE",
"533 505 CURVE SMOOTH",
"481 505 LINE",
"481 381 LINE"
);
}
);
};
components = (
{
name = blackSquare.roundBlackBox;
}
);
layerId = "9E4B8FD8-F8AF-4AA7-8E0D-0C907FFB2BDD";
paths = (
{
closed = 1;
nodes = (
"468 89 LINE SMOOTH",
"476 89 OFFCURVE",
"482 94 OFFCURVE",
"482 102 CURVE SMOOTH",
"482 250 LINE",
"533 250 LINE SMOOTH",
"696 250 OFFCURVE",
"769 318 OFFCURVE",
"769 441 CURVE SMOOTH",
"769 569 OFFCURVE",
"705 635 OFFCURVE",
"532 635 CURVE SMOOTH",
"335 635 LINE SMOOTH",
"328 635 OFFCURVE",
"323 631 OFFCURVE",
"323 623 CURVE SMOOTH",
"323 102 LINE SMOOTH",
"323 94 OFFCURVE",
"328 89 OFFCURVE",
"335 89 CURVE SMOOTH"
);
},
{
closed = 1;
nodes = (
"481 505 LINE",
"533 505 LINE SMOOTH",
"585 505 OFFCURVE",
"610 489 OFFCURVE",
"610 444 CURVE SMOOTH",
"610 397 OFFCURVE",
"583 381 OFFCURVE",
"533 381 CURVE SMOOTH",
"481 381 LINE"
);
}
);
width = 1068;
}
);
unicode = 004C;
},
{
glyphname = M;
lastChange = "2018-03-12 12:07:02 +0000";
layers = (
{
background = {
components = (
{
name = whiteRoundedCornersSquare;
transform = "{1, 0, 0, 1, 46, 0}";
}
);
paths = (
{
closed = 1;
nodes = (
"479 89 LINE SMOOTH",
"487 89 OFFCURVE",
"493 94 OFFCURVE",
"493 102 CURVE SMOOTH",
"493 250 LINE",
"544 250 LINE SMOOTH",
"707 250 OFFCURVE",
"780 318 OFFCURVE",
"780 441 CURVE SMOOTH",
"780 569 OFFCURVE",
"716 635 OFFCURVE",
"543 635 CURVE SMOOTH",
"346 635 LINE SMOOTH",
"339 635 OFFCURVE",
"334 631 OFFCURVE",
"334 623 CURVE SMOOTH",
"334 102 LINE SMOOTH",
"334 94 OFFCURVE",
"339 89 OFFCURVE",
"346 89 CURVE SMOOTH"
);
},
{
closed = 1;
nodes = (
"492 381 LINE",
"492 505 LINE",
"544 505 LINE SMOOTH",
"596 505 OFFCURVE",
"621 489 OFFCURVE",
"621 444 CURVE SMOOTH",
"621 397 OFFCURVE",
"594 381 OFFCURVE",
"544 381 CURVE SMOOTH"
);
}
);
};
components = (
{
name = largecircle;
}
);
layerId = "9E4B8FD8-F8AF-4AA7-8E0D-0C907FFB2BDD";
paths = (
{
closed = 1;
nodes = (
"499 89 LINE SMOOTH",
"507 89 OFFCURVE",
"513 94 OFFCURVE",
"513 102 CURVE SMOOTH",
"513 250 LINE",
"564 250 LINE SMOOTH",
"727 250 OFFCURVE",
"800 318 OFFCURVE",
"800 441 CURVE SMOOTH",
"800 569 OFFCURVE",
"736 635 OFFCURVE",
"563 635 CURVE SMOOTH",
"366 635 LINE SMOOTH",
"359 635 OFFCURVE",
"354 631 OFFCURVE",
"354 623 CURVE SMOOTH",
"354 102 LINE SMOOTH",
"354 94 OFFCURVE",
"359 89 OFFCURVE",
"366 89 CURVE SMOOTH"
);
},
{
closed = 1;
nodes = (
"512 381 LINE",
"512 505 LINE",
"564 505 LINE SMOOTH",
"616 505 OFFCURVE",
"641 489 OFFCURVE",
"641 444 CURVE SMOOTH",
"641 397 OFFCURVE",
"614 381 OFFCURVE",
"564 381 CURVE SMOOTH"
);
}
);
width = 1068;
}
);
unicode = 004D;
},
{
glyphname = N;
lastChange = "2018-03-12 12:07:02 +0000";
layers = (
{
background = {
paths = (
{
closed = 1;
nodes = (
"489 89 LINE SMOOTH",
"497 89 OFFCURVE",
"503 94 OFFCURVE",
"503 102 CURVE SMOOTH",
"503 250 LINE",
"554 250 LINE SMOOTH",
"717 250 OFFCURVE",
"790 318 OFFCURVE",
"790 441 CURVE SMOOTH",
"790 569 OFFCURVE",
"726 635 OFFCURVE",
"553 635 CURVE SMOOTH",
"356 635 LINE SMOOTH",
"349 635 OFFCURVE",
"344 631 OFFCURVE",
"344 623 CURVE SMOOTH",
"344 102 LINE SMOOTH",
"344 94 OFFCURVE",
"349 89 OFFCURVE",
"356 89 CURVE SMOOTH"
);
},
{
closed = 1;
nodes = (
"502 381 LINE",
"502 505 LINE",
"554 505 LINE SMOOTH",
"606 505 OFFCURVE",
"631 489 OFFCURVE",
"631 444 CURVE SMOOTH",
"631 397 OFFCURVE",
"604 381 OFFCURVE",
"554 381 CURVE SMOOTH"
);
}
);
};
components = (
{
name = blackLargeCircle;
}
);
layerId = "9E4B8FD8-F8AF-4AA7-8E0D-0C907FFB2BDD";
paths = (
{
closed = 1;
nodes = (
"489 89 LINE SMOOTH",
"497 89 OFFCURVE",
"503 94 OFFCURVE",
"503 102 CURVE SMOOTH",
"503 250 LINE",
"554 250 LINE SMOOTH",
"717 250 OFFCURVE",
"790 318 OFFCURVE",
"790 441 CURVE SMOOTH",
"790 569 OFFCURVE",
"726 635 OFFCURVE",
"553 635 CURVE SMOOTH",
"356 635 LINE SMOOTH",
"349 635 OFFCURVE",
"344 631 OFFCURVE",
"344 623 CURVE SMOOTH",
"344 102 LINE SMOOTH",
"344 94 OFFCURVE",
"349 89 OFFCURVE",
"356 89 CURVE SMOOTH"
);
},
{
closed = 1;
nodes = (
"502 381 LINE",
"502 505 LINE",
"554 505 LINE SMOOTH",
"606 505 OFFCURVE",
"631 489 OFFCURVE",
"631 444 CURVE SMOOTH",
"631 397 OFFCURVE",
"604 381 OFFCURVE",
"554 381 CURVE SMOOTH"
);
}
);
width = 1068;
}
);
unicode = 004E;
},
{
glyphname = O;
lastChange = "2018-03-12 12:07:02 +0000";
layers = (
{
background = {
components = (
{
name = whiteRoundedCornersSquare;
transform = "{1, 0, 0, 1, 35, 0}";
}
);
paths = (
{
closed = 1;
nodes = (
"468 89 LINE SMOOTH",
"476 89 OFFCURVE",
"482 94 OFFCURVE",
"482 102 CURVE SMOOTH",
"482 250 LINE",
"533 250 LINE SMOOTH",
"696 250 OFFCURVE",
"769 318 OFFCURVE",
"769 441 CURVE SMOOTH",
"769 569 OFFCURVE",
"705 635 OFFCURVE",
"532 635 CURVE SMOOTH",
"335 635 LINE SMOOTH",
"328 635 OFFCURVE",
"323 631 OFFCURVE",
"323 623 CURVE SMOOTH",
"323 102 LINE SMOOTH",
"323 94 OFFCURVE",
"328 89 OFFCURVE",
"335 89 CURVE SMOOTH"
);
},
{
closed = 1;
nodes = (
"481 381 LINE",
"481 505 LINE",
"533 505 LINE SMOOTH",
"585 505 OFFCURVE",
"610 489 OFFCURVE",
"610 444 CURVE SMOOTH",
"610 397 OFFCURVE",
"583 381 OFFCURVE",
"533 381 CURVE SMOOTH"
);
}
);
};
layerId = "9E4B8FD8-F8AF-4AA7-8E0D-0C907FFB2BDD";
paths = (
{
closed = 1;
nodes = (
"468 89 LINE SMOOTH",
"476 89 OFFCURVE",
"482 94 OFFCURVE",
"482 102 CURVE SMOOTH",
"482 250 LINE",
"533 250 LINE SMOOTH",
"696 250 OFFCURVE",
"769 318 OFFCURVE",
"769 441 CURVE SMOOTH",
"769 569 OFFCURVE",
"705 635 OFFCURVE",
"532 635 CURVE SMOOTH",
"335 635 LINE SMOOTH",
"328 635 OFFCURVE",
"323 631 OFFCURVE",
"323 623 CURVE SMOOTH",
"323 102 LINE SMOOTH",
"323 94 OFFCURVE",
"328 89 OFFCURVE",
"335 89 CURVE SMOOTH"
);
},
{
closed = 1;
nodes = (
"481 381 LINE",
"481 505 LINE",
"533 505 LINE SMOOTH",
"585 505 OFFCURVE",
"610 489 OFFCURVE",
"610 444 CURVE SMOOTH",
"610 397 OFFCURVE",
"583 381 OFFCURVE",
"533 381 CURVE SMOOTH"
);
}
);
width = 1068;
},
{
associatedMasterId = "9E4B8FD8-F8AF-4AA7-8E0D-0C907FFB2BDD";
background = {
paths = (
{
closed = 1;
nodes = (
"139 806 LINE SMOOTH",
"85 806 OFFCURVE",
"40 762 OFFCURVE",
"40 708 CURVE SMOOTH",
"40 25 LINE SMOOTH",
"40 -29 OFFCURVE",
"85 -74 OFFCURVE",
"139 -74 CURVE SMOOTH",
"862 -74 LINE SMOOTH",
"916 -74 OFFCURVE",
"960 -29 OFFCURVE",
"960 25 CURVE SMOOTH",
"960 708 LINE SMOOTH",
"960 762 OFFCURVE",
"916 806 OFFCURVE",
"862 806 CURVE SMOOTH"
);
},
{
closed = 1;
nodes = (
"902 784 OFFCURVE",
"938 748 OFFCURVE",
"938 705 CURVE SMOOTH",
"938 28 LINE SMOOTH",
"938 -15 OFFCURVE",
"902 -52 OFFCURVE",
"859 -52 CURVE SMOOTH",
"142 -52 LINE SMOOTH",
"99 -52 OFFCURVE",
"62 -15 OFFCURVE",
"62 28 CURVE SMOOTH",
"62 705 LINE SMOOTH",
"62 748 OFFCURVE",
"99 784 OFFCURVE",
"142 784 CURVE SMOOTH",
"859 784 LINE SMOOTH"
);
},
{
closed = 1;
nodes = (
"266 185 LINE",
"266 97 LINE SMOOTH",
"266 92 OFFCURVE",
"270 88 OFFCURVE",
"275 88 CURVE SMOOTH",
"340 88 LINE SMOOTH",
"346 88 OFFCURVE",
"350 92 OFFCURVE",
"350 97 CURVE SMOOTH",
"350 185 LINE"
);
},
{
closed = 1;
nodes = (
"342 238 OFFCURVE",
"362 258 OFFCURVE",
"362 284 CURVE SMOOTH",
"362 309 OFFCURVE",
"342 329 OFFCURVE",
"317 329 CURVE SMOOTH",
"292 329 OFFCURVE",
"272 309 OFFCURVE",
"272 284 CURVE SMOOTH",
"272 258 OFFCURVE",
"292 238 OFFCURVE",
"317 238 CURVE SMOOTH"
);
},
{
closed = 1;
nodes = (
"655 97 LINE SMOOTH",
"655 92 OFFCURVE",
"659 88 OFFCURVE",
"665 88 CURVE SMOOTH",
"730 88 LINE SMOOTH",
"735 88 OFFCURVE",
"739 92 OFFCURVE",
"739 97 CURVE SMOOTH",
"739 185 LINE",
"655 185 LINE"
);
},
{
closed = 1;
nodes = (
"713 238 OFFCURVE",
"733 258 OFFCURVE",
"733 284 CURVE SMOOTH",
"733 309 OFFCURVE",
"713 329 OFFCURVE",
"688 329 CURVE SMOOTH",
"663 329 OFFCURVE",
"643 309 OFFCURVE",
"643 284 CURVE SMOOTH",
"643 258 OFFCURVE",
"663 238 OFFCURVE",
"688 238 CURVE SMOOTH"
);
},
{
closed = 1;
nodes = (
"271 560 LINE",
"260 397 LINE",
"745 397 LINE",
"734 560 LINE"
);
},
{
closed = 1;
nodes = (
"760 592 LINE",
"602 592 LINE",
"602 645 LINE",
"403 645 LINE",
"403 592 LINE",
"245 592 LINE",
"231 397 LINE",
"194 397 LINE",
"194 160 LINE",
"811 160 LINE",
"811 397 LINE",
"774 397 LINE"
);
},
{
closed = 1;
nodes = (
"400 310 LINE",
"400 290 LINE",
"605 290 LINE",
"605 310 LINE"
);
},
{
closed = 1;
nodes = (
"400 265 LINE",
"400 245 LINE",
"605 245 LINE",
"605 265 LINE"
);
}
);
};
layerId = "346C0EA8-9638-4244-B17D-E97A86FA40DB";
name = "Sep 8 17, 13:27";
paths = (
{
closed = 1;
nodes = (
"139 806 LINE SMOOTH",
"85 806 OFFCURVE",
"40 762 OFFCURVE",
"40 708 CURVE SMOOTH",
"40 25 LINE SMOOTH",
"40 -29 OFFCURVE",
"85 -74 OFFCURVE",
"139 -74 CURVE SMOOTH",
"862 -74 LINE SMOOTH",
"916 -74 OFFCURVE",
"960 -29 OFFCURVE",
"960 25 CURVE SMOOTH",
"960 708 LINE SMOOTH",
"960 762 OFFCURVE",
"916 806 OFFCURVE",
"862 806 CURVE SMOOTH"
);
},
{
closed = 1;
nodes = (
"902 784 OFFCURVE",
"938 748 OFFCURVE",
"938 705 CURVE SMOOTH",
"938 28 LINE SMOOTH",
"938 -15 OFFCURVE",
"902 -52 OFFCURVE",
"859 -52 CURVE SMOOTH",
"142 -52 LINE SMOOTH",
"99 -52 OFFCURVE",
"62 -15 OFFCURVE",
"62 28 CURVE SMOOTH",
"62 705 LINE SMOOTH",
"62 748 OFFCURVE",
"99 784 OFFCURVE",
"142 784 CURVE SMOOTH",
"859 784 LINE SMOOTH"
);
},
{
closed = 1;
nodes = (
"266 185 LINE",
"266 97 LINE SMOOTH",
"266 92 OFFCURVE",
"270 88 OFFCURVE",
"275 88 CURVE SMOOTH",
"340 88 LINE SMOOTH",
"346 88 OFFCURVE",
"350 92 OFFCURVE",
"350 97 CURVE SMOOTH",
"350 185 LINE"
);
},
{
closed = 1;
nodes = (
"342 238 OFFCURVE",
"362 258 OFFCURVE",
"362 284 CURVE SMOOTH",
"362 309 OFFCURVE",
"342 329 OFFCURVE",
"317 329 CURVE SMOOTH",
"292 329 OFFCURVE",
"272 309 OFFCURVE",
"272 284 CURVE SMOOTH",
"272 258 OFFCURVE",
"292 238 OFFCURVE",
"317 238 CURVE SMOOTH"
);
},
{
closed = 1;
nodes = (
"655 97 LINE SMOOTH",
"655 92 OFFCURVE",
"659 88 OFFCURVE",
"665 88 CURVE SMOOTH",
"730 88 LINE SMOOTH",
"735 88 OFFCURVE",
"739 92 OFFCURVE",
"739 97 CURVE SMOOTH",
"739 185 LINE",
"655 185 LINE"
);
},
{
closed = 1;
nodes = (
"713 238 OFFCURVE",
"733 258 OFFCURVE",
"733 284 CURVE SMOOTH",
"733 309 OFFCURVE",
"713 329 OFFCURVE",
"688 329 CURVE SMOOTH",
"663 329 OFFCURVE",
"643 309 OFFCURVE",
"643 284 CURVE SMOOTH",
"643 258 OFFCURVE",
"663 238 OFFCURVE",
"688 238 CURVE SMOOTH"
);
},
{
closed = 1;
nodes = (
"271 560 LINE",
"260 397 LINE",
"745 397 LINE",
"734 560 LINE"
);
},
{
closed = 1;
nodes = (
"760 592 LINE",
"602 592 LINE",
"602 645 LINE",
"403 645 LINE",
"403 592 LINE",
"245 592 LINE",
"231 397 LINE",
"194 397 LINE",
"194 160 LINE",
"811 160 LINE",
"811 397 LINE",
"774 397 LINE"
);
},
{
closed = 1;
nodes = (
"400 310 LINE",
"400 290 LINE",
"605 290 LINE",
"605 310 LINE"
);
},
{
closed = 1;
nodes = (
"400 265 LINE",
"400 245 LINE",
"605 245 LINE",
"605 265 LINE"
);
}
);
width = 1000;
}
);
unicode = 004F;
},
{
glyphname = P;
lastChange = "2018-03-12 12:07:02 +0000";
layers = (
{
background = {
components = (
{
name = whiteRoundedCornersSquare;
transform = "{1, 0, 0, 1, 35, 0}";
}
);
paths = (
{
closed = 1;
nodes = (
"806 421 LINE SMOOTH",
"806 427 OFFCURVE",
"802 431 OFFCURVE",
"796 431 CURVE SMOOTH",
"613 431 LINE",
"613 615 LINE SMOOTH",
"613 621 OFFCURVE",
"609 625 OFFCURVE",
"603 625 CURVE SMOOTH",
"467 625 LINE SMOOTH",
"461 625 OFFCURVE",
"457 621 OFFCURVE",
"457 615 CURVE SMOOTH",
"457 431 LINE",
"274 431 LINE SMOOTH",
"268 431 OFFCURVE",
"264 427 OFFCURVE",
"264 421 CURVE SMOOTH",
"264 301 LINE SMOOTH",
"264 295 OFFCURVE",
"268 291 OFFCURVE",
"274 291 CURVE SMOOTH",
"457 291 LINE",
"457 98 LINE SMOOTH",
"457 92 OFFCURVE",
"461 88 OFFCURVE",
"467 88 CURVE SMOOTH",
"603 88 LINE SMOOTH",
"609 88 OFFCURVE",
"613 92 OFFCURVE",
"613 98 CURVE SMOOTH",
"613 291 LINE",
"796 291 LINE SMOOTH",
"802 291 OFFCURVE",
"806 295 OFFCURVE",
"806 301 CURVE SMOOTH"
);
}
);
};
components = (
{
name = whiteRoundedCornersSquare;
}
);
layerId = "9E4B8FD8-F8AF-4AA7-8E0D-0C907FFB2BDD";
paths = (
{
closed = 1;
nodes = (
"806 421 LINE SMOOTH",
"806 427 OFFCURVE",
"802 431 OFFCURVE",
"796 431 CURVE SMOOTH",
"613 431 LINE",
"613 615 LINE SMOOTH",
"613 621 OFFCURVE",
"609 625 OFFCURVE",
"603 625 CURVE SMOOTH",
"467 625 LINE SMOOTH",
"461 625 OFFCURVE",
"457 621 OFFCURVE",
"457 615 CURVE SMOOTH",
"457 431 LINE",
"274 431 LINE SMOOTH",
"268 431 OFFCURVE",
"264 427 OFFCURVE",
"264 421 CURVE SMOOTH",
"264 301 LINE SMOOTH",
"264 295 OFFCURVE",
"268 291 OFFCURVE",
"274 291 CURVE SMOOTH",
"457 291 LINE",
"457 98 LINE SMOOTH",
"457 92 OFFCURVE",
"461 88 OFFCURVE",
"467 88 CURVE SMOOTH",
"603 88 LINE SMOOTH",
"609 88 OFFCURVE",
"613 92 OFFCURVE",
"613 98 CURVE SMOOTH",
"613 291 LINE",
"796 291 LINE SMOOTH",
"802 291 OFFCURVE",
"806 295 OFFCURVE",
"806 301 CURVE SMOOTH"
);
}
);
width = 1068;
}
);
unicode = 0050;
},
{
glyphname = Q;
lastChange = "2018-03-12 12:07:02 +0000";
layers = (
{
background = {
paths = (
{
closed = 1;
nodes = (
"805 421 LINE SMOOTH",
"805 427 OFFCURVE",
"801 431 OFFCURVE",
"795 431 CURVE SMOOTH",
"612 431 LINE",
"612 615 LINE SMOOTH",
"612 621 OFFCURVE",
"608 625 OFFCURVE",
"602 625 CURVE SMOOTH",
"466 625 LINE SMOOTH",
"460 625 OFFCURVE",
"456 621 OFFCURVE",
"456 615 CURVE SMOOTH",
"456 431 LINE",
"273 431 LINE SMOOTH",
"267 431 OFFCURVE",
"263 427 OFFCURVE",
"263 421 CURVE SMOOTH",
"263 301 LINE SMOOTH",
"263 295 OFFCURVE",
"267 291 OFFCURVE",
"273 291 CURVE SMOOTH",
"456 291 LINE",
"456 98 LINE SMOOTH",
"456 92 OFFCURVE",
"460 88 OFFCURVE",
"466 88 CURVE SMOOTH",
"602 88 LINE SMOOTH",
"608 88 OFFCURVE",
"612 92 OFFCURVE",
"612 98 CURVE SMOOTH",
"612 291 LINE",
"795 291 LINE SMOOTH",
"801 291 OFFCURVE",
"805 295 OFFCURVE",
"805 301 CURVE SMOOTH"
);
},
{
closed = 1;
nodes = (
"958 791 OFFCURVE",
"993 756 OFFCURVE",
"993 692 CURVE SMOOTH",
"993 24 LINE SMOOTH",
"993 -40 OFFCURVE",
"958 -75 OFFCURVE",
"894 -75 CURVE SMOOTH",
"173 -75 LINE SMOOTH",
"109 -75 OFFCURVE",
"74 -40 OFFCURVE",
"74 24 CURVE SMOOTH",
"74 692 LINE SMOOTH",
"74 756 OFFCURVE",
"109 791 OFFCURVE",
"173 791 CURVE SMOOTH",
"894 791 LINE SMOOTH"
);
}
);
};
components = (
{
name = blackSquare.roundBlackBox;
}
);
layerId = "9E4B8FD8-F8AF-4AA7-8E0D-0C907FFB2BDD";
paths = (
{
closed = 1;
nodes = (
"805 421 LINE SMOOTH",
"805 427 OFFCURVE",
"801 431 OFFCURVE",
"795 431 CURVE SMOOTH",
"612 431 LINE",
"612 615 LINE SMOOTH",
"612 621 OFFCURVE",
"608 625 OFFCURVE",
"602 625 CURVE SMOOTH",
"466 625 LINE SMOOTH",
"460 625 OFFCURVE",
"456 621 OFFCURVE",
"456 615 CURVE SMOOTH",
"456 431 LINE",
"273 431 LINE SMOOTH",
"267 431 OFFCURVE",
"263 427 OFFCURVE",
"263 421 CURVE SMOOTH",
"263 301 LINE SMOOTH",
"263 295 OFFCURVE",
"267 291 OFFCURVE",
"273 291 CURVE SMOOTH",
"456 291 LINE",
"456 98 LINE SMOOTH",
"456 92 OFFCURVE",
"460 88 OFFCURVE",
"466 88 CURVE SMOOTH",
"602 88 LINE SMOOTH",
"608 88 OFFCURVE",
"612 92 OFFCURVE",
"612 98 CURVE SMOOTH",
"612 291 LINE",
"795 291 LINE SMOOTH",
"801 291 OFFCURVE",
"805 295 OFFCURVE",
"805 301 CURVE SMOOTH"
);
}
);
width = 1068;
},
{
associatedMasterId = "9E4B8FD8-F8AF-4AA7-8E0D-0C907FFB2BDD";
background = {
paths = (
{
closed = 1;
nodes = (
"264 591 LINE SMOOTH",
"257 591 OFFCURVE",
"252 586 OFFCURVE",
"252 579 CURVE SMOOTH",
"252 157 LINE SMOOTH",
"252 150 OFFCURVE",
"257 145 OFFCURVE",
"264 145 CURVE SMOOTH",
"824 145 LINE SMOOTH",
"831 145 OFFCURVE",
"836 150 OFFCURVE",
"836 157 CURVE SMOOTH",
"836 579 LINE SMOOTH",
"836 586 OFFCURVE",
"831 591 OFFCURVE",
"824 591 CURVE SMOOTH"
);
},
{
closed = 1;
nodes = (
"530 350 OFFCURVE",
"516 355 OFFCURVE",
"505 366 CURVE SMOOTH",
"324 549 LINE",
"764 549 LINE",
"583 366 LINE SMOOTH",
"572 355 OFFCURVE",
"557 350 OFFCURVE",
"544 350 CURVE SMOOTH"
);
},
{
closed = 1;
nodes = (
"323 187 LINE",
"474 337 LINE",
"494 317 OFFCURVE",
"519 306 OFFCURVE",
"544 306 CURVE SMOOTH",
"569 306 OFFCURVE",
"594 317 OFFCURVE",
"614 337 CURVE",
"765 187 LINE"
);
},
{
closed = 1;
nodes = (
"444 368 LINE",
"294 217 LINE",
"294 518 LINE"
);
},
{
closed = 1;
nodes = (
"794 217 LINE",
"644 368 LINE",
"794 518 LINE"
);
}
);
};
components = (
{
name = largecircle;
transform = "{1, 0, 0, 1, 10, 0}";
}
);
layerId = "955B2AA2-27DD-425E-8ACF-510DB3712361";
name = "Nov 14 17, 19:32";
paths = (
{
closed = 1;
nodes = (
"264 145 LINE SMOOTH",
"257 145 OFFCURVE",
"252 150 OFFCURVE",
"252 157 CURVE SMOOTH",
"252 579 LINE SMOOTH",
"252 586 OFFCURVE",
"257 591 OFFCURVE",
"264 591 CURVE SMOOTH",
"824 591 LINE SMOOTH",
"831 591 OFFCURVE",
"836 586 OFFCURVE",
"836 579 CURVE SMOOTH",
"836 157 LINE SMOOTH",
"836 150 OFFCURVE",
"831 145 OFFCURVE",
"824 145 CURVE SMOOTH"
);
},
{
closed = 1;
nodes = (
"298 563 LINE",
"536 338 LINE SMOOTH",
"541 333 OFFCURVE",
"547 333 OFFCURVE",
"552 338 CURVE SMOOTH",
"790 563 LINE"
);
},
{
closed = 1;
nodes = (
"480 345 LINE",
"300 173 LINE",
"788 173 LINE",
"607 347 LINE",
"552 297 LINE SMOOTH",
"547 292 OFFCURVE",
"540 292 OFFCURVE",
"535 297 CURVE SMOOTH"
);
},
{
closed = 1;
nodes = (
"280 196 LINE",
"458 368 LINE",
"280 537 LINE"
);
},
{
closed = 1;
nodes = (
"630 368 LINE",
"808 196 LINE",
"808 537 LINE"
);
}
);
width = 1088;
}
);
unicode = 0051;
},
{
glyphname = R;
lastChange = "2018-03-12 12:07:02 +0000";
layers = (
{
background = {
components = (
{
name = whiteRoundedCornersSquare;
}
);
paths = (
{
closed = 1;
nodes = (
"771 421 LINE SMOOTH",
"771 427 OFFCURVE",
"767 431 OFFCURVE",
"761 431 CURVE SMOOTH",
"578 431 LINE",
"578 615 LINE SMOOTH",
"578 621 OFFCURVE",
"574 625 OFFCURVE",
"568 625 CURVE SMOOTH",
"432 625 LINE SMOOTH",
"426 625 OFFCURVE",
"422 621 OFFCURVE",
"422 615 CURVE SMOOTH",
"422 431 LINE",
"239 431 LINE SMOOTH",
"233 431 OFFCURVE",
"229 427 OFFCURVE",
"229 421 CURVE SMOOTH",
"229 301 LINE SMOOTH",
"229 295 OFFCURVE",
"233 291 OFFCURVE",
"239 291 CURVE SMOOTH",
"422 291 LINE",
"422 98 LINE SMOOTH",
"422 92 OFFCURVE",
"426 88 OFFCURVE",
"432 88 CURVE SMOOTH",
"568 88 LINE SMOOTH",
"574 88 OFFCURVE",
"578 92 OFFCURVE",
"578 98 CURVE SMOOTH",
"578 291 LINE",
"761 291 LINE SMOOTH",
"767 291 OFFCURVE",
"771 295 OFFCURVE",
"771 301 CURVE SMOOTH"
);
}
);
};
components = (
{
name = largecircle;
}
);
layerId = "9E4B8FD8-F8AF-4AA7-8E0D-0C907FFB2BDD";
paths = (
{
closed = 1;
nodes = (
"805 421 LINE SMOOTH",
"805 427 OFFCURVE",
"801 431 OFFCURVE",
"795 431 CURVE SMOOTH",
"612 431 LINE",
"612 615 LINE SMOOTH",
"612 621 OFFCURVE",
"608 625 OFFCURVE",
"602 625 CURVE SMOOTH",
"466 625 LINE SMOOTH",
"460 625 OFFCURVE",
"456 621 OFFCURVE",
"456 615 CURVE SMOOTH",
"456 431 LINE",
"273 431 LINE SMOOTH",
"267 431 OFFCURVE",
"263 427 OFFCURVE",
"263 421 CURVE SMOOTH",
"263 301 LINE SMOOTH",
"263 295 OFFCURVE",
"267 291 OFFCURVE",
"273 291 CURVE SMOOTH",
"456 291 LINE",
"456 98 LINE SMOOTH",
"456 92 OFFCURVE",
"460 88 OFFCURVE",
"466 88 CURVE SMOOTH",
"602 88 LINE SMOOTH",
"608 88 OFFCURVE",
"612 92 OFFCURVE",
"612 98 CURVE SMOOTH",
"612 291 LINE",
"795 291 LINE SMOOTH",
"801 291 OFFCURVE",
"805 295 OFFCURVE",
"805 301 CURVE SMOOTH"
);
}
);
width = 1068;
},
{
associatedMasterId = "9E4B8FD8-F8AF-4AA7-8E0D-0C907FFB2BDD";
background = {
paths = (
{
closed = 1;
nodes = (
"139 806 LINE SMOOTH",
"85 806 OFFCURVE",
"40 762 OFFCURVE",
"40 708 CURVE SMOOTH",
"40 25 LINE SMOOTH",
"40 -29 OFFCURVE",
"85 -74 OFFCURVE",
"139 -74 CURVE SMOOTH",
"862 -74 LINE SMOOTH",
"916 -74 OFFCURVE",
"960 -29 OFFCURVE",
"960 25 CURVE SMOOTH",
"960 708 LINE SMOOTH",
"960 762 OFFCURVE",
"916 806 OFFCURVE",
"862 806 CURVE SMOOTH"
);
},
{
closed = 1;
nodes = (
"902 784 OFFCURVE",
"938 748 OFFCURVE",
"938 705 CURVE SMOOTH",
"938 28 LINE SMOOTH",
"938 -15 OFFCURVE",
"902 -52 OFFCURVE",
"859 -52 CURVE SMOOTH",
"142 -52 LINE SMOOTH",
"99 -52 OFFCURVE",
"62 -15 OFFCURVE",
"62 28 CURVE SMOOTH",
"62 705 LINE SMOOTH",
"62 748 OFFCURVE",
"99 784 OFFCURVE",
"142 784 CURVE SMOOTH",
"859 784 LINE SMOOTH"
);
},
{
closed = 1;
nodes = (
"266 185 LINE",
"266 97 LINE SMOOTH",
"266 92 OFFCURVE",
"270 88 OFFCURVE",
"275 88 CURVE SMOOTH",
"340 88 LINE SMOOTH",
"346 88 OFFCURVE",
"350 92 OFFCURVE",
"350 97 CURVE SMOOTH",
"350 185 LINE"
);
},
{
closed = 1;
nodes = (
"342 238 OFFCURVE",
"362 258 OFFCURVE",
"362 284 CURVE SMOOTH",
"362 309 OFFCURVE",
"342 329 OFFCURVE",
"317 329 CURVE SMOOTH",
"292 329 OFFCURVE",
"272 309 OFFCURVE",
"272 284 CURVE SMOOTH",
"272 258 OFFCURVE",
"292 238 OFFCURVE",
"317 238 CURVE SMOOTH"
);
},
{
closed = 1;
nodes = (
"655 97 LINE SMOOTH",
"655 92 OFFCURVE",
"659 88 OFFCURVE",
"665 88 CURVE SMOOTH",
"730 88 LINE SMOOTH",
"735 88 OFFCURVE",
"739 92 OFFCURVE",
"739 97 CURVE SMOOTH",
"739 185 LINE",
"655 185 LINE"
);
},
{
closed = 1;
nodes = (
"713 238 OFFCURVE",
"733 258 OFFCURVE",
"733 284 CURVE SMOOTH",
"733 309 OFFCURVE",
"713 329 OFFCURVE",
"688 329 CURVE SMOOTH",
"663 329 OFFCURVE",
"643 309 OFFCURVE",
"643 284 CURVE SMOOTH",
"643 258 OFFCURVE",
"663 238 OFFCURVE",
"688 238 CURVE SMOOTH"
);
},
{
closed = 1;
nodes = (
"271 560 LINE",
"260 397 LINE",
"745 397 LINE",
"734 560 LINE"
);
},
{
closed = 1;
nodes = (
"760 592 LINE",
"602 592 LINE",
"602 645 LINE",
"403 645 LINE",
"403 592 LINE",
"245 592 LINE",
"231 397 LINE",
"194 397 LINE",
"194 160 LINE",
"811 160 LINE",
"811 397 LINE",
"774 397 LINE"
);
},
{
closed = 1;
nodes = (
"400 310 LINE",
"400 290 LINE",
"605 290 LINE",
"605 310 LINE"
);
},
{
closed = 1;
nodes = (
"400 265 LINE",
"400 245 LINE",
"605 245 LINE",
"605 265 LINE"
);
}
);
};
layerId = "346C0EA8-9638-4244-B17D-E97A86FA40DB";
name = "Sep 8 17, 13:27";
paths = (
{
closed = 1;
nodes = (
"139 806 LINE SMOOTH",
"85 806 OFFCURVE",
"40 762 OFFCURVE",
"40 708 CURVE SMOOTH",
"40 25 LINE SMOOTH",
"40 -29 OFFCURVE",
"85 -74 OFFCURVE",
"139 -74 CURVE SMOOTH",
"862 -74 LINE SMOOTH",
"916 -74 OFFCURVE",
"960 -29 OFFCURVE",
"960 25 CURVE SMOOTH",
"960 708 LINE SMOOTH",
"960 762 OFFCURVE",
"916 806 OFFCURVE",
"862 806 CURVE SMOOTH"
);
},
{
closed = 1;
nodes = (
"902 784 OFFCURVE",
"938 748 OFFCURVE",
"938 705 CURVE SMOOTH",
"938 28 LINE SMOOTH",
"938 -15 OFFCURVE",
"902 -52 OFFCURVE",
"859 -52 CURVE SMOOTH",
"142 -52 LINE SMOOTH",
"99 -52 OFFCURVE",
"62 -15 OFFCURVE",
"62 28 CURVE SMOOTH",
"62 705 LINE SMOOTH",
"62 748 OFFCURVE",
"99 784 OFFCURVE",
"142 784 CURVE SMOOTH",
"859 784 LINE SMOOTH"
);
},
{
closed = 1;
nodes = (
"266 185 LINE",
"266 97 LINE SMOOTH",
"266 92 OFFCURVE",
"270 88 OFFCURVE",
"275 88 CURVE SMOOTH",
"340 88 LINE SMOOTH",
"346 88 OFFCURVE",
"350 92 OFFCURVE",
"350 97 CURVE SMOOTH",
"350 185 LINE"
);
},
{
closed = 1;
nodes = (
"342 238 OFFCURVE",
"362 258 OFFCURVE",
"362 284 CURVE SMOOTH",
"362 309 OFFCURVE",
"342 329 OFFCURVE",
"317 329 CURVE SMOOTH",
"292 329 OFFCURVE",
"272 309 OFFCURVE",
"272 284 CURVE SMOOTH",
"272 258 OFFCURVE",
"292 238 OFFCURVE",
"317 238 CURVE SMOOTH"
);
},
{
closed = 1;
nodes = (
"655 97 LINE SMOOTH",
"655 92 OFFCURVE",
"659 88 OFFCURVE",
"665 88 CURVE SMOOTH",
"730 88 LINE SMOOTH",
"735 88 OFFCURVE",
"739 92 OFFCURVE",
"739 97 CURVE SMOOTH",
"739 185 LINE",
"655 185 LINE"
);
},
{
closed = 1;
nodes = (
"713 238 OFFCURVE",
"733 258 OFFCURVE",
"733 284 CURVE SMOOTH",
"733 309 OFFCURVE",
"713 329 OFFCURVE",
"688 329 CURVE SMOOTH",
"663 329 OFFCURVE",
"643 309 OFFCURVE",
"643 284 CURVE SMOOTH",
"643 258 OFFCURVE",
"663 238 OFFCURVE",
"688 238 CURVE SMOOTH"
);
},
{
closed = 1;
nodes = (
"271 560 LINE",
"260 397 LINE",
"745 397 LINE",
"734 560 LINE"
);
},
{
closed = 1;
nodes = (
"760 592 LINE",
"602 592 LINE",
"602 645 LINE",
"403 645 LINE",
"403 592 LINE",
"245 592 LINE",
"231 397 LINE",
"194 397 LINE",
"194 160 LINE",
"811 160 LINE",
"811 397 LINE",
"774 397 LINE"
);
},
{
closed = 1;
nodes = (
"400 310 LINE",
"400 290 LINE",
"605 290 LINE",
"605 310 LINE"
);
},
{
closed = 1;
nodes = (
"400 265 LINE",
"400 245 LINE",
"605 245 LINE",
"605 265 LINE"
);
}
);
width = 1000;
}
);
unicode = 0052;
},
{
glyphname = S;
lastChange = "2018-03-12 12:07:02 +0000";
layers = (
{
background = {
components = (
{
name = largecircle;
}
);
paths = (
{
closed = 1;
nodes = (
"805 421 LINE SMOOTH",
"805 427 OFFCURVE",
"801 431 OFFCURVE",
"795 431 CURVE SMOOTH",
"612 431 LINE",
"612 615 LINE SMOOTH",
"612 621 OFFCURVE",
"608 625 OFFCURVE",
"602 625 CURVE SMOOTH",
"466 625 LINE SMOOTH",
"460 625 OFFCURVE",
"456 621 OFFCURVE",
"456 615 CURVE SMOOTH",
"456 431 LINE",
"273 431 LINE SMOOTH",
"267 431 OFFCURVE",
"263 427 OFFCURVE",
"263 421 CURVE SMOOTH",
"263 301 LINE SMOOTH",
"263 295 OFFCURVE",
"267 291 OFFCURVE",
"273 291 CURVE SMOOTH",
"456 291 LINE",
"456 98 LINE SMOOTH",
"456 92 OFFCURVE",
"460 88 OFFCURVE",
"466 88 CURVE SMOOTH",
"602 88 LINE SMOOTH",
"608 88 OFFCURVE",
"612 92 OFFCURVE",
"612 98 CURVE SMOOTH",
"612 291 LINE",
"795 291 LINE SMOOTH",
"801 291 OFFCURVE",
"805 295 OFFCURVE",
"805 301 CURVE SMOOTH"
);
}
);
};
components = (
{
name = blackLargeCircle;
}
);
layerId = "9E4B8FD8-F8AF-4AA7-8E0D-0C907FFB2BDD";
paths = (
{
closed = 1;
nodes = (
"805 421 LINE SMOOTH",
"805 427 OFFCURVE",
"801 431 OFFCURVE",
"795 431 CURVE SMOOTH",
"612 431 LINE",
"612 615 LINE SMOOTH",
"612 621 OFFCURVE",
"608 625 OFFCURVE",
"602 625 CURVE SMOOTH",
"466 625 LINE SMOOTH",
"460 625 OFFCURVE",
"456 621 OFFCURVE",
"456 615 CURVE SMOOTH",
"456 431 LINE",
"273 431 LINE SMOOTH",
"267 431 OFFCURVE",
"263 427 OFFCURVE",
"263 421 CURVE SMOOTH",
"263 301 LINE SMOOTH",
"263 295 OFFCURVE",
"267 291 OFFCURVE",
"273 291 CURVE SMOOTH",
"456 291 LINE",
"456 98 LINE SMOOTH",
"456 92 OFFCURVE",
"460 88 OFFCURVE",
"466 88 CURVE SMOOTH",
"602 88 LINE SMOOTH",
"608 88 OFFCURVE",
"612 92 OFFCURVE",
"612 98 CURVE SMOOTH",
"612 291 LINE",
"795 291 LINE SMOOTH",
"801 291 OFFCURVE",
"805 295 OFFCURVE",
"805 301 CURVE SMOOTH"
);
}
);
width = 1068;
},
{
associatedMasterId = "9E4B8FD8-F8AF-4AA7-8E0D-0C907FFB2BDD";
background = {
paths = (
{
closed = 1;
nodes = (
"264 591 LINE SMOOTH",
"257 591 OFFCURVE",
"252 586 OFFCURVE",
"252 579 CURVE SMOOTH",
"252 157 LINE SMOOTH",
"252 150 OFFCURVE",
"257 145 OFFCURVE",
"264 145 CURVE SMOOTH",
"824 145 LINE SMOOTH",
"831 145 OFFCURVE",
"836 150 OFFCURVE",
"836 157 CURVE SMOOTH",
"836 579 LINE SMOOTH",
"836 586 OFFCURVE",
"831 591 OFFCURVE",
"824 591 CURVE SMOOTH"
);
},
{
closed = 1;
nodes = (
"530 350 OFFCURVE",
"516 355 OFFCURVE",
"505 366 CURVE SMOOTH",
"324 549 LINE",
"764 549 LINE",
"583 366 LINE SMOOTH",
"572 355 OFFCURVE",
"557 350 OFFCURVE",
"544 350 CURVE SMOOTH"
);
},
{
closed = 1;
nodes = (
"323 187 LINE",
"474 337 LINE",
"494 317 OFFCURVE",
"519 306 OFFCURVE",
"544 306 CURVE SMOOTH",
"569 306 OFFCURVE",
"594 317 OFFCURVE",
"614 337 CURVE",
"765 187 LINE"
);
},
{
closed = 1;
nodes = (
"444 368 LINE",
"294 217 LINE",
"294 518 LINE"
);
},
{
closed = 1;
nodes = (
"794 217 LINE",
"644 368 LINE",
"794 518 LINE"
);
}
);
};
components = (
{
name = largecircle;
transform = "{1, 0, 0, 1, 10, 0}";
}
);
layerId = "955B2AA2-27DD-425E-8ACF-510DB3712361";
name = "Nov 14 17, 19:32";
paths = (
{
closed = 1;
nodes = (
"264 145 LINE SMOOTH",
"257 145 OFFCURVE",
"252 150 OFFCURVE",
"252 157 CURVE SMOOTH",
"252 579 LINE SMOOTH",
"252 586 OFFCURVE",
"257 591 OFFCURVE",
"264 591 CURVE SMOOTH",
"824 591 LINE SMOOTH",
"831 591 OFFCURVE",
"836 586 OFFCURVE",
"836 579 CURVE SMOOTH",
"836 157 LINE SMOOTH",
"836 150 OFFCURVE",
"831 145 OFFCURVE",
"824 145 CURVE SMOOTH"
);
},
{
closed = 1;
nodes = (
"298 563 LINE",
"536 338 LINE SMOOTH",
"541 333 OFFCURVE",
"547 333 OFFCURVE",
"552 338 CURVE SMOOTH",
"790 563 LINE"
);
},
{
closed = 1;
nodes = (
"480 345 LINE",
"300 173 LINE",
"788 173 LINE",
"607 347 LINE",
"552 297 LINE SMOOTH",
"547 292 OFFCURVE",
"540 292 OFFCURVE",
"535 297 CURVE SMOOTH"
);
},
{
closed = 1;
nodes = (
"280 196 LINE",
"458 368 LINE",
"280 537 LINE"
);
},
{
closed = 1;
nodes = (
"630 368 LINE",
"808 196 LINE",
"808 537 LINE"
);
}
);
width = 1088;
}
);
unicode = 0053;
},
{
glyphname = T;
lastChange = "2018-03-12 12:07:02 +0000";
layers = (
{
background = {
components = (
{
name = whiteRoundedCornersSquare;
transform = "{1, 0, 0, 1, 35, 0}";
}
);
paths = (
{
closed = 1;
nodes = (
"806 421 LINE SMOOTH",
"806 427 OFFCURVE",
"802 431 OFFCURVE",
"796 431 CURVE SMOOTH",
"613 431 LINE",
"613 615 LINE SMOOTH",
"613 621 OFFCURVE",
"609 625 OFFCURVE",
"603 625 CURVE SMOOTH",
"467 625 LINE SMOOTH",
"461 625 OFFCURVE",
"457 621 OFFCURVE",
"457 615 CURVE SMOOTH",
"457 431 LINE",
"274 431 LINE SMOOTH",
"268 431 OFFCURVE",
"264 427 OFFCURVE",
"264 421 CURVE SMOOTH",
"264 301 LINE SMOOTH",
"264 295 OFFCURVE",
"268 291 OFFCURVE",
"274 291 CURVE SMOOTH",
"457 291 LINE",
"457 98 LINE SMOOTH",
"457 92 OFFCURVE",
"461 88 OFFCURVE",
"467 88 CURVE SMOOTH",
"603 88 LINE SMOOTH",
"609 88 OFFCURVE",
"613 92 OFFCURVE",
"613 98 CURVE SMOOTH",
"613 291 LINE",
"796 291 LINE SMOOTH",
"802 291 OFFCURVE",
"806 295 OFFCURVE",
"806 301 CURVE SMOOTH"
);
}
);
};
layerId = "9E4B8FD8-F8AF-4AA7-8E0D-0C907FFB2BDD";
paths = (
{
closed = 1;
nodes = (
"805 421 LINE SMOOTH",
"805 427 OFFCURVE",
"801 431 OFFCURVE",
"795 431 CURVE SMOOTH",
"612 431 LINE",
"612 615 LINE SMOOTH",
"612 621 OFFCURVE",
"608 625 OFFCURVE",
"602 625 CURVE SMOOTH",
"466 625 LINE SMOOTH",
"460 625 OFFCURVE",
"456 621 OFFCURVE",
"456 615 CURVE SMOOTH",
"456 431 LINE",
"273 431 LINE SMOOTH",
"267 431 OFFCURVE",
"263 427 OFFCURVE",
"263 421 CURVE SMOOTH",
"263 301 LINE SMOOTH",
"263 295 OFFCURVE",
"267 291 OFFCURVE",
"273 291 CURVE SMOOTH",
"456 291 LINE",
"456 98 LINE SMOOTH",
"456 92 OFFCURVE",
"460 88 OFFCURVE",
"466 88 CURVE SMOOTH",
"602 88 LINE SMOOTH",
"608 88 OFFCURVE",
"612 92 OFFCURVE",
"612 98 CURVE SMOOTH",
"612 291 LINE",
"795 291 LINE SMOOTH",
"801 291 OFFCURVE",
"805 295 OFFCURVE",
"805 301 CURVE SMOOTH"
);
}
);
width = 1068;
}
);
unicode = 0054;
},
{
glyphname = U;
lastChange = "2018-03-12 12:07:02 +0000";
layers = (
{
background = {
paths = (
{
closed = 1;
nodes = (
"254 145 LINE SMOOTH",
"247 145 OFFCURVE",
"242 150 OFFCURVE",
"242 157 CURVE SMOOTH",
"242 579 LINE SMOOTH",
"242 586 OFFCURVE",
"247 591 OFFCURVE",
"254 591 CURVE SMOOTH",
"814 591 LINE SMOOTH",
"821 591 OFFCURVE",
"826 586 OFFCURVE",
"826 579 CURVE SMOOTH",
"826 157 LINE SMOOTH",
"826 150 OFFCURVE",
"821 145 OFFCURVE",
"814 145 CURVE SMOOTH"
);
},
{
closed = 1;
nodes = (
"286 561 LINE",
"526 338 LINE SMOOTH",
"531 333 OFFCURVE",
"537 333 OFFCURVE",
"542 338 CURVE SMOOTH",
"782 561 LINE"
);
},
{
closed = 1;
nodes = (
"470 345 LINE",
"284 175 LINE",
"784 175 LINE",
"597 347 LINE",
"542 297 LINE SMOOTH",
"537 292 OFFCURVE",
"530 292 OFFCURVE",
"525 297 CURVE SMOOTH"
);
},
{
closed = 1;
nodes = (
"272 206 LINE",
"448 368 LINE",
"272 533 LINE"
);
},
{
closed = 1;
nodes = (
"620 368 LINE",
"796 206 LINE",
"796 533 LINE"
);
}
);
};
components = (
{
name = whiteRoundedCornersSquare;
}
);
guideLines = (
{
angle = 90;
position = "{534, 576}";
}
);
layerId = "9E4B8FD8-F8AF-4AA7-8E0D-0C907FFB2BDD";
paths = (
{
closed = 1;
nodes = (
"532 353 OFFCURVE",
"537 353 OFFCURVE",
"542 358 CURVE SMOOTH",
"744 544 LINE",
"324 544 LINE",
"526 358 LINE SMOOTH"
);
},
{
closed = 1;
nodes = (
"476 337 LINE",
"324 192 LINE",
"744 192 LINE",
"592 337 LINE",
"542 294 LINE SMOOTH",
"537 289 OFFCURVE",
"531 289 OFFCURVE",
"526 294 CURVE SMOOTH"
);
},
{
closed = 1;
nodes = (
"289 225 LINE",
"439 370 LINE",
"289 511 LINE"
);
},
{
closed = 1;
nodes = (
"247 145 OFFCURVE",
"242 150 OFFCURVE",
"242 157 CURVE SMOOTH",
"242 579 LINE SMOOTH",
"242 586 OFFCURVE",
"247 591 OFFCURVE",
"254 591 CURVE SMOOTH",
"814 591 LINE SMOOTH",
"821 591 OFFCURVE",
"826 586 OFFCURVE",
"826 579 CURVE SMOOTH",
"826 157 LINE SMOOTH",
"826 150 OFFCURVE",
"821 145 OFFCURVE",
"814 145 CURVE SMOOTH",
"254 145 LINE SMOOTH"
);
},
{
closed = 1;
nodes = (
"629 370 LINE",
"779 225 LINE",
"779 511 LINE"
);
}
);
width = 1068;
},
{
associatedMasterId = "9E4B8FD8-F8AF-4AA7-8E0D-0C907FFB2BDD";
background = {
paths = (
{
closed = 1;
nodes = (
"139 806 LINE SMOOTH",
"85 806 OFFCURVE",
"40 762 OFFCURVE",
"40 708 CURVE SMOOTH",
"40 25 LINE SMOOTH",
"40 -29 OFFCURVE",
"85 -74 OFFCURVE",
"139 -74 CURVE SMOOTH",
"862 -74 LINE SMOOTH",
"916 -74 OFFCURVE",
"960 -29 OFFCURVE",
"960 25 CURVE SMOOTH",
"960 708 LINE SMOOTH",
"960 762 OFFCURVE",
"916 806 OFFCURVE",
"862 806 CURVE SMOOTH"
);
},
{
closed = 1;
nodes = (
"902 784 OFFCURVE",
"938 748 OFFCURVE",
"938 705 CURVE SMOOTH",
"938 28 LINE SMOOTH",
"938 -15 OFFCURVE",
"902 -52 OFFCURVE",
"859 -52 CURVE SMOOTH",
"142 -52 LINE SMOOTH",
"99 -52 OFFCURVE",
"62 -15 OFFCURVE",
"62 28 CURVE SMOOTH",
"62 705 LINE SMOOTH",
"62 748 OFFCURVE",
"99 784 OFFCURVE",
"142 784 CURVE SMOOTH",
"859 784 LINE SMOOTH"
);
},
{
closed = 1;
nodes = (
"266 185 LINE",
"266 97 LINE SMOOTH",
"266 92 OFFCURVE",
"270 88 OFFCURVE",
"275 88 CURVE SMOOTH",
"340 88 LINE SMOOTH",
"346 88 OFFCURVE",
"350 92 OFFCURVE",
"350 97 CURVE SMOOTH",
"350 185 LINE"
);
},
{
closed = 1;
nodes = (
"342 238 OFFCURVE",
"362 258 OFFCURVE",
"362 284 CURVE SMOOTH",
"362 309 OFFCURVE",
"342 329 OFFCURVE",
"317 329 CURVE SMOOTH",
"292 329 OFFCURVE",
"272 309 OFFCURVE",
"272 284 CURVE SMOOTH",
"272 258 OFFCURVE",
"292 238 OFFCURVE",
"317 238 CURVE SMOOTH"
);
},
{
closed = 1;
nodes = (
"655 97 LINE SMOOTH",
"655 92 OFFCURVE",
"659 88 OFFCURVE",
"665 88 CURVE SMOOTH",
"730 88 LINE SMOOTH",
"735 88 OFFCURVE",
"739 92 OFFCURVE",
"739 97 CURVE SMOOTH",
"739 185 LINE",
"655 185 LINE"
);
},
{
closed = 1;
nodes = (
"713 238 OFFCURVE",
"733 258 OFFCURVE",
"733 284 CURVE SMOOTH",
"733 309 OFFCURVE",
"713 329 OFFCURVE",
"688 329 CURVE SMOOTH",
"663 329 OFFCURVE",
"643 309 OFFCURVE",
"643 284 CURVE SMOOTH",
"643 258 OFFCURVE",
"663 238 OFFCURVE",
"688 238 CURVE SMOOTH"
);
},
{
closed = 1;
nodes = (
"271 560 LINE",
"260 397 LINE",
"745 397 LINE",
"734 560 LINE"
);
},
{
closed = 1;
nodes = (
"760 592 LINE",
"602 592 LINE",
"602 645 LINE",
"403 645 LINE",
"403 592 LINE",
"245 592 LINE",
"231 397 LINE",
"194 397 LINE",
"194 160 LINE",
"811 160 LINE",
"811 397 LINE",
"774 397 LINE"
);
},
{
closed = 1;
nodes = (
"400 310 LINE",
"400 290 LINE",
"605 290 LINE",
"605 310 LINE"
);
},
{
closed = 1;
nodes = (
"400 265 LINE",
"400 245 LINE",
"605 245 LINE",
"605 265 LINE"
);
}
);
};
layerId = "346C0EA8-9638-4244-B17D-E97A86FA40DB";
name = "Sep 8 17, 13:27";
paths = (
{
closed = 1;
nodes = (
"139 806 LINE SMOOTH",
"85 806 OFFCURVE",
"40 762 OFFCURVE",
"40 708 CURVE SMOOTH",
"40 25 LINE SMOOTH",
"40 -29 OFFCURVE",
"85 -74 OFFCURVE",
"139 -74 CURVE SMOOTH",
"862 -74 LINE SMOOTH",
"916 -74 OFFCURVE",
"960 -29 OFFCURVE",
"960 25 CURVE SMOOTH",
"960 708 LINE SMOOTH",
"960 762 OFFCURVE",
"916 806 OFFCURVE",
"862 806 CURVE SMOOTH"
);
},
{
closed = 1;
nodes = (
"902 784 OFFCURVE",
"938 748 OFFCURVE",
"938 705 CURVE SMOOTH",
"938 28 LINE SMOOTH",
"938 -15 OFFCURVE",
"902 -52 OFFCURVE",
"859 -52 CURVE SMOOTH",
"142 -52 LINE SMOOTH",
"99 -52 OFFCURVE",
"62 -15 OFFCURVE",
"62 28 CURVE SMOOTH",
"62 705 LINE SMOOTH",
"62 748 OFFCURVE",
"99 784 OFFCURVE",
"142 784 CURVE SMOOTH",
"859 784 LINE SMOOTH"
);
},
{
closed = 1;
nodes = (
"266 185 LINE",
"266 97 LINE SMOOTH",
"266 92 OFFCURVE",
"270 88 OFFCURVE",
"275 88 CURVE SMOOTH",
"340 88 LINE SMOOTH",
"346 88 OFFCURVE",
"350 92 OFFCURVE",
"350 97 CURVE SMOOTH",
"350 185 LINE"
);
},
{
closed = 1;
nodes = (
"342 238 OFFCURVE",
"362 258 OFFCURVE",
"362 284 CURVE SMOOTH",
"362 309 OFFCURVE",
"342 329 OFFCURVE",
"317 329 CURVE SMOOTH",
"292 329 OFFCURVE",
"272 309 OFFCURVE",
"272 284 CURVE SMOOTH",
"272 258 OFFCURVE",
"292 238 OFFCURVE",
"317 238 CURVE SMOOTH"
);
},
{
closed = 1;
nodes = (
"655 97 LINE SMOOTH",
"655 92 OFFCURVE",
"659 88 OFFCURVE",
"665 88 CURVE SMOOTH",
"730 88 LINE SMOOTH",
"735 88 OFFCURVE",
"739 92 OFFCURVE",
"739 97 CURVE SMOOTH",
"739 185 LINE",
"655 185 LINE"
);
},
{
closed = 1;
nodes = (
"713 238 OFFCURVE",
"733 258 OFFCURVE",
"733 284 CURVE SMOOTH",
"733 309 OFFCURVE",
"713 329 OFFCURVE",
"688 329 CURVE SMOOTH",
"663 329 OFFCURVE",
"643 309 OFFCURVE",
"643 284 CURVE SMOOTH",
"643 258 OFFCURVE",
"663 238 OFFCURVE",
"688 238 CURVE SMOOTH"
);
},
{
closed = 1;
nodes = (
"271 560 LINE",
"260 397 LINE",
"745 397 LINE",
"734 560 LINE"
);
},
{
closed = 1;
nodes = (
"760 592 LINE",
"602 592 LINE",
"602 645 LINE",
"403 645 LINE",
"403 592 LINE",
"245 592 LINE",
"231 397 LINE",
"194 397 LINE",
"194 160 LINE",
"811 160 LINE",
"811 397 LINE",
"774 397 LINE"
);
},
{
closed = 1;
nodes = (
"400 310 LINE",
"400 290 LINE",
"605 290 LINE",
"605 310 LINE"
);
},
{
closed = 1;
nodes = (
"400 265 LINE",
"400 245 LINE",
"605 245 LINE",
"605 265 LINE"
);
}
);
width = 1000;
},
{
associatedMasterId = "9E4B8FD8-F8AF-4AA7-8E0D-0C907FFB2BDD";
background = {
paths = (
{
closed = 1;
nodes = (
"264 591 LINE SMOOTH",
"257 591 OFFCURVE",
"252 586 OFFCURVE",
"252 579 CURVE SMOOTH",
"252 157 LINE SMOOTH",
"252 150 OFFCURVE",
"257 145 OFFCURVE",
"264 145 CURVE SMOOTH",
"824 145 LINE SMOOTH",
"831 145 OFFCURVE",
"836 150 OFFCURVE",
"836 157 CURVE SMOOTH",
"836 579 LINE SMOOTH",
"836 586 OFFCURVE",
"831 591 OFFCURVE",
"824 591 CURVE SMOOTH"
);
},
{
closed = 1;
nodes = (
"530 350 OFFCURVE",
"516 355 OFFCURVE",
"505 366 CURVE SMOOTH",
"324 549 LINE",
"764 549 LINE",
"583 366 LINE SMOOTH",
"572 355 OFFCURVE",
"557 350 OFFCURVE",
"544 350 CURVE SMOOTH"
);
},
{
closed = 1;
nodes = (
"323 187 LINE",
"474 337 LINE",
"494 317 OFFCURVE",
"519 306 OFFCURVE",
"544 306 CURVE SMOOTH",
"569 306 OFFCURVE",
"594 317 OFFCURVE",
"614 337 CURVE",
"765 187 LINE"
);
},
{
closed = 1;
nodes = (
"444 368 LINE",
"294 217 LINE",
"294 518 LINE"
);
},
{
closed = 1;
nodes = (
"794 217 LINE",
"644 368 LINE",
"794 518 LINE"
);
}
);
};
components = (
{
name = largecircle;
transform = "{1, 0, 0, 1, 10, 0}";
}
);
layerId = "955B2AA2-27DD-425E-8ACF-510DB3712361";
name = "Nov 14 17, 19:32";
paths = (
{
closed = 1;
nodes = (
"264 145 LINE SMOOTH",
"257 145 OFFCURVE",
"252 150 OFFCURVE",
"252 157 CURVE SMOOTH",
"252 579 LINE SMOOTH",
"252 586 OFFCURVE",
"257 591 OFFCURVE",
"264 591 CURVE SMOOTH",
"824 591 LINE SMOOTH",
"831 591 OFFCURVE",
"836 586 OFFCURVE",
"836 579 CURVE SMOOTH",
"836 157 LINE SMOOTH",
"836 150 OFFCURVE",
"831 145 OFFCURVE",
"824 145 CURVE SMOOTH"
);
},
{
closed = 1;
nodes = (
"298 563 LINE",
"536 338 LINE SMOOTH",
"541 333 OFFCURVE",
"547 333 OFFCURVE",
"552 338 CURVE SMOOTH",
"790 563 LINE"
);
},
{
closed = 1;
nodes = (
"480 345 LINE",
"300 173 LINE",
"788 173 LINE",
"607 347 LINE",
"552 297 LINE SMOOTH",
"547 292 OFFCURVE",
"540 292 OFFCURVE",
"535 297 CURVE SMOOTH"
);
},
{
closed = 1;
nodes = (
"280 196 LINE",
"458 368 LINE",
"280 537 LINE"
);
},
{
closed = 1;
nodes = (
"630 368 LINE",
"808 196 LINE",
"808 537 LINE"
);
}
);
width = 1088;
}
);
unicode = 0055;
},
{
glyphname = V;
lastChange = "2018-03-12 12:07:02 +0000";
layers = (
{
components = (
{
name = blackSquare.roundBlackBox;
}
);
layerId = "9E4B8FD8-F8AF-4AA7-8E0D-0C907FFB2BDD";
paths = (
{
closed = 1;
nodes = (
"324 544 LINE",
"744 544 LINE",
"542 358 LINE SMOOTH",
"537 353 OFFCURVE",
"532 353 OFFCURVE",
"526 358 CURVE SMOOTH"
);
},
{
closed = 1;
nodes = (
"531 289 OFFCURVE",
"537 289 OFFCURVE",
"542 294 CURVE SMOOTH",
"592 337 LINE",
"744 192 LINE",
"324 192 LINE",
"476 337 LINE",
"526 294 LINE SMOOTH"
);
},
{
closed = 1;
nodes = (
"439 370 LINE",
"289 225 LINE",
"289 511 LINE"
);
},
{
closed = 1;
nodes = (
"814 145 LINE SMOOTH",
"821 145 OFFCURVE",
"826 150 OFFCURVE",
"826 157 CURVE SMOOTH",
"826 579 LINE SMOOTH",
"826 586 OFFCURVE",
"821 591 OFFCURVE",
"814 591 CURVE SMOOTH",
"254 591 LINE SMOOTH",
"247 591 OFFCURVE",
"242 586 OFFCURVE",
"242 579 CURVE SMOOTH",
"242 157 LINE SMOOTH",
"242 150 OFFCURVE",
"247 145 OFFCURVE",
"254 145 CURVE SMOOTH"
);
},
{
closed = 1;
nodes = (
"779 225 LINE",
"629 370 LINE",
"779 511 LINE"
);
}
);
width = 1068;
}
);
unicode = 0056;
},
{
glyphname = W;
lastChange = "2018-03-12 12:07:02 +0000";
layers = (
{
background = {
paths = (
{
closed = 1;
nodes = (
"254 591 LINE SMOOTH",
"247 591 OFFCURVE",
"242 586 OFFCURVE",
"242 579 CURVE SMOOTH",
"242 157 LINE SMOOTH",
"242 150 OFFCURVE",
"247 145 OFFCURVE",
"254 145 CURVE SMOOTH",
"814 145 LINE SMOOTH",
"821 145 OFFCURVE",
"826 150 OFFCURVE",
"826 157 CURVE SMOOTH",
"826 579 LINE SMOOTH",
"826 586 OFFCURVE",
"821 591 OFFCURVE",
"814 591 CURVE SMOOTH"
);
},
{
closed = 1;
nodes = (
"520 350 OFFCURVE",
"506 355 OFFCURVE",
"495 366 CURVE SMOOTH",
"314 549 LINE",
"754 549 LINE",
"573 366 LINE SMOOTH",
"562 355 OFFCURVE",
"547 350 OFFCURVE",
"534 350 CURVE SMOOTH"
);
},
{
closed = 1;
nodes = (
"313 187 LINE",
"464 337 LINE",
"484 317 OFFCURVE",
"509 306 OFFCURVE",
"534 306 CURVE SMOOTH",
"559 306 OFFCURVE",
"584 317 OFFCURVE",
"604 337 CURVE",
"755 187 LINE"
);
},
{
closed = 1;
nodes = (
"434 368 LINE",
"284 217 LINE",
"284 518 LINE"
);
},
{
closed = 1;
nodes = (
"784 217 LINE",
"634 368 LINE",
"784 518 LINE"
);
}
);
};
components = (
{
name = largecircle;
}
);
layerId = "9E4B8FD8-F8AF-4AA7-8E0D-0C907FFB2BDD";
paths = (
{
closed = 1;
nodes = (
"532 353 OFFCURVE",
"537 353 OFFCURVE",
"542 358 CURVE SMOOTH",
"744 544 LINE",
"324 544 LINE",
"526 358 LINE SMOOTH"
);
},
{
closed = 1;
nodes = (
"476 337 LINE",
"324 192 LINE",
"744 192 LINE",
"592 337 LINE",
"542 294 LINE SMOOTH",
"537 289 OFFCURVE",
"531 289 OFFCURVE",
"526 294 CURVE SMOOTH"
);
},
{
closed = 1;
nodes = (
"289 225 LINE",
"439 370 LINE",
"289 511 LINE"
);
},
{
closed = 1;
nodes = (
"247 145 OFFCURVE",
"242 150 OFFCURVE",
"242 157 CURVE SMOOTH",
"242 579 LINE SMOOTH",
"242 586 OFFCURVE",
"247 591 OFFCURVE",
"254 591 CURVE SMOOTH",
"814 591 LINE SMOOTH",
"821 591 OFFCURVE",
"826 586 OFFCURVE",
"826 579 CURVE SMOOTH",
"826 157 LINE SMOOTH",
"826 150 OFFCURVE",
"821 145 OFFCURVE",
"814 145 CURVE SMOOTH",
"254 145 LINE SMOOTH"
);
},
{
closed = 1;
nodes = (
"629 370 LINE",
"779 225 LINE",
"779 511 LINE"
);
}
);
width = 1068;
},
{
associatedMasterId = "9E4B8FD8-F8AF-4AA7-8E0D-0C907FFB2BDD";
background = {
paths = (
{
closed = 1;
nodes = (
"139 806 LINE SMOOTH",
"85 806 OFFCURVE",
"40 762 OFFCURVE",
"40 708 CURVE SMOOTH",
"40 25 LINE SMOOTH",
"40 -29 OFFCURVE",
"85 -74 OFFCURVE",
"139 -74 CURVE SMOOTH",
"862 -74 LINE SMOOTH",
"916 -74 OFFCURVE",
"960 -29 OFFCURVE",
"960 25 CURVE SMOOTH",
"960 708 LINE SMOOTH",
"960 762 OFFCURVE",
"916 806 OFFCURVE",
"862 806 CURVE SMOOTH"
);
},
{
closed = 1;
nodes = (
"902 784 OFFCURVE",
"938 748 OFFCURVE",
"938 705 CURVE SMOOTH",
"938 28 LINE SMOOTH",
"938 -15 OFFCURVE",
"902 -52 OFFCURVE",
"859 -52 CURVE SMOOTH",
"142 -52 LINE SMOOTH",
"99 -52 OFFCURVE",
"62 -15 OFFCURVE",
"62 28 CURVE SMOOTH",
"62 705 LINE SMOOTH",
"62 748 OFFCURVE",
"99 784 OFFCURVE",
"142 784 CURVE SMOOTH",
"859 784 LINE SMOOTH"
);
},
{
closed = 1;
nodes = (
"266 185 LINE",
"266 97 LINE SMOOTH",
"266 92 OFFCURVE",
"270 88 OFFCURVE",
"275 88 CURVE SMOOTH",
"340 88 LINE SMOOTH",
"346 88 OFFCURVE",
"350 92 OFFCURVE",
"350 97 CURVE SMOOTH",
"350 185 LINE"
);
},
{
closed = 1;
nodes = (
"342 238 OFFCURVE",
"362 258 OFFCURVE",
"362 284 CURVE SMOOTH",
"362 309 OFFCURVE",
"342 329 OFFCURVE",
"317 329 CURVE SMOOTH",
"292 329 OFFCURVE",
"272 309 OFFCURVE",
"272 284 CURVE SMOOTH",
"272 258 OFFCURVE",
"292 238 OFFCURVE",
"317 238 CURVE SMOOTH"
);
},
{
closed = 1;
nodes = (
"655 97 LINE SMOOTH",
"655 92 OFFCURVE",
"659 88 OFFCURVE",
"665 88 CURVE SMOOTH",
"730 88 LINE SMOOTH",
"735 88 OFFCURVE",
"739 92 OFFCURVE",
"739 97 CURVE SMOOTH",
"739 185 LINE",
"655 185 LINE"
);
},
{
closed = 1;
nodes = (
"713 238 OFFCURVE",
"733 258 OFFCURVE",
"733 284 CURVE SMOOTH",
"733 309 OFFCURVE",
"713 329 OFFCURVE",
"688 329 CURVE SMOOTH",
"663 329 OFFCURVE",
"643 309 OFFCURVE",
"643 284 CURVE SMOOTH",
"643 258 OFFCURVE",
"663 238 OFFCURVE",
"688 238 CURVE SMOOTH"
);
},
{
closed = 1;
nodes = (
"271 560 LINE",
"260 397 LINE",
"745 397 LINE",
"734 560 LINE"
);
},
{
closed = 1;
nodes = (
"760 592 LINE",
"602 592 LINE",
"602 645 LINE",
"403 645 LINE",
"403 592 LINE",
"245 592 LINE",
"231 397 LINE",
"194 397 LINE",
"194 160 LINE",
"811 160 LINE",
"811 397 LINE",
"774 397 LINE"
);
},
{
closed = 1;
nodes = (
"400 310 LINE",
"400 290 LINE",
"605 290 LINE",
"605 310 LINE"
);
},
{
closed = 1;
nodes = (
"400 265 LINE",
"400 245 LINE",
"605 245 LINE",
"605 265 LINE"
);
}
);
};
layerId = "346C0EA8-9638-4244-B17D-E97A86FA40DB";
name = "Sep 8 17, 13:27";
paths = (
{
closed = 1;
nodes = (
"139 806 LINE SMOOTH",
"85 806 OFFCURVE",
"40 762 OFFCURVE",
"40 708 CURVE SMOOTH",
"40 25 LINE SMOOTH",
"40 -29 OFFCURVE",
"85 -74 OFFCURVE",
"139 -74 CURVE SMOOTH",
"862 -74 LINE SMOOTH",
"916 -74 OFFCURVE",
"960 -29 OFFCURVE",
"960 25 CURVE SMOOTH",
"960 708 LINE SMOOTH",
"960 762 OFFCURVE",
"916 806 OFFCURVE",
"862 806 CURVE SMOOTH"
);
},
{
closed = 1;
nodes = (
"902 784 OFFCURVE",
"938 748 OFFCURVE",
"938 705 CURVE SMOOTH",
"938 28 LINE SMOOTH",
"938 -15 OFFCURVE",
"902 -52 OFFCURVE",
"859 -52 CURVE SMOOTH",
"142 -52 LINE SMOOTH",
"99 -52 OFFCURVE",
"62 -15 OFFCURVE",
"62 28 CURVE SMOOTH",
"62 705 LINE SMOOTH",
"62 748 OFFCURVE",
"99 784 OFFCURVE",
"142 784 CURVE SMOOTH",
"859 784 LINE SMOOTH"
);
},
{
closed = 1;
nodes = (
"266 185 LINE",
"266 97 LINE SMOOTH",
"266 92 OFFCURVE",
"270 88 OFFCURVE",
"275 88 CURVE SMOOTH",
"340 88 LINE SMOOTH",
"346 88 OFFCURVE",
"350 92 OFFCURVE",
"350 97 CURVE SMOOTH",
"350 185 LINE"
);
},
{
closed = 1;
nodes = (
"342 238 OFFCURVE",
"362 258 OFFCURVE",
"362 284 CURVE SMOOTH",
"362 309 OFFCURVE",
"342 329 OFFCURVE",
"317 329 CURVE SMOOTH",
"292 329 OFFCURVE",
"272 309 OFFCURVE",
"272 284 CURVE SMOOTH",
"272 258 OFFCURVE",
"292 238 OFFCURVE",
"317 238 CURVE SMOOTH"
);
},
{
closed = 1;
nodes = (
"655 97 LINE SMOOTH",
"655 92 OFFCURVE",
"659 88 OFFCURVE",
"665 88 CURVE SMOOTH",
"730 88 LINE SMOOTH",
"735 88 OFFCURVE",
"739 92 OFFCURVE",
"739 97 CURVE SMOOTH",
"739 185 LINE",
"655 185 LINE"
);
},
{
closed = 1;
nodes = (
"713 238 OFFCURVE",
"733 258 OFFCURVE",
"733 284 CURVE SMOOTH",
"733 309 OFFCURVE",
"713 329 OFFCURVE",
"688 329 CURVE SMOOTH",
"663 329 OFFCURVE",
"643 309 OFFCURVE",
"643 284 CURVE SMOOTH",
"643 258 OFFCURVE",
"663 238 OFFCURVE",
"688 238 CURVE SMOOTH"
);
},
{
closed = 1;
nodes = (
"271 560 LINE",
"260 397 LINE",
"745 397 LINE",
"734 560 LINE"
);
},
{
closed = 1;
nodes = (
"760 592 LINE",
"602 592 LINE",
"602 645 LINE",
"403 645 LINE",
"403 592 LINE",
"245 592 LINE",
"231 397 LINE",
"194 397 LINE",
"194 160 LINE",
"811 160 LINE",
"811 397 LINE",
"774 397 LINE"
);
},
{
closed = 1;
nodes = (
"400 310 LINE",
"400 290 LINE",
"605 290 LINE",
"605 310 LINE"
);
},
{
closed = 1;
nodes = (
"400 265 LINE",
"400 245 LINE",
"605 245 LINE",
"605 265 LINE"
);
}
);
width = 1000;
},
{
associatedMasterId = "9E4B8FD8-F8AF-4AA7-8E0D-0C907FFB2BDD";
background = {
paths = (
{
closed = 1;
nodes = (
"264 591 LINE SMOOTH",
"257 591 OFFCURVE",
"252 586 OFFCURVE",
"252 579 CURVE SMOOTH",
"252 157 LINE SMOOTH",
"252 150 OFFCURVE",
"257 145 OFFCURVE",
"264 145 CURVE SMOOTH",
"824 145 LINE SMOOTH",
"831 145 OFFCURVE",
"836 150 OFFCURVE",
"836 157 CURVE SMOOTH",
"836 579 LINE SMOOTH",
"836 586 OFFCURVE",
"831 591 OFFCURVE",
"824 591 CURVE SMOOTH"
);
},
{
closed = 1;
nodes = (
"530 350 OFFCURVE",
"516 355 OFFCURVE",
"505 366 CURVE SMOOTH",
"324 549 LINE",
"764 549 LINE",
"583 366 LINE SMOOTH",
"572 355 OFFCURVE",
"557 350 OFFCURVE",
"544 350 CURVE SMOOTH"
);
},
{
closed = 1;
nodes = (
"323 187 LINE",
"474 337 LINE",
"494 317 OFFCURVE",
"519 306 OFFCURVE",
"544 306 CURVE SMOOTH",
"569 306 OFFCURVE",
"594 317 OFFCURVE",
"614 337 CURVE",
"765 187 LINE"
);
},
{
closed = 1;
nodes = (
"444 368 LINE",
"294 217 LINE",
"294 518 LINE"
);
},
{
closed = 1;
nodes = (
"794 217 LINE",
"644 368 LINE",
"794 518 LINE"
);
}
);
};
components = (
{
name = largecircle;
transform = "{1, 0, 0, 1, 10, 0}";
}
);
layerId = "955B2AA2-27DD-425E-8ACF-510DB3712361";
name = "Nov 14 17, 19:32";
paths = (
{
closed = 1;
nodes = (
"264 145 LINE SMOOTH",
"257 145 OFFCURVE",
"252 150 OFFCURVE",
"252 157 CURVE SMOOTH",
"252 579 LINE SMOOTH",
"252 586 OFFCURVE",
"257 591 OFFCURVE",
"264 591 CURVE SMOOTH",
"824 591 LINE SMOOTH",
"831 591 OFFCURVE",
"836 586 OFFCURVE",
"836 579 CURVE SMOOTH",
"836 157 LINE SMOOTH",
"836 150 OFFCURVE",
"831 145 OFFCURVE",
"824 145 CURVE SMOOTH"
);
},
{
closed = 1;
nodes = (
"298 563 LINE",
"536 338 LINE SMOOTH",
"541 333 OFFCURVE",
"547 333 OFFCURVE",
"552 338 CURVE SMOOTH",
"790 563 LINE"
);
},
{
closed = 1;
nodes = (
"480 345 LINE",
"300 173 LINE",
"788 173 LINE",
"607 347 LINE",
"552 297 LINE SMOOTH",
"547 292 OFFCURVE",
"540 292 OFFCURVE",
"535 297 CURVE SMOOTH"
);
},
{
closed = 1;
nodes = (
"280 196 LINE",
"458 368 LINE",
"280 537 LINE"
);
},
{
closed = 1;
nodes = (
"630 368 LINE",
"808 196 LINE",
"808 537 LINE"
);
}
);
width = 1088;
}
);
unicode = 0057;
},
{
glyphname = X;
lastChange = "2018-03-12 12:07:02 +0000";
layers = (
{
components = (
{
name = blackLargeCircle;
}
);
layerId = "9E4B8FD8-F8AF-4AA7-8E0D-0C907FFB2BDD";
paths = (
{
closed = 1;
nodes = (
"324 544 LINE",
"744 544 LINE",
"542 358 LINE SMOOTH",
"537 353 OFFCURVE",
"532 353 OFFCURVE",
"526 358 CURVE SMOOTH"
);
},
{
closed = 1;
nodes = (
"531 289 OFFCURVE",
"537 289 OFFCURVE",
"542 294 CURVE SMOOTH",
"592 337 LINE",
"744 192 LINE",
"324 192 LINE",
"476 337 LINE",
"526 294 LINE SMOOTH"
);
},
{
closed = 1;
nodes = (
"439 370 LINE",
"289 225 LINE",
"289 511 LINE"
);
},
{
closed = 1;
nodes = (
"814 145 LINE SMOOTH",
"821 145 OFFCURVE",
"826 150 OFFCURVE",
"826 157 CURVE SMOOTH",
"826 579 LINE SMOOTH",
"826 586 OFFCURVE",
"821 591 OFFCURVE",
"814 591 CURVE SMOOTH",
"254 591 LINE SMOOTH",
"247 591 OFFCURVE",
"242 586 OFFCURVE",
"242 579 CURVE SMOOTH",
"242 157 LINE SMOOTH",
"242 150 OFFCURVE",
"247 145 OFFCURVE",
"254 145 CURVE SMOOTH"
);
},
{
closed = 1;
nodes = (
"779 225 LINE",
"629 370 LINE",
"779 511 LINE"
);
}
);
width = 1068;
}
);
unicode = 0058;
},
{
glyphname = Y;
lastChange = "2018-03-12 12:07:02 +0000";
layers = (
{
background = {
paths = (
{
closed = 1;
nodes = (
"255 145 LINE SMOOTH",
"248 145 OFFCURVE",
"243 150 OFFCURVE",
"243 157 CURVE SMOOTH",
"243 579 LINE SMOOTH",
"243 586 OFFCURVE",
"248 591 OFFCURVE",
"255 591 CURVE SMOOTH",
"815 591 LINE SMOOTH",
"822 591 OFFCURVE",
"827 586 OFFCURVE",
"827 579 CURVE SMOOTH",
"827 157 LINE SMOOTH",
"827 150 OFFCURVE",
"822 145 OFFCURVE",
"815 145 CURVE SMOOTH"
);
},
{
closed = 1;
nodes = (
"287 561 LINE",
"527 338 LINE SMOOTH",
"532 333 OFFCURVE",
"538 333 OFFCURVE",
"543 338 CURVE SMOOTH",
"783 561 LINE"
);
},
{
closed = 1;
nodes = (
"471 345 LINE",
"285 175 LINE",
"785 175 LINE",
"598 347 LINE",
"543 297 LINE SMOOTH",
"538 292 OFFCURVE",
"531 292 OFFCURVE",
"526 297 CURVE SMOOTH"
);
},
{
closed = 1;
nodes = (
"273 206 LINE",
"449 368 LINE",
"273 533 LINE"
);
},
{
closed = 1;
nodes = (
"621 368 LINE",
"797 206 LINE",
"797 533 LINE"
);
}
);
};
guideLines = (
{
angle = 90;
position = "{535, 576}";
}
);
layerId = "9E4B8FD8-F8AF-4AA7-8E0D-0C907FFB2BDD";
paths = (
{
closed = 1;
nodes = (
"532 353 OFFCURVE",
"537 353 OFFCURVE",
"542 358 CURVE SMOOTH",
"744 544 LINE",
"324 544 LINE",
"526 358 LINE SMOOTH"
);
},
{
closed = 1;
nodes = (
"476 337 LINE",
"324 192 LINE",
"744 192 LINE",
"592 337 LINE",
"542 294 LINE SMOOTH",
"537 289 OFFCURVE",
"531 289 OFFCURVE",
"526 294 CURVE SMOOTH"
);
},
{
closed = 1;
nodes = (
"289 225 LINE",
"439 370 LINE",
"289 511 LINE"
);
},
{
closed = 1;
nodes = (
"247 145 OFFCURVE",
"242 150 OFFCURVE",
"242 157 CURVE SMOOTH",
"242 579 LINE SMOOTH",
"242 586 OFFCURVE",
"247 591 OFFCURVE",
"254 591 CURVE SMOOTH",
"814 591 LINE SMOOTH",
"821 591 OFFCURVE",
"826 586 OFFCURVE",
"826 579 CURVE SMOOTH",
"826 157 LINE SMOOTH",
"826 150 OFFCURVE",
"821 145 OFFCURVE",
"814 145 CURVE SMOOTH",
"254 145 LINE SMOOTH"
);
},
{
closed = 1;
nodes = (
"629 370 LINE",
"779 225 LINE",
"779 511 LINE"
);
}
);
width = 1068;
},
{
associatedMasterId = "9E4B8FD8-F8AF-4AA7-8E0D-0C907FFB2BDD";
background = {
paths = (
{
closed = 1;
nodes = (
"139 806 LINE SMOOTH",
"85 806 OFFCURVE",
"40 762 OFFCURVE",
"40 708 CURVE SMOOTH",
"40 25 LINE SMOOTH",
"40 -29 OFFCURVE",
"85 -74 OFFCURVE",
"139 -74 CURVE SMOOTH",
"862 -74 LINE SMOOTH",
"916 -74 OFFCURVE",
"960 -29 OFFCURVE",
"960 25 CURVE SMOOTH",
"960 708 LINE SMOOTH",
"960 762 OFFCURVE",
"916 806 OFFCURVE",
"862 806 CURVE SMOOTH"
);
},
{
closed = 1;
nodes = (
"902 784 OFFCURVE",
"938 748 OFFCURVE",
"938 705 CURVE SMOOTH",
"938 28 LINE SMOOTH",
"938 -15 OFFCURVE",
"902 -52 OFFCURVE",
"859 -52 CURVE SMOOTH",
"142 -52 LINE SMOOTH",
"99 -52 OFFCURVE",
"62 -15 OFFCURVE",
"62 28 CURVE SMOOTH",
"62 705 LINE SMOOTH",
"62 748 OFFCURVE",
"99 784 OFFCURVE",
"142 784 CURVE SMOOTH",
"859 784 LINE SMOOTH"
);
},
{
closed = 1;
nodes = (
"266 185 LINE",
"266 97 LINE SMOOTH",
"266 92 OFFCURVE",
"270 88 OFFCURVE",
"275 88 CURVE SMOOTH",
"340 88 LINE SMOOTH",
"346 88 OFFCURVE",
"350 92 OFFCURVE",
"350 97 CURVE SMOOTH",
"350 185 LINE"
);
},
{
closed = 1;
nodes = (
"342 238 OFFCURVE",
"362 258 OFFCURVE",
"362 284 CURVE SMOOTH",
"362 309 OFFCURVE",
"342 329 OFFCURVE",
"317 329 CURVE SMOOTH",
"292 329 OFFCURVE",
"272 309 OFFCURVE",
"272 284 CURVE SMOOTH",
"272 258 OFFCURVE",
"292 238 OFFCURVE",
"317 238 CURVE SMOOTH"
);
},
{
closed = 1;
nodes = (
"655 97 LINE SMOOTH",
"655 92 OFFCURVE",
"659 88 OFFCURVE",
"665 88 CURVE SMOOTH",
"730 88 LINE SMOOTH",
"735 88 OFFCURVE",
"739 92 OFFCURVE",
"739 97 CURVE SMOOTH",
"739 185 LINE",
"655 185 LINE"
);
},
{
closed = 1;
nodes = (
"713 238 OFFCURVE",
"733 258 OFFCURVE",
"733 284 CURVE SMOOTH",
"733 309 OFFCURVE",
"713 329 OFFCURVE",
"688 329 CURVE SMOOTH",
"663 329 OFFCURVE",
"643 309 OFFCURVE",
"643 284 CURVE SMOOTH",
"643 258 OFFCURVE",
"663 238 OFFCURVE",
"688 238 CURVE SMOOTH"
);
},
{
closed = 1;
nodes = (
"271 560 LINE",
"260 397 LINE",
"745 397 LINE",
"734 560 LINE"
);
},
{
closed = 1;
nodes = (
"760 592 LINE",
"602 592 LINE",
"602 645 LINE",
"403 645 LINE",
"403 592 LINE",
"245 592 LINE",
"231 397 LINE",
"194 397 LINE",
"194 160 LINE",
"811 160 LINE",
"811 397 LINE",
"774 397 LINE"
);
},
{
closed = 1;
nodes = (
"400 310 LINE",
"400 290 LINE",
"605 290 LINE",
"605 310 LINE"
);
},
{
closed = 1;
nodes = (
"400 265 LINE",
"400 245 LINE",
"605 245 LINE",
"605 265 LINE"
);
}
);
};
layerId = "346C0EA8-9638-4244-B17D-E97A86FA40DB";
name = "Sep 8 17, 13:27";
paths = (
{
closed = 1;
nodes = (
"139 806 LINE SMOOTH",
"85 806 OFFCURVE",
"40 762 OFFCURVE",
"40 708 CURVE SMOOTH",
"40 25 LINE SMOOTH",
"40 -29 OFFCURVE",
"85 -74 OFFCURVE",
"139 -74 CURVE SMOOTH",
"862 -74 LINE SMOOTH",
"916 -74 OFFCURVE",
"960 -29 OFFCURVE",
"960 25 CURVE SMOOTH",
"960 708 LINE SMOOTH",
"960 762 OFFCURVE",
"916 806 OFFCURVE",
"862 806 CURVE SMOOTH"
);
},
{
closed = 1;
nodes = (
"902 784 OFFCURVE",
"938 748 OFFCURVE",
"938 705 CURVE SMOOTH",
"938 28 LINE SMOOTH",
"938 -15 OFFCURVE",
"902 -52 OFFCURVE",
"859 -52 CURVE SMOOTH",
"142 -52 LINE SMOOTH",
"99 -52 OFFCURVE",
"62 -15 OFFCURVE",
"62 28 CURVE SMOOTH",
"62 705 LINE SMOOTH",
"62 748 OFFCURVE",
"99 784 OFFCURVE",
"142 784 CURVE SMOOTH",
"859 784 LINE SMOOTH"
);
},
{
closed = 1;
nodes = (
"266 185 LINE",
"266 97 LINE SMOOTH",
"266 92 OFFCURVE",
"270 88 OFFCURVE",
"275 88 CURVE SMOOTH",
"340 88 LINE SMOOTH",
"346 88 OFFCURVE",
"350 92 OFFCURVE",
"350 97 CURVE SMOOTH",
"350 185 LINE"
);
},
{
closed = 1;
nodes = (
"342 238 OFFCURVE",
"362 258 OFFCURVE",
"362 284 CURVE SMOOTH",
"362 309 OFFCURVE",
"342 329 OFFCURVE",
"317 329 CURVE SMOOTH",
"292 329 OFFCURVE",
"272 309 OFFCURVE",
"272 284 CURVE SMOOTH",
"272 258 OFFCURVE",
"292 238 OFFCURVE",
"317 238 CURVE SMOOTH"
);
},
{
closed = 1;
nodes = (
"655 97 LINE SMOOTH",
"655 92 OFFCURVE",
"659 88 OFFCURVE",
"665 88 CURVE SMOOTH",
"730 88 LINE SMOOTH",
"735 88 OFFCURVE",
"739 92 OFFCURVE",
"739 97 CURVE SMOOTH",
"739 185 LINE",
"655 185 LINE"
);
},
{
closed = 1;
nodes = (
"713 238 OFFCURVE",
"733 258 OFFCURVE",
"733 284 CURVE SMOOTH",
"733 309 OFFCURVE",
"713 329 OFFCURVE",
"688 329 CURVE SMOOTH",
"663 329 OFFCURVE",
"643 309 OFFCURVE",
"643 284 CURVE SMOOTH",
"643 258 OFFCURVE",
"663 238 OFFCURVE",
"688 238 CURVE SMOOTH"
);
},
{
closed = 1;
nodes = (
"271 560 LINE",
"260 397 LINE",
"745 397 LINE",
"734 560 LINE"
);
},
{
closed = 1;
nodes = (
"760 592 LINE",
"602 592 LINE",
"602 645 LINE",
"403 645 LINE",
"403 592 LINE",
"245 592 LINE",
"231 397 LINE",
"194 397 LINE",
"194 160 LINE",
"811 160 LINE",
"811 397 LINE",
"774 397 LINE"
);
},
{
closed = 1;
nodes = (
"400 310 LINE",
"400 290 LINE",
"605 290 LINE",
"605 310 LINE"
);
},
{
closed = 1;
nodes = (
"400 265 LINE",
"400 245 LINE",
"605 245 LINE",
"605 265 LINE"
);
}
);
width = 1000;
},
{
associatedMasterId = "9E4B8FD8-F8AF-4AA7-8E0D-0C907FFB2BDD";
background = {
paths = (
{
closed = 1;
nodes = (
"264 591 LINE SMOOTH",
"257 591 OFFCURVE",
"252 586 OFFCURVE",
"252 579 CURVE SMOOTH",
"252 157 LINE SMOOTH",
"252 150 OFFCURVE",
"257 145 OFFCURVE",
"264 145 CURVE SMOOTH",
"824 145 LINE SMOOTH",
"831 145 OFFCURVE",
"836 150 OFFCURVE",
"836 157 CURVE SMOOTH",
"836 579 LINE SMOOTH",
"836 586 OFFCURVE",
"831 591 OFFCURVE",
"824 591 CURVE SMOOTH"
);
},
{
closed = 1;
nodes = (
"530 350 OFFCURVE",
"516 355 OFFCURVE",
"505 366 CURVE SMOOTH",
"324 549 LINE",
"764 549 LINE",
"583 366 LINE SMOOTH",
"572 355 OFFCURVE",
"557 350 OFFCURVE",
"544 350 CURVE SMOOTH"
);
},
{
closed = 1;
nodes = (
"323 187 LINE",
"474 337 LINE",
"494 317 OFFCURVE",
"519 306 OFFCURVE",
"544 306 CURVE SMOOTH",
"569 306 OFFCURVE",
"594 317 OFFCURVE",
"614 337 CURVE",
"765 187 LINE"
);
},
{
closed = 1;
nodes = (
"444 368 LINE",
"294 217 LINE",
"294 518 LINE"
);
},
{
closed = 1;
nodes = (
"794 217 LINE",
"644 368 LINE",
"794 518 LINE"
);
}
);
};
components = (
{
name = largecircle;
transform = "{1, 0, 0, 1, 10, 0}";
}
);
layerId = "955B2AA2-27DD-425E-8ACF-510DB3712361";
name = "Nov 14 17, 19:32";
paths = (
{
closed = 1;
nodes = (
"264 145 LINE SMOOTH",
"257 145 OFFCURVE",
"252 150 OFFCURVE",
"252 157 CURVE SMOOTH",
"252 579 LINE SMOOTH",
"252 586 OFFCURVE",
"257 591 OFFCURVE",
"264 591 CURVE SMOOTH",
"824 591 LINE SMOOTH",
"831 591 OFFCURVE",
"836 586 OFFCURVE",
"836 579 CURVE SMOOTH",
"836 157 LINE SMOOTH",
"836 150 OFFCURVE",
"831 145 OFFCURVE",
"824 145 CURVE SMOOTH"
);
},
{
closed = 1;
nodes = (
"298 563 LINE",
"536 338 LINE SMOOTH",
"541 333 OFFCURVE",
"547 333 OFFCURVE",
"552 338 CURVE SMOOTH",
"790 563 LINE"
);
},
{
closed = 1;
nodes = (
"480 345 LINE",
"300 173 LINE",
"788 173 LINE",
"607 347 LINE",
"552 297 LINE SMOOTH",
"547 292 OFFCURVE",
"540 292 OFFCURVE",
"535 297 CURVE SMOOTH"
);
},
{
closed = 1;
nodes = (
"280 196 LINE",
"458 368 LINE",
"280 537 LINE"
);
},
{
closed = 1;
nodes = (
"630 368 LINE",
"808 196 LINE",
"808 537 LINE"
);
}
);
width = 1088;
}
);
unicode = 0059;
},
{
glyphname = Z;
lastChange = "2018-03-12 12:07:02 +0000";
layers = (
{
components = (
{
name = whiteRoundedCornersSquare;
}
);
layerId = "9E4B8FD8-F8AF-4AA7-8E0D-0C907FFB2BDD";
paths = (
{
closed = 1;
nodes = (
"488 645 OFFCURVE",
"448 627 OFFCURVE",
"413 627 CURVE SMOOTH",
"382 627 OFFCURVE",
"347 637 OFFCURVE",
"317 663 CURVE SMOOTH",
"310 669 OFFCURVE",
"302 668 OFFCURVE",
"296 662 CURVE SMOOTH",
"258 624 LINE SMOOTH",
"252 618 OFFCURVE",
"251 609 OFFCURVE",
"256 602 CURVE SMOOTH",
"348 473 OFFCURVE",
"252 394 OFFCURVE",
"252 276 CURVE SMOOTH",
"252 112 OFFCURVE",
"412 45 OFFCURVE",
"524 -3 CURVE SMOOTH",
"531 -6 OFFCURVE",
"537 -6 OFFCURVE",
"544 -3 CURVE SMOOTH",
"656 45 OFFCURVE",
"816 112 OFFCURVE",
"816 276 CURVE SMOOTH",
"816 394 OFFCURVE",
"720 473 OFFCURVE",
"812 602 CURVE SMOOTH",
"817 609 OFFCURVE",
"816 618 OFFCURVE",
"810 624 CURVE SMOOTH",
"772 662 LINE SMOOTH",
"766 668 OFFCURVE",
"758 669 OFFCURVE",
"751 663 CURVE SMOOTH",
"721 637 OFFCURVE",
"686 627 OFFCURVE",
"655 627 CURVE SMOOTH",
"620 627 OFFCURVE",
"578 642 OFFCURVE",
"545 667 CURVE SMOOTH",
"537 673 OFFCURVE",
"531 672 OFFCURVE",
"523 667 CURVE SMOOTH"
);
},
{
closed = 1;
nodes = (
"586 431 LINE SMOOTH",
"589 426 OFFCURVE",
"593 423 OFFCURVE",
"599 422 CURVE SMOOTH",
"699 408 LINE SMOOTH",
"709 407 OFFCURVE",
"711 399 OFFCURVE",
"704 392 CURVE SMOOTH",
"632 321 LINE SMOOTH",
"628 317 OFFCURVE",
"626 313 OFFCURVE",
"627 306 CURVE SMOOTH",
"644 207 LINE SMOOTH",
"646 197 OFFCURVE",
"640 193 OFFCURVE",
"631 198 CURVE SMOOTH",
"541 245 LINE SMOOTH",
"536 248 OFFCURVE",
"530 248 OFFCURVE",
"525 245 CURVE SMOOTH",
"436 198 LINE SMOOTH",
"427 193 OFFCURVE",
"421 197 OFFCURVE",
"423 207 CURVE SMOOTH",
"440 306 LINE SMOOTH",
"441 313 OFFCURVE",
"439 317 OFFCURVE",
"435 321 CURVE SMOOTH",
"363 392 LINE SMOOTH",
"356 399 OFFCURVE",
"358 406 OFFCURVE",
"368 408 CURVE SMOOTH",
"468 422 LINE SMOOTH",
"474 423 OFFCURVE",
"478 426 OFFCURVE",
"481 431 CURVE SMOOTH",
"525 521 LINE SMOOTH",
"529 530 OFFCURVE",
"537 530 OFFCURVE",
"541 521 CURVE SMOOTH"
);
}
);
width = 1068;
},
{
associatedMasterId = "9E4B8FD8-F8AF-4AA7-8E0D-0C907FFB2BDD";
background = {
paths = (
{
closed = 1;
nodes = (
"139 806 LINE SMOOTH",
"85 806 OFFCURVE",
"40 762 OFFCURVE",
"40 708 CURVE SMOOTH",
"40 25 LINE SMOOTH",
"40 -29 OFFCURVE",
"85 -74 OFFCURVE",
"139 -74 CURVE SMOOTH",
"862 -74 LINE SMOOTH",
"916 -74 OFFCURVE",
"960 -29 OFFCURVE",
"960 25 CURVE SMOOTH",
"960 708 LINE SMOOTH",
"960 762 OFFCURVE",
"916 806 OFFCURVE",
"862 806 CURVE SMOOTH"
);
},
{
closed = 1;
nodes = (
"902 784 OFFCURVE",
"938 748 OFFCURVE",
"938 705 CURVE SMOOTH",
"938 28 LINE SMOOTH",
"938 -15 OFFCURVE",
"902 -52 OFFCURVE",
"859 -52 CURVE SMOOTH",
"142 -52 LINE SMOOTH",
"99 -52 OFFCURVE",
"62 -15 OFFCURVE",
"62 28 CURVE SMOOTH",
"62 705 LINE SMOOTH",
"62 748 OFFCURVE",
"99 784 OFFCURVE",
"142 784 CURVE SMOOTH",
"859 784 LINE SMOOTH"
);
},
{
closed = 1;
nodes = (
"266 185 LINE",
"266 97 LINE SMOOTH",
"266 92 OFFCURVE",
"270 88 OFFCURVE",
"275 88 CURVE SMOOTH",
"340 88 LINE SMOOTH",
"346 88 OFFCURVE",
"350 92 OFFCURVE",
"350 97 CURVE SMOOTH",
"350 185 LINE"
);
},
{
closed = 1;
nodes = (
"342 238 OFFCURVE",
"362 258 OFFCURVE",
"362 284 CURVE SMOOTH",
"362 309 OFFCURVE",
"342 329 OFFCURVE",
"317 329 CURVE SMOOTH",
"292 329 OFFCURVE",
"272 309 OFFCURVE",
"272 284 CURVE SMOOTH",
"272 258 OFFCURVE",
"292 238 OFFCURVE",
"317 238 CURVE SMOOTH"
);
},
{
closed = 1;
nodes = (
"655 97 LINE SMOOTH",
"655 92 OFFCURVE",
"659 88 OFFCURVE",
"665 88 CURVE SMOOTH",
"730 88 LINE SMOOTH",
"735 88 OFFCURVE",
"739 92 OFFCURVE",
"739 97 CURVE SMOOTH",
"739 185 LINE",
"655 185 LINE"
);
},
{
closed = 1;
nodes = (
"713 238 OFFCURVE",
"733 258 OFFCURVE",
"733 284 CURVE SMOOTH",
"733 309 OFFCURVE",
"713 329 OFFCURVE",
"688 329 CURVE SMOOTH",
"663 329 OFFCURVE",
"643 309 OFFCURVE",
"643 284 CURVE SMOOTH",
"643 258 OFFCURVE",
"663 238 OFFCURVE",
"688 238 CURVE SMOOTH"
);
},
{
closed = 1;
nodes = (
"271 560 LINE",
"260 397 LINE",
"745 397 LINE",
"734 560 LINE"
);
},
{
closed = 1;
nodes = (
"760 592 LINE",
"602 592 LINE",
"602 645 LINE",
"403 645 LINE",
"403 592 LINE",
"245 592 LINE",
"231 397 LINE",
"194 397 LINE",
"194 160 LINE",
"811 160 LINE",
"811 397 LINE",
"774 397 LINE"
);
},
{
closed = 1;
nodes = (
"400 310 LINE",
"400 290 LINE",
"605 290 LINE",
"605 310 LINE"
);
},
{
closed = 1;
nodes = (
"400 265 LINE",
"400 245 LINE",
"605 245 LINE",
"605 265 LINE"
);
}
);
};
layerId = "346C0EA8-9638-4244-B17D-E97A86FA40DB";
name = "Sep 8 17, 13:27";
paths = (
{
closed = 1;
nodes = (
"139 806 LINE SMOOTH",
"85 806 OFFCURVE",
"40 762 OFFCURVE",
"40 708 CURVE SMOOTH",
"40 25 LINE SMOOTH",
"40 -29 OFFCURVE",
"85 -74 OFFCURVE",
"139 -74 CURVE SMOOTH",
"862 -74 LINE SMOOTH",
"916 -74 OFFCURVE",
"960 -29 OFFCURVE",
"960 25 CURVE SMOOTH",
"960 708 LINE SMOOTH",
"960 762 OFFCURVE",
"916 806 OFFCURVE",
"862 806 CURVE SMOOTH"
);
},
{
closed = 1;
nodes = (
"902 784 OFFCURVE",
"938 748 OFFCURVE",
"938 705 CURVE SMOOTH",
"938 28 LINE SMOOTH",
"938 -15 OFFCURVE",
"902 -52 OFFCURVE",
"859 -52 CURVE SMOOTH",
"142 -52 LINE SMOOTH",
"99 -52 OFFCURVE",
"62 -15 OFFCURVE",
"62 28 CURVE SMOOTH",
"62 705 LINE SMOOTH",
"62 748 OFFCURVE",
"99 784 OFFCURVE",
"142 784 CURVE SMOOTH",
"859 784 LINE SMOOTH"
);
},
{
closed = 1;
nodes = (
"266 185 LINE",
"266 97 LINE SMOOTH",
"266 92 OFFCURVE",
"270 88 OFFCURVE",
"275 88 CURVE SMOOTH",
"340 88 LINE SMOOTH",
"346 88 OFFCURVE",
"350 92 OFFCURVE",
"350 97 CURVE SMOOTH",
"350 185 LINE"
);
},
{
closed = 1;
nodes = (
"342 238 OFFCURVE",
"362 258 OFFCURVE",
"362 284 CURVE SMOOTH",
"362 309 OFFCURVE",
"342 329 OFFCURVE",
"317 329 CURVE SMOOTH",
"292 329 OFFCURVE",
"272 309 OFFCURVE",
"272 284 CURVE SMOOTH",
"272 258 OFFCURVE",
"292 238 OFFCURVE",
"317 238 CURVE SMOOTH"
);
},
{
closed = 1;
nodes = (
"655 97 LINE SMOOTH",
"655 92 OFFCURVE",
"659 88 OFFCURVE",
"665 88 CURVE SMOOTH",
"730 88 LINE SMOOTH",
"735 88 OFFCURVE",
"739 92 OFFCURVE",
"739 97 CURVE SMOOTH",
"739 185 LINE",
"655 185 LINE"
);
},
{
closed = 1;
nodes = (
"713 238 OFFCURVE",
"733 258 OFFCURVE",
"733 284 CURVE SMOOTH",
"733 309 OFFCURVE",
"713 329 OFFCURVE",
"688 329 CURVE SMOOTH",
"663 329 OFFCURVE",
"643 309 OFFCURVE",
"643 284 CURVE SMOOTH",
"643 258 OFFCURVE",
"663 238 OFFCURVE",
"688 238 CURVE SMOOTH"
);
},
{
closed = 1;
nodes = (
"271 560 LINE",
"260 397 LINE",
"745 397 LINE",
"734 560 LINE"
);
},
{
closed = 1;
nodes = (
"760 592 LINE",
"602 592 LINE",
"602 645 LINE",
"403 645 LINE",
"403 592 LINE",
"245 592 LINE",
"231 397 LINE",
"194 397 LINE",
"194 160 LINE",
"811 160 LINE",
"811 397 LINE",
"774 397 LINE"
);
},
{
closed = 1;
nodes = (
"400 310 LINE",
"400 290 LINE",
"605 290 LINE",
"605 310 LINE"
);
},
{
closed = 1;
nodes = (
"400 265 LINE",
"400 245 LINE",
"605 245 LINE",
"605 265 LINE"
);
}
);
width = 1000;
}
);
unicode = 005A;
},
{
glyphname = a;
lastChange = "2018-03-12 12:07:02 +0000";
layers = (
{
layerId = "9E4B8FD8-F8AF-4AA7-8E0D-0C907FFB2BDD";
paths = (
{
closed = 1;
nodes = (
"489 645 OFFCURVE",
"449 627 OFFCURVE",
"414 627 CURVE SMOOTH",
"383 627 OFFCURVE",
"348 637 OFFCURVE",
"318 663 CURVE SMOOTH",
"311 669 OFFCURVE",
"303 668 OFFCURVE",
"297 662 CURVE SMOOTH",
"259 624 LINE SMOOTH",
"253 618 OFFCURVE",
"252 609 OFFCURVE",
"257 602 CURVE SMOOTH",
"349 473 OFFCURVE",
"253 394 OFFCURVE",
"253 276 CURVE SMOOTH",
"253 112 OFFCURVE",
"413 45 OFFCURVE",
"525 -3 CURVE SMOOTH",
"532 -6 OFFCURVE",
"538 -6 OFFCURVE",
"545 -3 CURVE SMOOTH",
"657 45 OFFCURVE",
"817 112 OFFCURVE",
"817 276 CURVE SMOOTH",
"817 394 OFFCURVE",
"721 473 OFFCURVE",
"813 602 CURVE SMOOTH",
"818 609 OFFCURVE",
"817 618 OFFCURVE",
"811 624 CURVE SMOOTH",
"773 662 LINE SMOOTH",
"767 668 OFFCURVE",
"759 669 OFFCURVE",
"752 663 CURVE SMOOTH",
"722 637 OFFCURVE",
"687 627 OFFCURVE",
"656 627 CURVE SMOOTH",
"621 627 OFFCURVE",
"579 642 OFFCURVE",
"546 667 CURVE SMOOTH",
"538 673 OFFCURVE",
"532 672 OFFCURVE",
"524 667 CURVE SMOOTH"
);
},
{
closed = 1;
nodes = (
"587 431 LINE SMOOTH",
"590 426 OFFCURVE",
"594 423 OFFCURVE",
"600 422 CURVE SMOOTH",
"700 408 LINE SMOOTH",
"710 407 OFFCURVE",
"712 399 OFFCURVE",
"705 392 CURVE SMOOTH",
"633 321 LINE SMOOTH",
"629 317 OFFCURVE",
"627 313 OFFCURVE",
"628 306 CURVE SMOOTH",
"645 207 LINE SMOOTH",
"647 197 OFFCURVE",
"641 193 OFFCURVE",
"632 198 CURVE SMOOTH",
"542 245 LINE SMOOTH",
"537 248 OFFCURVE",
"531 248 OFFCURVE",
"526 245 CURVE SMOOTH",
"437 198 LINE SMOOTH",
"428 193 OFFCURVE",
"422 197 OFFCURVE",
"424 207 CURVE SMOOTH",
"441 306 LINE SMOOTH",
"442 313 OFFCURVE",
"440 317 OFFCURVE",
"436 321 CURVE SMOOTH",
"364 392 LINE SMOOTH",
"357 399 OFFCURVE",
"359 406 OFFCURVE",
"369 408 CURVE SMOOTH",
"469 422 LINE SMOOTH",
"475 423 OFFCURVE",
"479 426 OFFCURVE",
"482 431 CURVE SMOOTH",
"526 521 LINE SMOOTH",
"530 530 OFFCURVE",
"538 530 OFFCURVE",
"542 521 CURVE SMOOTH"
);
},
{
closed = 1;
nodes = (
"959 791 OFFCURVE",
"994 756 OFFCURVE",
"994 692 CURVE SMOOTH",
"994 24 LINE SMOOTH",
"994 -40 OFFCURVE",
"959 -75 OFFCURVE",
"895 -75 CURVE SMOOTH",
"174 -75 LINE SMOOTH",
"110 -75 OFFCURVE",
"75 -40 OFFCURVE",
"75 24 CURVE SMOOTH",
"75 692 LINE SMOOTH",
"75 756 OFFCURVE",
"110 791 OFFCURVE",
"174 791 CURVE SMOOTH",
"895 791 LINE SMOOTH"
);
}
);
width = 1068;
}
);
unicode = 0061;
},
{
glyphname = aacute;
lastChange = "2018-03-12 12:07:02 +0000";
layers = (
{
components = (
{
name = largecircle;
}
);
layerId = "9E4B8FD8-F8AF-4AA7-8E0D-0C907FFB2BDD";
paths = (
{
closed = 1;
nodes = (
"488 645 OFFCURVE",
"448 627 OFFCURVE",
"413 627 CURVE SMOOTH",
"382 627 OFFCURVE",
"347 637 OFFCURVE",
"317 663 CURVE SMOOTH",
"310 669 OFFCURVE",
"302 668 OFFCURVE",
"296 662 CURVE SMOOTH",
"258 624 LINE SMOOTH",
"252 618 OFFCURVE",
"251 609 OFFCURVE",
"256 602 CURVE SMOOTH",
"348 473 OFFCURVE",
"252 394 OFFCURVE",
"252 276 CURVE SMOOTH",
"252 112 OFFCURVE",
"412 45 OFFCURVE",
"524 -3 CURVE SMOOTH",
"531 -6 OFFCURVE",
"537 -6 OFFCURVE",
"544 -3 CURVE SMOOTH",
"656 45 OFFCURVE",
"816 112 OFFCURVE",
"816 276 CURVE SMOOTH",
"816 394 OFFCURVE",
"720 473 OFFCURVE",
"812 602 CURVE SMOOTH",
"817 609 OFFCURVE",
"816 618 OFFCURVE",
"810 624 CURVE SMOOTH",
"772 662 LINE SMOOTH",
"766 668 OFFCURVE",
"758 669 OFFCURVE",
"751 663 CURVE SMOOTH",
"721 637 OFFCURVE",
"686 627 OFFCURVE",
"655 627 CURVE SMOOTH",
"620 627 OFFCURVE",
"578 642 OFFCURVE",
"545 667 CURVE SMOOTH",
"537 673 OFFCURVE",
"531 672 OFFCURVE",
"523 667 CURVE SMOOTH"
);
},
{
closed = 1;
nodes = (
"587 431 LINE SMOOTH",
"590 426 OFFCURVE",
"594 423 OFFCURVE",
"600 422 CURVE SMOOTH",
"700 408 LINE SMOOTH",
"710 407 OFFCURVE",
"712 399 OFFCURVE",
"705 392 CURVE SMOOTH",
"633 321 LINE SMOOTH",
"629 317 OFFCURVE",
"627 313 OFFCURVE",
"628 306 CURVE SMOOTH",
"645 207 LINE SMOOTH",
"647 197 OFFCURVE",
"641 193 OFFCURVE",
"632 198 CURVE SMOOTH",
"542 245 LINE SMOOTH",
"537 248 OFFCURVE",
"531 248 OFFCURVE",
"526 245 CURVE SMOOTH",
"437 198 LINE SMOOTH",
"428 193 OFFCURVE",
"422 197 OFFCURVE",
"424 207 CURVE SMOOTH",
"441 306 LINE SMOOTH",
"442 313 OFFCURVE",
"440 317 OFFCURVE",
"436 321 CURVE SMOOTH",
"364 392 LINE SMOOTH",
"357 399 OFFCURVE",
"359 406 OFFCURVE",
"369 408 CURVE SMOOTH",
"469 422 LINE SMOOTH",
"475 423 OFFCURVE",
"479 426 OFFCURVE",
"482 431 CURVE SMOOTH",
"526 521 LINE SMOOTH",
"530 530 OFFCURVE",
"538 530 OFFCURVE",
"542 521 CURVE SMOOTH"
);
}
);
width = 1068;
},
{
associatedMasterId = "9E4B8FD8-F8AF-4AA7-8E0D-0C907FFB2BDD";
background = {
paths = (
{
closed = 1;
nodes = (
"139 806 LINE SMOOTH",
"85 806 OFFCURVE",
"40 762 OFFCURVE",
"40 708 CURVE SMOOTH",
"40 25 LINE SMOOTH",
"40 -29 OFFCURVE",
"85 -74 OFFCURVE",
"139 -74 CURVE SMOOTH",
"862 -74 LINE SMOOTH",
"916 -74 OFFCURVE",
"960 -29 OFFCURVE",
"960 25 CURVE SMOOTH",
"960 708 LINE SMOOTH",
"960 762 OFFCURVE",
"916 806 OFFCURVE",
"862 806 CURVE SMOOTH"
);
},
{
closed = 1;
nodes = (
"902 784 OFFCURVE",
"938 748 OFFCURVE",
"938 705 CURVE SMOOTH",
"938 28 LINE SMOOTH",
"938 -15 OFFCURVE",
"902 -52 OFFCURVE",
"859 -52 CURVE SMOOTH",
"142 -52 LINE SMOOTH",
"99 -52 OFFCURVE",
"62 -15 OFFCURVE",
"62 28 CURVE SMOOTH",
"62 705 LINE SMOOTH",
"62 748 OFFCURVE",
"99 784 OFFCURVE",
"142 784 CURVE SMOOTH",
"859 784 LINE SMOOTH"
);
},
{
closed = 1;
nodes = (
"266 185 LINE",
"266 97 LINE SMOOTH",
"266 92 OFFCURVE",
"270 88 OFFCURVE",
"275 88 CURVE SMOOTH",
"340 88 LINE SMOOTH",
"346 88 OFFCURVE",
"350 92 OFFCURVE",
"350 97 CURVE SMOOTH",
"350 185 LINE"
);
},
{
closed = 1;
nodes = (
"342 238 OFFCURVE",
"362 258 OFFCURVE",
"362 284 CURVE SMOOTH",
"362 309 OFFCURVE",
"342 329 OFFCURVE",
"317 329 CURVE SMOOTH",
"292 329 OFFCURVE",
"272 309 OFFCURVE",
"272 284 CURVE SMOOTH",
"272 258 OFFCURVE",
"292 238 OFFCURVE",
"317 238 CURVE SMOOTH"
);
},
{
closed = 1;
nodes = (
"655 97 LINE SMOOTH",
"655 92 OFFCURVE",
"659 88 OFFCURVE",
"665 88 CURVE SMOOTH",
"730 88 LINE SMOOTH",
"735 88 OFFCURVE",
"739 92 OFFCURVE",
"739 97 CURVE SMOOTH",
"739 185 LINE",
"655 185 LINE"
);
},
{
closed = 1;
nodes = (
"713 238 OFFCURVE",
"733 258 OFFCURVE",
"733 284 CURVE SMOOTH",
"733 309 OFFCURVE",
"713 329 OFFCURVE",
"688 329 CURVE SMOOTH",
"663 329 OFFCURVE",
"643 309 OFFCURVE",
"643 284 CURVE SMOOTH",
"643 258 OFFCURVE",
"663 238 OFFCURVE",
"688 238 CURVE SMOOTH"
);
},
{
closed = 1;
nodes = (
"271 560 LINE",
"260 397 LINE",
"745 397 LINE",
"734 560 LINE"
);
},
{
closed = 1;
nodes = (
"760 592 LINE",
"602 592 LINE",
"602 645 LINE",
"403 645 LINE",
"403 592 LINE",
"245 592 LINE",
"231 397 LINE",
"194 397 LINE",
"194 160 LINE",
"811 160 LINE",
"811 397 LINE",
"774 397 LINE"
);
},
{
closed = 1;
nodes = (
"400 310 LINE",
"400 290 LINE",
"605 290 LINE",
"605 310 LINE"
);
},
{
closed = 1;
nodes = (
"400 265 LINE",
"400 245 LINE",
"605 245 LINE",
"605 265 LINE"
);
}
);
};
layerId = "346C0EA8-9638-4244-B17D-E97A86FA40DB";
name = "Sep 8 17, 13:27";
paths = (
{
closed = 1;
nodes = (
"139 806 LINE SMOOTH",
"85 806 OFFCURVE",
"40 762 OFFCURVE",
"40 708 CURVE SMOOTH",
"40 25 LINE SMOOTH",
"40 -29 OFFCURVE",
"85 -74 OFFCURVE",
"139 -74 CURVE SMOOTH",
"862 -74 LINE SMOOTH",
"916 -74 OFFCURVE",
"960 -29 OFFCURVE",
"960 25 CURVE SMOOTH",
"960 708 LINE SMOOTH",
"960 762 OFFCURVE",
"916 806 OFFCURVE",
"862 806 CURVE SMOOTH"
);
},
{
closed = 1;
nodes = (
"902 784 OFFCURVE",
"938 748 OFFCURVE",
"938 705 CURVE SMOOTH",
"938 28 LINE SMOOTH",
"938 -15 OFFCURVE",
"902 -52 OFFCURVE",
"859 -52 CURVE SMOOTH",
"142 -52 LINE SMOOTH",
"99 -52 OFFCURVE",
"62 -15 OFFCURVE",
"62 28 CURVE SMOOTH",
"62 705 LINE SMOOTH",
"62 748 OFFCURVE",
"99 784 OFFCURVE",
"142 784 CURVE SMOOTH",
"859 784 LINE SMOOTH"
);
},
{
closed = 1;
nodes = (
"266 185 LINE",
"266 97 LINE SMOOTH",
"266 92 OFFCURVE",
"270 88 OFFCURVE",
"275 88 CURVE SMOOTH",
"340 88 LINE SMOOTH",
"346 88 OFFCURVE",
"350 92 OFFCURVE",
"350 97 CURVE SMOOTH",
"350 185 LINE"
);
},
{
closed = 1;
nodes = (
"342 238 OFFCURVE",
"362 258 OFFCURVE",
"362 284 CURVE SMOOTH",
"362 309 OFFCURVE",
"342 329 OFFCURVE",
"317 329 CURVE SMOOTH",
"292 329 OFFCURVE",
"272 309 OFFCURVE",
"272 284 CURVE SMOOTH",
"272 258 OFFCURVE",
"292 238 OFFCURVE",
"317 238 CURVE SMOOTH"
);
},
{
closed = 1;
nodes = (
"655 97 LINE SMOOTH",
"655 92 OFFCURVE",
"659 88 OFFCURVE",
"665 88 CURVE SMOOTH",
"730 88 LINE SMOOTH",
"735 88 OFFCURVE",
"739 92 OFFCURVE",
"739 97 CURVE SMOOTH",
"739 185 LINE",
"655 185 LINE"
);
},
{
closed = 1;
nodes = (
"713 238 OFFCURVE",
"733 258 OFFCURVE",
"733 284 CURVE SMOOTH",
"733 309 OFFCURVE",
"713 329 OFFCURVE",
"688 329 CURVE SMOOTH",
"663 329 OFFCURVE",
"643 309 OFFCURVE",
"643 284 CURVE SMOOTH",
"643 258 OFFCURVE",
"663 238 OFFCURVE",
"688 238 CURVE SMOOTH"
);
},
{
closed = 1;
nodes = (
"271 560 LINE",
"260 397 LINE",
"745 397 LINE",
"734 560 LINE"
);
},
{
closed = 1;
nodes = (
"760 592 LINE",
"602 592 LINE",
"602 645 LINE",
"403 645 LINE",
"403 592 LINE",
"245 592 LINE",
"231 397 LINE",
"194 397 LINE",
"194 160 LINE",
"811 160 LINE",
"811 397 LINE",
"774 397 LINE"
);
},
{
closed = 1;
nodes = (
"400 310 LINE",
"400 290 LINE",
"605 290 LINE",
"605 310 LINE"
);
},
{
closed = 1;
nodes = (
"400 265 LINE",
"400 245 LINE",
"605 245 LINE",
"605 265 LINE"
);
}
);
width = 1000;
},
{
associatedMasterId = "9E4B8FD8-F8AF-4AA7-8E0D-0C907FFB2BDD";
background = {
paths = (
{
closed = 1;
nodes = (
"264 591 LINE SMOOTH",
"257 591 OFFCURVE",
"252 586 OFFCURVE",
"252 579 CURVE SMOOTH",
"252 157 LINE SMOOTH",
"252 150 OFFCURVE",
"257 145 OFFCURVE",
"264 145 CURVE SMOOTH",
"824 145 LINE SMOOTH",
"831 145 OFFCURVE",
"836 150 OFFCURVE",
"836 157 CURVE SMOOTH",
"836 579 LINE SMOOTH",
"836 586 OFFCURVE",
"831 591 OFFCURVE",
"824 591 CURVE SMOOTH"
);
},
{
closed = 1;
nodes = (
"530 350 OFFCURVE",
"516 355 OFFCURVE",
"505 366 CURVE SMOOTH",
"324 549 LINE",
"764 549 LINE",
"583 366 LINE SMOOTH",
"572 355 OFFCURVE",
"557 350 OFFCURVE",
"544 350 CURVE SMOOTH"
);
},
{
closed = 1;
nodes = (
"323 187 LINE",
"474 337 LINE",
"494 317 OFFCURVE",
"519 306 OFFCURVE",
"544 306 CURVE SMOOTH",
"569 306 OFFCURVE",
"594 317 OFFCURVE",
"614 337 CURVE",
"765 187 LINE"
);
},
{
closed = 1;
nodes = (
"444 368 LINE",
"294 217 LINE",
"294 518 LINE"
);
},
{
closed = 1;
nodes = (
"794 217 LINE",
"644 368 LINE",
"794 518 LINE"
);
}
);
};
components = (
{
name = largecircle;
transform = "{1, 0, 0, 1, 10, 0}";
}
);
layerId = "955B2AA2-27DD-425E-8ACF-510DB3712361";
name = "Nov 14 17, 19:32";
paths = (
{
closed = 1;
nodes = (
"264 145 LINE SMOOTH",
"257 145 OFFCURVE",
"252 150 OFFCURVE",
"252 157 CURVE SMOOTH",
"252 579 LINE SMOOTH",
"252 586 OFFCURVE",
"257 591 OFFCURVE",
"264 591 CURVE SMOOTH",
"824 591 LINE SMOOTH",
"831 591 OFFCURVE",
"836 586 OFFCURVE",
"836 579 CURVE SMOOTH",
"836 157 LINE SMOOTH",
"836 150 OFFCURVE",
"831 145 OFFCURVE",
"824 145 CURVE SMOOTH"
);
},
{
closed = 1;
nodes = (
"298 563 LINE",
"536 338 LINE SMOOTH",
"541 333 OFFCURVE",
"547 333 OFFCURVE",
"552 338 CURVE SMOOTH",
"790 563 LINE"
);
},
{
closed = 1;
nodes = (
"480 345 LINE",
"300 173 LINE",
"788 173 LINE",
"607 347 LINE",
"552 297 LINE SMOOTH",
"547 292 OFFCURVE",
"540 292 OFFCURVE",
"535 297 CURVE SMOOTH"
);
},
{
closed = 1;
nodes = (
"280 196 LINE",
"458 368 LINE",
"280 537 LINE"
);
},
{
closed = 1;
nodes = (
"630 368 LINE",
"808 196 LINE",
"808 537 LINE"
);
}
);
width = 1088;
}
);
unicode = 00E1;
},
{
glyphname = acircumflex;
lastChange = "2018-03-12 12:07:02 +0000";
layers = (
{
components = (
{
name = blackLargeCircle;
}
);
layerId = "9E4B8FD8-F8AF-4AA7-8E0D-0C907FFB2BDD";
paths = (
{
closed = 1;
nodes = (
"488 645 OFFCURVE",
"448 627 OFFCURVE",
"413 627 CURVE SMOOTH",
"382 627 OFFCURVE",
"347 637 OFFCURVE",
"317 663 CURVE SMOOTH",
"310 669 OFFCURVE",
"302 668 OFFCURVE",
"296 662 CURVE SMOOTH",
"258 624 LINE SMOOTH",
"252 618 OFFCURVE",
"251 609 OFFCURVE",
"256 602 CURVE SMOOTH",
"348 473 OFFCURVE",
"252 394 OFFCURVE",
"252 276 CURVE SMOOTH",
"252 112 OFFCURVE",
"412 45 OFFCURVE",
"524 -3 CURVE SMOOTH",
"531 -6 OFFCURVE",
"537 -6 OFFCURVE",
"544 -3 CURVE SMOOTH",
"656 45 OFFCURVE",
"816 112 OFFCURVE",
"816 276 CURVE SMOOTH",
"816 394 OFFCURVE",
"720 473 OFFCURVE",
"812 602 CURVE SMOOTH",
"817 609 OFFCURVE",
"816 618 OFFCURVE",
"810 624 CURVE SMOOTH",
"772 662 LINE SMOOTH",
"766 668 OFFCURVE",
"758 669 OFFCURVE",
"751 663 CURVE SMOOTH",
"721 637 OFFCURVE",
"686 627 OFFCURVE",
"655 627 CURVE SMOOTH",
"620 627 OFFCURVE",
"578 642 OFFCURVE",
"545 667 CURVE SMOOTH",
"537 673 OFFCURVE",
"531 672 OFFCURVE",
"523 667 CURVE SMOOTH"
);
},
{
closed = 1;
nodes = (
"587 431 LINE SMOOTH",
"590 426 OFFCURVE",
"594 423 OFFCURVE",
"600 422 CURVE SMOOTH",
"700 408 LINE SMOOTH",
"710 407 OFFCURVE",
"712 399 OFFCURVE",
"705 392 CURVE SMOOTH",
"633 321 LINE SMOOTH",
"629 317 OFFCURVE",
"627 313 OFFCURVE",
"628 306 CURVE SMOOTH",
"645 207 LINE SMOOTH",
"647 197 OFFCURVE",
"641 193 OFFCURVE",
"632 198 CURVE SMOOTH",
"542 245 LINE SMOOTH",
"537 248 OFFCURVE",
"531 248 OFFCURVE",
"526 245 CURVE SMOOTH",
"437 198 LINE SMOOTH",
"428 193 OFFCURVE",
"422 197 OFFCURVE",
"424 207 CURVE SMOOTH",
"441 306 LINE SMOOTH",
"442 313 OFFCURVE",
"440 317 OFFCURVE",
"436 321 CURVE SMOOTH",
"364 392 LINE SMOOTH",
"357 399 OFFCURVE",
"359 406 OFFCURVE",
"369 408 CURVE SMOOTH",
"469 422 LINE SMOOTH",
"475 423 OFFCURVE",
"479 426 OFFCURVE",
"482 431 CURVE SMOOTH",
"526 521 LINE SMOOTH",
"530 530 OFFCURVE",
"538 530 OFFCURVE",
"542 521 CURVE SMOOTH"
);
}
);
width = 1068;
},
{
associatedMasterId = "9E4B8FD8-F8AF-4AA7-8E0D-0C907FFB2BDD";
background = {
paths = (
{
closed = 1;
nodes = (
"139 806 LINE SMOOTH",
"85 806 OFFCURVE",
"40 762 OFFCURVE",
"40 708 CURVE SMOOTH",
"40 25 LINE SMOOTH",
"40 -29 OFFCURVE",
"85 -74 OFFCURVE",
"139 -74 CURVE SMOOTH",
"862 -74 LINE SMOOTH",
"916 -74 OFFCURVE",
"960 -29 OFFCURVE",
"960 25 CURVE SMOOTH",
"960 708 LINE SMOOTH",
"960 762 OFFCURVE",
"916 806 OFFCURVE",
"862 806 CURVE SMOOTH"
);
},
{
closed = 1;
nodes = (
"902 784 OFFCURVE",
"938 748 OFFCURVE",
"938 705 CURVE SMOOTH",
"938 28 LINE SMOOTH",
"938 -15 OFFCURVE",
"902 -52 OFFCURVE",
"859 -52 CURVE SMOOTH",
"142 -52 LINE SMOOTH",
"99 -52 OFFCURVE",
"62 -15 OFFCURVE",
"62 28 CURVE SMOOTH",
"62 705 LINE SMOOTH",
"62 748 OFFCURVE",
"99 784 OFFCURVE",
"142 784 CURVE SMOOTH",
"859 784 LINE SMOOTH"
);
},
{
closed = 1;
nodes = (
"266 185 LINE",
"266 97 LINE SMOOTH",
"266 92 OFFCURVE",
"270 88 OFFCURVE",
"275 88 CURVE SMOOTH",
"340 88 LINE SMOOTH",
"346 88 OFFCURVE",
"350 92 OFFCURVE",
"350 97 CURVE SMOOTH",
"350 185 LINE"
);
},
{
closed = 1;
nodes = (
"342 238 OFFCURVE",
"362 258 OFFCURVE",
"362 284 CURVE SMOOTH",
"362 309 OFFCURVE",
"342 329 OFFCURVE",
"317 329 CURVE SMOOTH",
"292 329 OFFCURVE",
"272 309 OFFCURVE",
"272 284 CURVE SMOOTH",
"272 258 OFFCURVE",
"292 238 OFFCURVE",
"317 238 CURVE SMOOTH"
);
},
{
closed = 1;
nodes = (
"655 97 LINE SMOOTH",
"655 92 OFFCURVE",
"659 88 OFFCURVE",
"665 88 CURVE SMOOTH",
"730 88 LINE SMOOTH",
"735 88 OFFCURVE",
"739 92 OFFCURVE",
"739 97 CURVE SMOOTH",
"739 185 LINE",
"655 185 LINE"
);
},
{
closed = 1;
nodes = (
"713 238 OFFCURVE",
"733 258 OFFCURVE",
"733 284 CURVE SMOOTH",
"733 309 OFFCURVE",
"713 329 OFFCURVE",
"688 329 CURVE SMOOTH",
"663 329 OFFCURVE",
"643 309 OFFCURVE",
"643 284 CURVE SMOOTH",
"643 258 OFFCURVE",
"663 238 OFFCURVE",
"688 238 CURVE SMOOTH"
);
},
{
closed = 1;
nodes = (
"271 560 LINE",
"260 397 LINE",
"745 397 LINE",
"734 560 LINE"
);
},
{
closed = 1;
nodes = (
"760 592 LINE",
"602 592 LINE",
"602 645 LINE",
"403 645 LINE",
"403 592 LINE",
"245 592 LINE",
"231 397 LINE",
"194 397 LINE",
"194 160 LINE",
"811 160 LINE",
"811 397 LINE",
"774 397 LINE"
);
},
{
closed = 1;
nodes = (
"400 310 LINE",
"400 290 LINE",
"605 290 LINE",
"605 310 LINE"
);
},
{
closed = 1;
nodes = (
"400 265 LINE",
"400 245 LINE",
"605 245 LINE",
"605 265 LINE"
);
}
);
};
layerId = "346C0EA8-9638-4244-B17D-E97A86FA40DB";
name = "Sep 8 17, 13:27";
paths = (
{
closed = 1;
nodes = (
"139 806 LINE SMOOTH",
"85 806 OFFCURVE",
"40 762 OFFCURVE",
"40 708 CURVE SMOOTH",
"40 25 LINE SMOOTH",
"40 -29 OFFCURVE",
"85 -74 OFFCURVE",
"139 -74 CURVE SMOOTH",
"862 -74 LINE SMOOTH",
"916 -74 OFFCURVE",
"960 -29 OFFCURVE",
"960 25 CURVE SMOOTH",
"960 708 LINE SMOOTH",
"960 762 OFFCURVE",
"916 806 OFFCURVE",
"862 806 CURVE SMOOTH"
);
},
{
closed = 1;
nodes = (
"902 784 OFFCURVE",
"938 748 OFFCURVE",
"938 705 CURVE SMOOTH",
"938 28 LINE SMOOTH",
"938 -15 OFFCURVE",
"902 -52 OFFCURVE",
"859 -52 CURVE SMOOTH",
"142 -52 LINE SMOOTH",
"99 -52 OFFCURVE",
"62 -15 OFFCURVE",
"62 28 CURVE SMOOTH",
"62 705 LINE SMOOTH",
"62 748 OFFCURVE",
"99 784 OFFCURVE",
"142 784 CURVE SMOOTH",
"859 784 LINE SMOOTH"
);
},
{
closed = 1;
nodes = (
"266 185 LINE",
"266 97 LINE SMOOTH",
"266 92 OFFCURVE",
"270 88 OFFCURVE",
"275 88 CURVE SMOOTH",
"340 88 LINE SMOOTH",
"346 88 OFFCURVE",
"350 92 OFFCURVE",
"350 97 CURVE SMOOTH",
"350 185 LINE"
);
},
{
closed = 1;
nodes = (
"342 238 OFFCURVE",
"362 258 OFFCURVE",
"362 284 CURVE SMOOTH",
"362 309 OFFCURVE",
"342 329 OFFCURVE",
"317 329 CURVE SMOOTH",
"292 329 OFFCURVE",
"272 309 OFFCURVE",
"272 284 CURVE SMOOTH",
"272 258 OFFCURVE",
"292 238 OFFCURVE",
"317 238 CURVE SMOOTH"
);
},
{
closed = 1;
nodes = (
"655 97 LINE SMOOTH",
"655 92 OFFCURVE",
"659 88 OFFCURVE",
"665 88 CURVE SMOOTH",
"730 88 LINE SMOOTH",
"735 88 OFFCURVE",
"739 92 OFFCURVE",
"739 97 CURVE SMOOTH",
"739 185 LINE",
"655 185 LINE"
);
},
{
closed = 1;
nodes = (
"713 238 OFFCURVE",
"733 258 OFFCURVE",
"733 284 CURVE SMOOTH",
"733 309 OFFCURVE",
"713 329 OFFCURVE",
"688 329 CURVE SMOOTH",
"663 329 OFFCURVE",
"643 309 OFFCURVE",
"643 284 CURVE SMOOTH",
"643 258 OFFCURVE",
"663 238 OFFCURVE",
"688 238 CURVE SMOOTH"
);
},
{
closed = 1;
nodes = (
"271 560 LINE",
"260 397 LINE",
"745 397 LINE",
"734 560 LINE"
);
},
{
closed = 1;
nodes = (
"760 592 LINE",
"602 592 LINE",
"602 645 LINE",
"403 645 LINE",
"403 592 LINE",
"245 592 LINE",
"231 397 LINE",
"194 397 LINE",
"194 160 LINE",
"811 160 LINE",
"811 397 LINE",
"774 397 LINE"
);
},
{
closed = 1;
nodes = (
"400 310 LINE",
"400 290 LINE",
"605 290 LINE",
"605 310 LINE"
);
},
{
closed = 1;
nodes = (
"400 265 LINE",
"400 245 LINE",
"605 245 LINE",
"605 265 LINE"
);
}
);
width = 1000;
}
);
unicode = 00E2;
},
{
glyphname = agrave;
lastChange = "2018-03-12 12:07:02 +0000";
layers = (
{
layerId = "9E4B8FD8-F8AF-4AA7-8E0D-0C907FFB2BDD";
paths = (
{
closed = 1;
nodes = (
"488 645 OFFCURVE",
"448 627 OFFCURVE",
"413 627 CURVE SMOOTH",
"382 627 OFFCURVE",
"347 637 OFFCURVE",
"317 663 CURVE SMOOTH",
"310 669 OFFCURVE",
"302 668 OFFCURVE",
"296 662 CURVE SMOOTH",
"258 624 LINE SMOOTH",
"252 618 OFFCURVE",
"251 609 OFFCURVE",
"256 602 CURVE SMOOTH",
"348 473 OFFCURVE",
"252 394 OFFCURVE",
"252 276 CURVE SMOOTH",
"252 112 OFFCURVE",
"412 45 OFFCURVE",
"524 -3 CURVE SMOOTH",
"531 -6 OFFCURVE",
"537 -6 OFFCURVE",
"544 -3 CURVE SMOOTH",
"656 45 OFFCURVE",
"816 112 OFFCURVE",
"816 276 CURVE SMOOTH",
"816 394 OFFCURVE",
"720 473 OFFCURVE",
"812 602 CURVE SMOOTH",
"817 609 OFFCURVE",
"816 618 OFFCURVE",
"810 624 CURVE SMOOTH",
"772 662 LINE SMOOTH",
"766 668 OFFCURVE",
"758 669 OFFCURVE",
"751 663 CURVE SMOOTH",
"721 637 OFFCURVE",
"686 627 OFFCURVE",
"655 627 CURVE SMOOTH",
"620 627 OFFCURVE",
"578 642 OFFCURVE",
"545 667 CURVE SMOOTH",
"537 673 OFFCURVE",
"531 672 OFFCURVE",
"523 667 CURVE SMOOTH"
);
},
{
closed = 1;
nodes = (
"586 431 LINE SMOOTH",
"589 426 OFFCURVE",
"593 423 OFFCURVE",
"599 422 CURVE SMOOTH",
"699 408 LINE SMOOTH",
"709 407 OFFCURVE",
"711 399 OFFCURVE",
"704 392 CURVE SMOOTH",
"632 321 LINE SMOOTH",
"628 317 OFFCURVE",
"626 313 OFFCURVE",
"627 306 CURVE SMOOTH",
"644 207 LINE SMOOTH",
"646 197 OFFCURVE",
"640 193 OFFCURVE",
"631 198 CURVE SMOOTH",
"541 245 LINE SMOOTH",
"536 248 OFFCURVE",
"530 248 OFFCURVE",
"525 245 CURVE SMOOTH",
"436 198 LINE SMOOTH",
"427 193 OFFCURVE",
"421 197 OFFCURVE",
"423 207 CURVE SMOOTH",
"440 306 LINE SMOOTH",
"441 313 OFFCURVE",
"439 317 OFFCURVE",
"435 321 CURVE SMOOTH",
"363 392 LINE SMOOTH",
"356 399 OFFCURVE",
"358 406 OFFCURVE",
"368 408 CURVE SMOOTH",
"468 422 LINE SMOOTH",
"474 423 OFFCURVE",
"478 426 OFFCURVE",
"481 431 CURVE SMOOTH",
"525 521 LINE SMOOTH",
"529 530 OFFCURVE",
"537 530 OFFCURVE",
"541 521 CURVE SMOOTH"
);
}
);
width = 1068;
},
{
associatedMasterId = "9E4B8FD8-F8AF-4AA7-8E0D-0C907FFB2BDD";
background = {
paths = (
{
closed = 1;
nodes = (
"139 806 LINE SMOOTH",
"85 806 OFFCURVE",
"40 762 OFFCURVE",
"40 708 CURVE SMOOTH",
"40 25 LINE SMOOTH",
"40 -29 OFFCURVE",
"85 -74 OFFCURVE",
"139 -74 CURVE SMOOTH",
"862 -74 LINE SMOOTH",
"916 -74 OFFCURVE",
"960 -29 OFFCURVE",
"960 25 CURVE SMOOTH",
"960 708 LINE SMOOTH",
"960 762 OFFCURVE",
"916 806 OFFCURVE",
"862 806 CURVE SMOOTH"
);
},
{
closed = 1;
nodes = (
"902 784 OFFCURVE",
"938 748 OFFCURVE",
"938 705 CURVE SMOOTH",
"938 28 LINE SMOOTH",
"938 -15 OFFCURVE",
"902 -52 OFFCURVE",
"859 -52 CURVE SMOOTH",
"142 -52 LINE SMOOTH",
"99 -52 OFFCURVE",
"62 -15 OFFCURVE",
"62 28 CURVE SMOOTH",
"62 705 LINE SMOOTH",
"62 748 OFFCURVE",
"99 784 OFFCURVE",
"142 784 CURVE SMOOTH",
"859 784 LINE SMOOTH"
);
},
{
closed = 1;
nodes = (
"266 185 LINE",
"266 97 LINE SMOOTH",
"266 92 OFFCURVE",
"270 88 OFFCURVE",
"275 88 CURVE SMOOTH",
"340 88 LINE SMOOTH",
"346 88 OFFCURVE",
"350 92 OFFCURVE",
"350 97 CURVE SMOOTH",
"350 185 LINE"
);
},
{
closed = 1;
nodes = (
"342 238 OFFCURVE",
"362 258 OFFCURVE",
"362 284 CURVE SMOOTH",
"362 309 OFFCURVE",
"342 329 OFFCURVE",
"317 329 CURVE SMOOTH",
"292 329 OFFCURVE",
"272 309 OFFCURVE",
"272 284 CURVE SMOOTH",
"272 258 OFFCURVE",
"292 238 OFFCURVE",
"317 238 CURVE SMOOTH"
);
},
{
closed = 1;
nodes = (
"655 97 LINE SMOOTH",
"655 92 OFFCURVE",
"659 88 OFFCURVE",
"665 88 CURVE SMOOTH",
"730 88 LINE SMOOTH",
"735 88 OFFCURVE",
"739 92 OFFCURVE",
"739 97 CURVE SMOOTH",
"739 185 LINE",
"655 185 LINE"
);
},
{
closed = 1;
nodes = (
"713 238 OFFCURVE",
"733 258 OFFCURVE",
"733 284 CURVE SMOOTH",
"733 309 OFFCURVE",
"713 329 OFFCURVE",
"688 329 CURVE SMOOTH",
"663 329 OFFCURVE",
"643 309 OFFCURVE",
"643 284 CURVE SMOOTH",
"643 258 OFFCURVE",
"663 238 OFFCURVE",
"688 238 CURVE SMOOTH"
);
},
{
closed = 1;
nodes = (
"271 560 LINE",
"260 397 LINE",
"745 397 LINE",
"734 560 LINE"
);
},
{
closed = 1;
nodes = (
"760 592 LINE",
"602 592 LINE",
"602 645 LINE",
"403 645 LINE",
"403 592 LINE",
"245 592 LINE",
"231 397 LINE",
"194 397 LINE",
"194 160 LINE",
"811 160 LINE",
"811 397 LINE",
"774 397 LINE"
);
},
{
closed = 1;
nodes = (
"400 310 LINE",
"400 290 LINE",
"605 290 LINE",
"605 310 LINE"
);
},
{
closed = 1;
nodes = (
"400 265 LINE",
"400 245 LINE",
"605 245 LINE",
"605 265 LINE"
);
}
);
};
layerId = "346C0EA8-9638-4244-B17D-E97A86FA40DB";
name = "Sep 8 17, 13:27";
paths = (
{
closed = 1;
nodes = (
"139 806 LINE SMOOTH",
"85 806 OFFCURVE",
"40 762 OFFCURVE",
"40 708 CURVE SMOOTH",
"40 25 LINE SMOOTH",
"40 -29 OFFCURVE",
"85 -74 OFFCURVE",
"139 -74 CURVE SMOOTH",
"862 -74 LINE SMOOTH",
"916 -74 OFFCURVE",
"960 -29 OFFCURVE",
"960 25 CURVE SMOOTH",
"960 708 LINE SMOOTH",
"960 762 OFFCURVE",
"916 806 OFFCURVE",
"862 806 CURVE SMOOTH"
);
},
{
closed = 1;
nodes = (
"902 784 OFFCURVE",
"938 748 OFFCURVE",
"938 705 CURVE SMOOTH",
"938 28 LINE SMOOTH",
"938 -15 OFFCURVE",
"902 -52 OFFCURVE",
"859 -52 CURVE SMOOTH",
"142 -52 LINE SMOOTH",
"99 -52 OFFCURVE",
"62 -15 OFFCURVE",
"62 28 CURVE SMOOTH",
"62 705 LINE SMOOTH",
"62 748 OFFCURVE",
"99 784 OFFCURVE",
"142 784 CURVE SMOOTH",
"859 784 LINE SMOOTH"
);
},
{
closed = 1;
nodes = (
"266 185 LINE",
"266 97 LINE SMOOTH",
"266 92 OFFCURVE",
"270 88 OFFCURVE",
"275 88 CURVE SMOOTH",
"340 88 LINE SMOOTH",
"346 88 OFFCURVE",
"350 92 OFFCURVE",
"350 97 CURVE SMOOTH",
"350 185 LINE"
);
},
{
closed = 1;
nodes = (
"342 238 OFFCURVE",
"362 258 OFFCURVE",
"362 284 CURVE SMOOTH",
"362 309 OFFCURVE",
"342 329 OFFCURVE",
"317 329 CURVE SMOOTH",
"292 329 OFFCURVE",
"272 309 OFFCURVE",
"272 284 CURVE SMOOTH",
"272 258 OFFCURVE",
"292 238 OFFCURVE",
"317 238 CURVE SMOOTH"
);
},
{
closed = 1;
nodes = (
"655 97 LINE SMOOTH",
"655 92 OFFCURVE",
"659 88 OFFCURVE",
"665 88 CURVE SMOOTH",
"730 88 LINE SMOOTH",
"735 88 OFFCURVE",
"739 92 OFFCURVE",
"739 97 CURVE SMOOTH",
"739 185 LINE",
"655 185 LINE"
);
},
{
closed = 1;
nodes = (
"713 238 OFFCURVE",
"733 258 OFFCURVE",
"733 284 CURVE SMOOTH",
"733 309 OFFCURVE",
"713 329 OFFCURVE",
"688 329 CURVE SMOOTH",
"663 329 OFFCURVE",
"643 309 OFFCURVE",
"643 284 CURVE SMOOTH",
"643 258 OFFCURVE",
"663 238 OFFCURVE",
"688 238 CURVE SMOOTH"
);
},
{
closed = 1;
nodes = (
"271 560 LINE",
"260 397 LINE",
"745 397 LINE",
"734 560 LINE"
);
},
{
closed = 1;
nodes = (
"760 592 LINE",
"602 592 LINE",
"602 645 LINE",
"403 645 LINE",
"403 592 LINE",
"245 592 LINE",
"231 397 LINE",
"194 397 LINE",
"194 160 LINE",
"811 160 LINE",
"811 397 LINE",
"774 397 LINE"
);
},
{
closed = 1;
nodes = (
"400 310 LINE",
"400 290 LINE",
"605 290 LINE",
"605 310 LINE"
);
},
{
closed = 1;
nodes = (
"400 265 LINE",
"400 245 LINE",
"605 245 LINE",
"605 265 LINE"
);
}
);
width = 1000;
}
);
unicode = 00E0;
},
{
glyphname = aring;
lastChange = "2018-03-12 12:07:02 +0000";
layers = (
{
background = {
components = (
{
name = whiteRoundedCornersSquare;
transform = "{1, 0, 0, 1, 35, 0}";
}
);
paths = (
{
closed = 1;
nodes = (
"342 132 LINE SMOOTH",
"346 132 OFFCURVE",
"349 134 OFFCURVE",
"350 139 CURVE SMOOTH",
"372 280 LINE SMOOTH",
"376 308 OFFCURVE",
"379 333 OFFCURVE",
"381 361 CURVE",
"383 361 LINE",
"384 333 OFFCURVE",
"386 308 OFFCURVE",
"390 280 CURVE SMOOTH",
"408 138 LINE SMOOTH",
"408 135 OFFCURVE",
"412 132 OFFCURVE",
"415 132 CURVE SMOOTH",
"504 132 LINE SMOOTH",
"508 132 OFFCURVE",
"510 135 OFFCURVE",
"511 139 CURVE SMOOTH",
"576 580 LINE SMOOTH",
"577 587 OFFCURVE",
"574 591 OFFCURVE",
"570 591 CURVE SMOOTH",
"495 591 LINE SMOOTH",
"491 591 OFFCURVE",
"487 588 OFFCURVE",
"487 584 CURVE SMOOTH",
"466 324 LINE SMOOTH",
"464 294 OFFCURVE",
"462 264 OFFCURVE",
"460 234 CURVE",
"458 234 LINE",
"455 264 OFFCURVE",
"452 293 OFFCURVE",
"449 323 CURVE SMOOTH",
"422 574 LINE SMOOTH",
"422 578 OFFCURVE",
"419 580 OFFCURVE",
"416 580 CURVE SMOOTH",
"332 580 LINE SMOOTH",
"328 580 OFFCURVE",
"325 578 OFFCURVE",
"326 572 CURVE SMOOTH",
"344 489 LINE",
"317 324 LINE SMOOTH",
"312 294 OFFCURVE",
"309 264 OFFCURVE",
"305 234 CURVE",
"303 234 LINE",
"302 264 OFFCURVE",
"301 295 OFFCURVE",
"298 325 CURVE SMOOTH",
"276 584 LINE SMOOTH",
"276 588 OFFCURVE",
"272 591 OFFCURVE",
"267 591 CURVE SMOOTH",
"191 591 LINE SMOOTH",
"187 591 OFFCURVE",
"184 587 OFFCURVE",
"185 580 CURVE SMOOTH",
"250 138 LINE SMOOTH",
"250 135 OFFCURVE",
"252 132 OFFCURVE",
"257 132 CURVE SMOOTH"
);
},
{
closed = 1;
nodes = (
"868 290 OFFCURVE",
"865 296 OFFCURVE",
"860 296 CURVE SMOOTH",
"792 295 LINE SMOOTH",
"785 295 OFFCURVE",
"783 289 OFFCURVE",
"783 284 CURVE SMOOTH",
"783 246 OFFCURVE",
"784 209 OFFCURVE",
"747 209 CURVE SMOOTH",
"715 209 OFFCURVE",
"704 231 OFFCURVE",
"704 281 CURVE SMOOTH",
"704 442 LINE SMOOTH",
"704 493 OFFCURVE",
"715 514 OFFCURVE",
"747 514 CURVE SMOOTH",
"784 514 OFFCURVE",
"783 477 OFFCURVE",
"783 439 CURVE SMOOTH",
"783 434 OFFCURVE",
"785 428 OFFCURVE",
"792 428 CURVE SMOOTH",
"860 427 LINE SMOOTH",
"865 427 OFFCURVE",
"867 433 OFFCURVE",
"868 438 CURVE SMOOTH",
"883 515 OFFCURVE",
"846 598 OFFCURVE",
"744 598 CURVE SMOOTH",
"666 598 OFFCURVE",
"614 554 OFFCURVE",
"614 447 CURVE SMOOTH",
"614 276 LINE SMOOTH",
"614 153 OFFCURVE",
"666 125 OFFCURVE",
"744 125 CURVE SMOOTH",
"846 125 OFFCURVE",
"868 198 OFFCURVE",
"868 285 CURVE SMOOTH"
);
}
);
};
components = (
{
name = whiteRoundedCornersSquare;
}
);
layerId = "9E4B8FD8-F8AF-4AA7-8E0D-0C907FFB2BDD";
paths = (
{
closed = 1;
nodes = (
"243 330 LINE",
"223 245 LINE SMOOTH",
"221 237 OFFCURVE",
"224 232 OFFCURVE",
"231 230 CURVE SMOOTH",
"242 227 LINE SMOOTH",
"248 225 OFFCURVE",
"254 227 OFFCURVE",
"258 232 CURVE SMOOTH",
"325 327 LINE",
"494 313 LINE",
"404 78 LINE SMOOTH",
"401 70 OFFCURVE",
"404 66 OFFCURVE",
"411 63 CURVE SMOOTH",
"450 49 LINE SMOOTH",
"457 46 OFFCURVE",
"462 47 OFFCURVE",
"467 53 CURVE SMOOTH",
"536 136 OFFCURVE",
"597 224 OFFCURVE",
"650 313 CURVE",
"800 311 LINE SMOOTH",
"846 310 OFFCURVE",
"891 332 OFFCURVE",
"891 359 CURVE SMOOTH",
"891 385 OFFCURVE",
"846 407 OFFCURVE",
"800 406 CURVE SMOOTH",
"650 404 LINE",
"597 493 OFFCURVE",
"536 581 OFFCURVE",
"467 664 CURVE SMOOTH",
"462 670 OFFCURVE",
"457 671 OFFCURVE",
"450 668 CURVE SMOOTH",
"411 654 LINE SMOOTH",
"404 651 OFFCURVE",
"401 647 OFFCURVE",
"404 639 CURVE SMOOTH",
"494 404 LINE",
"325 390 LINE",
"258 484 LINE SMOOTH",
"254 489 OFFCURVE",
"248 492 OFFCURVE",
"242 490 CURVE SMOOTH",
"231 486 LINE SMOOTH",
"224 484 OFFCURVE",
"221 480 OFFCURVE",
"223 472 CURVE SMOOTH",
"243 387 LINE",
"222 367 LINE SMOOTH",
"216 361 OFFCURVE",
"217 355 OFFCURVE",
"222 350 CURVE SMOOTH"
);
}
);
width = 1068;
},
{
associatedMasterId = "9E4B8FD8-F8AF-4AA7-8E0D-0C907FFB2BDD";
background = {
paths = (
{
closed = 1;
nodes = (
"139 806 LINE SMOOTH",
"85 806 OFFCURVE",
"40 762 OFFCURVE",
"40 708 CURVE SMOOTH",
"40 25 LINE SMOOTH",
"40 -29 OFFCURVE",
"85 -74 OFFCURVE",
"139 -74 CURVE SMOOTH",
"862 -74 LINE SMOOTH",
"916 -74 OFFCURVE",
"960 -29 OFFCURVE",
"960 25 CURVE SMOOTH",
"960 708 LINE SMOOTH",
"960 762 OFFCURVE",
"916 806 OFFCURVE",
"862 806 CURVE SMOOTH"
);
},
{
closed = 1;
nodes = (
"902 784 OFFCURVE",
"938 748 OFFCURVE",
"938 705 CURVE SMOOTH",
"938 28 LINE SMOOTH",
"938 -15 OFFCURVE",
"902 -52 OFFCURVE",
"859 -52 CURVE SMOOTH",
"142 -52 LINE SMOOTH",
"99 -52 OFFCURVE",
"62 -15 OFFCURVE",
"62 28 CURVE SMOOTH",
"62 705 LINE SMOOTH",
"62 748 OFFCURVE",
"99 784 OFFCURVE",
"142 784 CURVE SMOOTH",
"859 784 LINE SMOOTH"
);
},
{
closed = 1;
nodes = (
"266 185 LINE",
"266 97 LINE SMOOTH",
"266 92 OFFCURVE",
"270 88 OFFCURVE",
"275 88 CURVE SMOOTH",
"340 88 LINE SMOOTH",
"346 88 OFFCURVE",
"350 92 OFFCURVE",
"350 97 CURVE SMOOTH",
"350 185 LINE"
);
},
{
closed = 1;
nodes = (
"342 238 OFFCURVE",
"362 258 OFFCURVE",
"362 284 CURVE SMOOTH",
"362 309 OFFCURVE",
"342 329 OFFCURVE",
"317 329 CURVE SMOOTH",
"292 329 OFFCURVE",
"272 309 OFFCURVE",
"272 284 CURVE SMOOTH",
"272 258 OFFCURVE",
"292 238 OFFCURVE",
"317 238 CURVE SMOOTH"
);
},
{
closed = 1;
nodes = (
"655 97 LINE SMOOTH",
"655 92 OFFCURVE",
"659 88 OFFCURVE",
"665 88 CURVE SMOOTH",
"730 88 LINE SMOOTH",
"735 88 OFFCURVE",
"739 92 OFFCURVE",
"739 97 CURVE SMOOTH",
"739 185 LINE",
"655 185 LINE"
);
},
{
closed = 1;
nodes = (
"713 238 OFFCURVE",
"733 258 OFFCURVE",
"733 284 CURVE SMOOTH",
"733 309 OFFCURVE",
"713 329 OFFCURVE",
"688 329 CURVE SMOOTH",
"663 329 OFFCURVE",
"643 309 OFFCURVE",
"643 284 CURVE SMOOTH",
"643 258 OFFCURVE",
"663 238 OFFCURVE",
"688 238 CURVE SMOOTH"
);
},
{
closed = 1;
nodes = (
"271 560 LINE",
"260 397 LINE",
"745 397 LINE",
"734 560 LINE"
);
},
{
closed = 1;
nodes = (
"760 592 LINE",
"602 592 LINE",
"602 645 LINE",
"403 645 LINE",
"403 592 LINE",
"245 592 LINE",
"231 397 LINE",
"194 397 LINE",
"194 160 LINE",
"811 160 LINE",
"811 397 LINE",
"774 397 LINE"
);
},
{
closed = 1;
nodes = (
"400 310 LINE",
"400 290 LINE",
"605 290 LINE",
"605 310 LINE"
);
},
{
closed = 1;
nodes = (
"400 265 LINE",
"400 245 LINE",
"605 245 LINE",
"605 265 LINE"
);
}
);
};
layerId = "346C0EA8-9638-4244-B17D-E97A86FA40DB";
name = "Sep 8 17, 13:27";
paths = (
{
closed = 1;
nodes = (
"139 806 LINE SMOOTH",
"85 806 OFFCURVE",
"40 762 OFFCURVE",
"40 708 CURVE SMOOTH",
"40 25 LINE SMOOTH",
"40 -29 OFFCURVE",
"85 -74 OFFCURVE",
"139 -74 CURVE SMOOTH",
"862 -74 LINE SMOOTH",
"916 -74 OFFCURVE",
"960 -29 OFFCURVE",
"960 25 CURVE SMOOTH",
"960 708 LINE SMOOTH",
"960 762 OFFCURVE",
"916 806 OFFCURVE",
"862 806 CURVE SMOOTH"
);
},
{
closed = 1;
nodes = (
"902 784 OFFCURVE",
"938 748 OFFCURVE",
"938 705 CURVE SMOOTH",
"938 28 LINE SMOOTH",
"938 -15 OFFCURVE",
"902 -52 OFFCURVE",
"859 -52 CURVE SMOOTH",
"142 -52 LINE SMOOTH",
"99 -52 OFFCURVE",
"62 -15 OFFCURVE",
"62 28 CURVE SMOOTH",
"62 705 LINE SMOOTH",
"62 748 OFFCURVE",
"99 784 OFFCURVE",
"142 784 CURVE SMOOTH",
"859 784 LINE SMOOTH"
);
},
{
closed = 1;
nodes = (
"266 185 LINE",
"266 97 LINE SMOOTH",
"266 92 OFFCURVE",
"270 88 OFFCURVE",
"275 88 CURVE SMOOTH",
"340 88 LINE SMOOTH",
"346 88 OFFCURVE",
"350 92 OFFCURVE",
"350 97 CURVE SMOOTH",
"350 185 LINE"
);
},
{
closed = 1;
nodes = (
"342 238 OFFCURVE",
"362 258 OFFCURVE",
"362 284 CURVE SMOOTH",
"362 309 OFFCURVE",
"342 329 OFFCURVE",
"317 329 CURVE SMOOTH",
"292 329 OFFCURVE",
"272 309 OFFCURVE",
"272 284 CURVE SMOOTH",
"272 258 OFFCURVE",
"292 238 OFFCURVE",
"317 238 CURVE SMOOTH"
);
},
{
closed = 1;
nodes = (
"655 97 LINE SMOOTH",
"655 92 OFFCURVE",
"659 88 OFFCURVE",
"665 88 CURVE SMOOTH",
"730 88 LINE SMOOTH",
"735 88 OFFCURVE",
"739 92 OFFCURVE",
"739 97 CURVE SMOOTH",
"739 185 LINE",
"655 185 LINE"
);
},
{
closed = 1;
nodes = (
"713 238 OFFCURVE",
"733 258 OFFCURVE",
"733 284 CURVE SMOOTH",
"733 309 OFFCURVE",
"713 329 OFFCURVE",
"688 329 CURVE SMOOTH",
"663 329 OFFCURVE",
"643 309 OFFCURVE",
"643 284 CURVE SMOOTH",
"643 258 OFFCURVE",
"663 238 OFFCURVE",
"688 238 CURVE SMOOTH"
);
},
{
closed = 1;
nodes = (
"271 560 LINE",
"260 397 LINE",
"745 397 LINE",
"734 560 LINE"
);
},
{
closed = 1;
nodes = (
"760 592 LINE",
"602 592 LINE",
"602 645 LINE",
"403 645 LINE",
"403 592 LINE",
"245 592 LINE",
"231 397 LINE",
"194 397 LINE",
"194 160 LINE",
"811 160 LINE",
"811 397 LINE",
"774 397 LINE"
);
},
{
closed = 1;
nodes = (
"400 310 LINE",
"400 290 LINE",
"605 290 LINE",
"605 310 LINE"
);
},
{
closed = 1;
nodes = (
"400 265 LINE",
"400 245 LINE",
"605 245 LINE",
"605 265 LINE"
);
}
);
width = 1000;
}
);
unicode = 00E5;
},
{
glyphname = atilde;
lastChange = "2018-03-12 12:07:02 +0000";
layers = (
{
annotations = (
{
position = "{1507.758, 722.969}";
type = Text;
}
);
background = {
paths = (
{
closed = 1;
nodes = (
"110 -75 OFFCURVE",
"75 -40 OFFCURVE",
"75 24 CURVE SMOOTH",
"75 692 LINE SMOOTH",
"75 756 OFFCURVE",
"110 791 OFFCURVE",
"174 791 CURVE SMOOTH",
"895 791 LINE SMOOTH",
"959 791 OFFCURVE",
"994 756 OFFCURVE",
"994 692 CURVE SMOOTH",
"994 24 LINE SMOOTH",
"994 -40 OFFCURVE",
"959 -75 OFFCURVE",
"895 -75 CURVE SMOOTH",
"174 -75 LINE SMOOTH"
);
},
{
closed = 1;
nodes = (
"342 132 LINE SMOOTH",
"346 132 OFFCURVE",
"349 134 OFFCURVE",
"350 139 CURVE SMOOTH",
"372 280 LINE SMOOTH",
"376 308 OFFCURVE",
"379 333 OFFCURVE",
"381 361 CURVE",
"383 361 LINE",
"384 333 OFFCURVE",
"386 308 OFFCURVE",
"390 280 CURVE SMOOTH",
"408 138 LINE SMOOTH",
"408 135 OFFCURVE",
"412 132 OFFCURVE",
"415 132 CURVE SMOOTH",
"504 132 LINE SMOOTH",
"508 132 OFFCURVE",
"510 135 OFFCURVE",
"511 139 CURVE SMOOTH",
"576 580 LINE SMOOTH",
"577 587 OFFCURVE",
"574 591 OFFCURVE",
"570 591 CURVE SMOOTH",
"495 591 LINE SMOOTH",
"491 591 OFFCURVE",
"487 588 OFFCURVE",
"487 584 CURVE SMOOTH",
"466 324 LINE SMOOTH",
"464 294 OFFCURVE",
"462 264 OFFCURVE",
"460 234 CURVE",
"458 234 LINE",
"455 264 OFFCURVE",
"452 293 OFFCURVE",
"449 323 CURVE SMOOTH",
"422 574 LINE SMOOTH",
"422 578 OFFCURVE",
"419 580 OFFCURVE",
"416 580 CURVE SMOOTH",
"332 580 LINE SMOOTH",
"328 580 OFFCURVE",
"325 578 OFFCURVE",
"326 572 CURVE SMOOTH",
"344 489 LINE",
"317 324 LINE SMOOTH",
"312 294 OFFCURVE",
"309 264 OFFCURVE",
"305 234 CURVE",
"303 234 LINE",
"302 264 OFFCURVE",
"301 295 OFFCURVE",
"298 325 CURVE SMOOTH",
"276 584 LINE SMOOTH",
"276 588 OFFCURVE",
"272 591 OFFCURVE",
"267 591 CURVE SMOOTH",
"191 591 LINE SMOOTH",
"187 591 OFFCURVE",
"184 587 OFFCURVE",
"185 580 CURVE SMOOTH",
"250 138 LINE SMOOTH",
"250 135 OFFCURVE",
"252 132 OFFCURVE",
"257 132 CURVE SMOOTH"
);
},
{
closed = 1;
nodes = (
"868 290 OFFCURVE",
"865 296 OFFCURVE",
"860 296 CURVE SMOOTH",
"792 295 LINE SMOOTH",
"785 295 OFFCURVE",
"783 289 OFFCURVE",
"783 284 CURVE SMOOTH",
"783 246 OFFCURVE",
"784 209 OFFCURVE",
"747 209 CURVE SMOOTH",
"715 209 OFFCURVE",
"704 231 OFFCURVE",
"704 281 CURVE SMOOTH",
"704 442 LINE SMOOTH",
"704 493 OFFCURVE",
"715 514 OFFCURVE",
"747 514 CURVE SMOOTH",
"784 514 OFFCURVE",
"783 477 OFFCURVE",
"783 439 CURVE SMOOTH",
"783 434 OFFCURVE",
"785 428 OFFCURVE",
"792 428 CURVE SMOOTH",
"860 427 LINE SMOOTH",
"865 427 OFFCURVE",
"867 433 OFFCURVE",
"868 438 CURVE SMOOTH",
"883 515 OFFCURVE",
"846 598 OFFCURVE",
"744 598 CURVE SMOOTH",
"666 598 OFFCURVE",
"614 554 OFFCURVE",
"614 447 CURVE SMOOTH",
"614 276 LINE SMOOTH",
"614 153 OFFCURVE",
"666 125 OFFCURVE",
"744 125 CURVE SMOOTH",
"846 125 OFFCURVE",
"868 198 OFFCURVE",
"868 285 CURVE SMOOTH"
);
}
);
};
components = (
{
name = blackSquare.roundBlackBox;
}
);
layerId = "9E4B8FD8-F8AF-4AA7-8E0D-0C907FFB2BDD";
paths = (
{
closed = 1;
nodes = (
"243 330 LINE",
"223 245 LINE SMOOTH",
"221 237 OFFCURVE",
"224 232 OFFCURVE",
"231 230 CURVE SMOOTH",
"242 227 LINE SMOOTH",
"248 225 OFFCURVE",
"254 227 OFFCURVE",
"258 232 CURVE SMOOTH",
"325 327 LINE",
"494 313 LINE",
"404 78 LINE SMOOTH",
"401 70 OFFCURVE",
"404 66 OFFCURVE",
"411 63 CURVE SMOOTH",
"450 49 LINE SMOOTH",
"457 46 OFFCURVE",
"462 47 OFFCURVE",
"467 53 CURVE SMOOTH",
"536 136 OFFCURVE",
"597 224 OFFCURVE",
"650 313 CURVE",
"800 311 LINE SMOOTH",
"846 310 OFFCURVE",
"891 332 OFFCURVE",
"891 359 CURVE SMOOTH",
"891 385 OFFCURVE",
"846 407 OFFCURVE",
"800 406 CURVE SMOOTH",
"650 404 LINE",
"597 493 OFFCURVE",
"536 581 OFFCURVE",
"467 664 CURVE SMOOTH",
"462 670 OFFCURVE",
"457 671 OFFCURVE",
"450 668 CURVE SMOOTH",
"411 654 LINE SMOOTH",
"404 651 OFFCURVE",
"401 647 OFFCURVE",
"404 639 CURVE SMOOTH",
"494 404 LINE",
"325 390 LINE",
"258 484 LINE SMOOTH",
"254 489 OFFCURVE",
"248 492 OFFCURVE",
"242 490 CURVE SMOOTH",
"231 486 LINE SMOOTH",
"224 484 OFFCURVE",
"221 480 OFFCURVE",
"223 472 CURVE SMOOTH",
"243 387 LINE",
"222 367 LINE SMOOTH",
"216 361 OFFCURVE",
"217 355 OFFCURVE",
"222 350 CURVE SMOOTH"
);
}
);
width = 1068;
},
{
associatedMasterId = "9E4B8FD8-F8AF-4AA7-8E0D-0C907FFB2BDD";
background = {
paths = (
{
closed = 1;
nodes = (
"139 806 LINE SMOOTH",
"85 806 OFFCURVE",
"40 762 OFFCURVE",
"40 708 CURVE SMOOTH",
"40 25 LINE SMOOTH",
"40 -29 OFFCURVE",
"85 -74 OFFCURVE",
"139 -74 CURVE SMOOTH",
"862 -74 LINE SMOOTH",
"916 -74 OFFCURVE",
"960 -29 OFFCURVE",
"960 25 CURVE SMOOTH",
"960 708 LINE SMOOTH",
"960 762 OFFCURVE",
"916 806 OFFCURVE",
"862 806 CURVE SMOOTH"
);
},
{
closed = 1;
nodes = (
"902 784 OFFCURVE",
"938 748 OFFCURVE",
"938 705 CURVE SMOOTH",
"938 28 LINE SMOOTH",
"938 -15 OFFCURVE",
"902 -52 OFFCURVE",
"859 -52 CURVE SMOOTH",
"142 -52 LINE SMOOTH",
"99 -52 OFFCURVE",
"62 -15 OFFCURVE",
"62 28 CURVE SMOOTH",
"62 705 LINE SMOOTH",
"62 748 OFFCURVE",
"99 784 OFFCURVE",
"142 784 CURVE SMOOTH",
"859 784 LINE SMOOTH"
);
},
{
closed = 1;
nodes = (
"266 185 LINE",
"266 97 LINE SMOOTH",
"266 92 OFFCURVE",
"270 88 OFFCURVE",
"275 88 CURVE SMOOTH",
"340 88 LINE SMOOTH",
"346 88 OFFCURVE",
"350 92 OFFCURVE",
"350 97 CURVE SMOOTH",
"350 185 LINE"
);
},
{
closed = 1;
nodes = (
"342 238 OFFCURVE",
"362 258 OFFCURVE",
"362 284 CURVE SMOOTH",
"362 309 OFFCURVE",
"342 329 OFFCURVE",
"317 329 CURVE SMOOTH",
"292 329 OFFCURVE",
"272 309 OFFCURVE",
"272 284 CURVE SMOOTH",
"272 258 OFFCURVE",
"292 238 OFFCURVE",
"317 238 CURVE SMOOTH"
);
},
{
closed = 1;
nodes = (
"655 97 LINE SMOOTH",
"655 92 OFFCURVE",
"659 88 OFFCURVE",
"665 88 CURVE SMOOTH",
"730 88 LINE SMOOTH",
"735 88 OFFCURVE",
"739 92 OFFCURVE",
"739 97 CURVE SMOOTH",
"739 185 LINE",
"655 185 LINE"
);
},
{
closed = 1;
nodes = (
"713 238 OFFCURVE",
"733 258 OFFCURVE",
"733 284 CURVE SMOOTH",
"733 309 OFFCURVE",
"713 329 OFFCURVE",
"688 329 CURVE SMOOTH",
"663 329 OFFCURVE",
"643 309 OFFCURVE",
"643 284 CURVE SMOOTH",
"643 258 OFFCURVE",
"663 238 OFFCURVE",
"688 238 CURVE SMOOTH"
);
},
{
closed = 1;
nodes = (
"271 560 LINE",
"260 397 LINE",
"745 397 LINE",
"734 560 LINE"
);
},
{
closed = 1;
nodes = (
"760 592 LINE",
"602 592 LINE",
"602 645 LINE",
"403 645 LINE",
"403 592 LINE",
"245 592 LINE",
"231 397 LINE",
"194 397 LINE",
"194 160 LINE",
"811 160 LINE",
"811 397 LINE",
"774 397 LINE"
);
},
{
closed = 1;
nodes = (
"400 310 LINE",
"400 290 LINE",
"605 290 LINE",
"605 310 LINE"
);
},
{
closed = 1;
nodes = (
"400 265 LINE",
"400 245 LINE",
"605 245 LINE",
"605 265 LINE"
);
}
);
};
layerId = "346C0EA8-9638-4244-B17D-E97A86FA40DB";
name = "Sep 8 17, 13:27";
paths = (
{
closed = 1;
nodes = (
"139 806 LINE SMOOTH",
"85 806 OFFCURVE",
"40 762 OFFCURVE",
"40 708 CURVE SMOOTH",
"40 25 LINE SMOOTH",
"40 -29 OFFCURVE",
"85 -74 OFFCURVE",
"139 -74 CURVE SMOOTH",
"862 -74 LINE SMOOTH",
"916 -74 OFFCURVE",
"960 -29 OFFCURVE",
"960 25 CURVE SMOOTH",
"960 708 LINE SMOOTH",
"960 762 OFFCURVE",
"916 806 OFFCURVE",
"862 806 CURVE SMOOTH"
);
},
{
closed = 1;
nodes = (
"902 784 OFFCURVE",
"938 748 OFFCURVE",
"938 705 CURVE SMOOTH",
"938 28 LINE SMOOTH",
"938 -15 OFFCURVE",
"902 -52 OFFCURVE",
"859 -52 CURVE SMOOTH",
"142 -52 LINE SMOOTH",
"99 -52 OFFCURVE",
"62 -15 OFFCURVE",
"62 28 CURVE SMOOTH",
"62 705 LINE SMOOTH",
"62 748 OFFCURVE",
"99 784 OFFCURVE",
"142 784 CURVE SMOOTH",
"859 784 LINE SMOOTH"
);
},
{
closed = 1;
nodes = (
"266 185 LINE",
"266 97 LINE SMOOTH",
"266 92 OFFCURVE",
"270 88 OFFCURVE",
"275 88 CURVE SMOOTH",
"340 88 LINE SMOOTH",
"346 88 OFFCURVE",
"350 92 OFFCURVE",
"350 97 CURVE SMOOTH",
"350 185 LINE"
);
},
{
closed = 1;
nodes = (
"342 238 OFFCURVE",
"362 258 OFFCURVE",
"362 284 CURVE SMOOTH",
"362 309 OFFCURVE",
"342 329 OFFCURVE",
"317 329 CURVE SMOOTH",
"292 329 OFFCURVE",
"272 309 OFFCURVE",
"272 284 CURVE SMOOTH",
"272 258 OFFCURVE",
"292 238 OFFCURVE",
"317 238 CURVE SMOOTH"
);
},
{
closed = 1;
nodes = (
"655 97 LINE SMOOTH",
"655 92 OFFCURVE",
"659 88 OFFCURVE",
"665 88 CURVE SMOOTH",
"730 88 LINE SMOOTH",
"735 88 OFFCURVE",
"739 92 OFFCURVE",
"739 97 CURVE SMOOTH",
"739 185 LINE",
"655 185 LINE"
);
},
{
closed = 1;
nodes = (
"713 238 OFFCURVE",
"733 258 OFFCURVE",
"733 284 CURVE SMOOTH",
"733 309 OFFCURVE",
"713 329 OFFCURVE",
"688 329 CURVE SMOOTH",
"663 329 OFFCURVE",
"643 309 OFFCURVE",
"643 284 CURVE SMOOTH",
"643 258 OFFCURVE",
"663 238 OFFCURVE",
"688 238 CURVE SMOOTH"
);
},
{
closed = 1;
nodes = (
"271 560 LINE",
"260 397 LINE",
"745 397 LINE",
"734 560 LINE"
);
},
{
closed = 1;
nodes = (
"760 592 LINE",
"602 592 LINE",
"602 645 LINE",
"403 645 LINE",
"403 592 LINE",
"245 592 LINE",
"231 397 LINE",
"194 397 LINE",
"194 160 LINE",
"811 160 LINE",
"811 397 LINE",
"774 397 LINE"
);
},
{
closed = 1;
nodes = (
"400 310 LINE",
"400 290 LINE",
"605 290 LINE",
"605 310 LINE"
);
},
{
closed = 1;
nodes = (
"400 265 LINE",
"400 245 LINE",
"605 245 LINE",
"605 265 LINE"
);
}
);
width = 1000;
}
);
unicode = 00E3;
},
{
glyphname = b;
lastChange = "2018-03-12 12:07:02 +0000";
layers = (
{
background = {
components = (
{
name = whiteRoundedCornersSquare;
transform = "{1, 0, 0, 1, 10, 0}";
}
);
paths = (
{
closed = 1;
nodes = (
"404 89 LINE SMOOTH",
"411 89 OFFCURVE",
"417 94 OFFCURVE",
"417 102 CURVE SMOOTH",
"417 295 LINE",
"603 295 LINE",
"603 102 LINE SMOOTH",
"603 94 OFFCURVE",
"608 89 OFFCURVE",
"616 89 CURVE SMOOTH",
"748 89 LINE SMOOTH",
"755 89 OFFCURVE",
"761 94 OFFCURVE",
"761 102 CURVE SMOOTH",
"761 622 LINE SMOOTH",
"761 631 OFFCURVE",
"755 635 OFFCURVE",
"748 635 CURVE SMOOTH",
"616 635 LINE SMOOTH",
"608 635 OFFCURVE",
"603 631 OFFCURVE",
"603 622 CURVE SMOOTH",
"603 427 LINE",
"417 427 LINE",
"417 622 LINE SMOOTH",
"417 631 OFFCURVE",
"411 635 OFFCURVE",
"404 635 CURVE SMOOTH",
"272 635 LINE SMOOTH",
"264 635 OFFCURVE",
"259 631 OFFCURVE",
"259 622 CURVE SMOOTH",
"259 102 LINE SMOOTH",
"259 94 OFFCURVE",
"264 89 OFFCURVE",
"272 89 CURVE SMOOTH"
);
}
);
};
components = (
{
name = largecircle;
}
);
layerId = "9E4B8FD8-F8AF-4AA7-8E0D-0C907FFB2BDD";
paths = (
{
closed = 1;
nodes = (
"242 330 LINE",
"222 245 LINE SMOOTH",
"220 237 OFFCURVE",
"223 232 OFFCURVE",
"230 230 CURVE SMOOTH",
"241 227 LINE SMOOTH",
"247 225 OFFCURVE",
"253 227 OFFCURVE",
"257 232 CURVE SMOOTH",
"324 327 LINE",
"493 313 LINE",
"403 78 LINE SMOOTH",
"400 70 OFFCURVE",
"403 66 OFFCURVE",
"410 63 CURVE SMOOTH",
"449 49 LINE SMOOTH",
"456 46 OFFCURVE",
"461 47 OFFCURVE",
"466 53 CURVE SMOOTH",
"535 136 OFFCURVE",
"596 224 OFFCURVE",
"649 313 CURVE",
"799 311 LINE SMOOTH",
"845 310 OFFCURVE",
"890 332 OFFCURVE",
"890 359 CURVE SMOOTH",
"890 385 OFFCURVE",
"845 407 OFFCURVE",
"799 406 CURVE SMOOTH",
"649 404 LINE",
"596 493 OFFCURVE",
"535 581 OFFCURVE",
"466 664 CURVE SMOOTH",
"461 670 OFFCURVE",
"456 671 OFFCURVE",
"449 668 CURVE SMOOTH",
"410 654 LINE SMOOTH",
"403 651 OFFCURVE",
"400 647 OFFCURVE",
"403 639 CURVE SMOOTH",
"493 404 LINE",
"324 390 LINE",
"257 484 LINE SMOOTH",
"253 489 OFFCURVE",
"247 492 OFFCURVE",
"241 490 CURVE SMOOTH",
"230 486 LINE SMOOTH",
"223 484 OFFCURVE",
"220 480 OFFCURVE",
"222 472 CURVE SMOOTH",
"242 387 LINE",
"221 367 LINE SMOOTH",
"215 361 OFFCURVE",
"216 355 OFFCURVE",
"221 350 CURVE SMOOTH"
);
}
);
width = 1068;
}
);
unicode = 0062;
},
{
glyphname = c;
lastChange = "2018-03-12 12:07:02 +0000";
layers = (
{
background = {
paths = (
{
closed = 1;
nodes = (
"139 791 LINE SMOOTH",
"75 791 OFFCURVE",
"40 756 OFFCURVE",
"40 692 CURVE SMOOTH",
"40 24 LINE SMOOTH",
"40 -40 OFFCURVE",
"75 -75 OFFCURVE",
"139 -75 CURVE SMOOTH",
"860 -75 LINE SMOOTH",
"924 -75 OFFCURVE",
"959 -40 OFFCURVE",
"959 24 CURVE SMOOTH",
"959 692 LINE SMOOTH",
"959 756 OFFCURVE",
"924 791 OFFCURVE",
"860 791 CURVE SMOOTH"
);
},
{
closed = 1;
nodes = (
"254 89 OFFCURVE",
"249 94 OFFCURVE",
"249 102 CURVE SMOOTH",
"249 622 LINE SMOOTH",
"249 631 OFFCURVE",
"254 635 OFFCURVE",
"262 635 CURVE SMOOTH",
"394 635 LINE SMOOTH",
"401 635 OFFCURVE",
"407 631 OFFCURVE",
"407 622 CURVE SMOOTH",
"407 427 LINE",
"593 427 LINE",
"593 622 LINE SMOOTH",
"593 631 OFFCURVE",
"598 635 OFFCURVE",
"606 635 CURVE SMOOTH",
"738 635 LINE SMOOTH",
"745 635 OFFCURVE",
"751 631 OFFCURVE",
"751 622 CURVE SMOOTH",
"751 102 LINE SMOOTH",
"751 94 OFFCURVE",
"745 89 OFFCURVE",
"738 89 CURVE SMOOTH",
"606 89 LINE SMOOTH",
"598 89 OFFCURVE",
"593 94 OFFCURVE",
"593 102 CURVE SMOOTH",
"593 295 LINE",
"407 295 LINE",
"407 102 LINE SMOOTH",
"407 94 OFFCURVE",
"401 89 OFFCURVE",
"394 89 CURVE SMOOTH",
"262 89 LINE SMOOTH"
);
}
);
};
components = (
{
name = blackLargeCircle;
}
);
layerId = "9E4B8FD8-F8AF-4AA7-8E0D-0C907FFB2BDD";
paths = (
{
closed = 1;
nodes = (
"243 330 LINE",
"223 245 LINE SMOOTH",
"221 237 OFFCURVE",
"224 232 OFFCURVE",
"231 230 CURVE SMOOTH",
"242 227 LINE SMOOTH",
"248 225 OFFCURVE",
"254 227 OFFCURVE",
"258 232 CURVE SMOOTH",
"325 327 LINE",
"494 313 LINE",
"404 78 LINE SMOOTH",
"401 70 OFFCURVE",
"404 66 OFFCURVE",
"411 63 CURVE SMOOTH",
"450 49 LINE SMOOTH",
"457 46 OFFCURVE",
"462 47 OFFCURVE",
"467 53 CURVE SMOOTH",
"536 136 OFFCURVE",
"597 224 OFFCURVE",
"650 313 CURVE",
"800 311 LINE SMOOTH",
"846 310 OFFCURVE",
"891 332 OFFCURVE",
"891 359 CURVE SMOOTH",
"891 385 OFFCURVE",
"846 407 OFFCURVE",
"800 406 CURVE SMOOTH",
"650 404 LINE",
"597 493 OFFCURVE",
"536 581 OFFCURVE",
"467 664 CURVE SMOOTH",
"462 670 OFFCURVE",
"457 671 OFFCURVE",
"450 668 CURVE SMOOTH",
"411 654 LINE SMOOTH",
"404 651 OFFCURVE",
"401 647 OFFCURVE",
"404 639 CURVE SMOOTH",
"494 404 LINE",
"325 390 LINE",
"258 484 LINE SMOOTH",
"254 489 OFFCURVE",
"248 492 OFFCURVE",
"242 490 CURVE SMOOTH",
"231 486 LINE SMOOTH",
"224 484 OFFCURVE",
"221 480 OFFCURVE",
"223 472 CURVE SMOOTH",
"243 387 LINE",
"222 367 LINE SMOOTH",
"216 361 OFFCURVE",
"217 355 OFFCURVE",
"222 350 CURVE SMOOTH"
);
}
);
width = 1068;
},
{
associatedMasterId = "9E4B8FD8-F8AF-4AA7-8E0D-0C907FFB2BDD";
background = {
paths = (
{
closed = 1;
nodes = (
"139 806 LINE SMOOTH",
"85 806 OFFCURVE",
"40 762 OFFCURVE",
"40 708 CURVE SMOOTH",
"40 25 LINE SMOOTH",
"40 -29 OFFCURVE",
"85 -74 OFFCURVE",
"139 -74 CURVE SMOOTH",
"862 -74 LINE SMOOTH",
"916 -74 OFFCURVE",
"960 -29 OFFCURVE",
"960 25 CURVE SMOOTH",
"960 708 LINE SMOOTH",
"960 762 OFFCURVE",
"916 806 OFFCURVE",
"862 806 CURVE SMOOTH"
);
},
{
closed = 1;
nodes = (
"902 784 OFFCURVE",
"938 748 OFFCURVE",
"938 705 CURVE SMOOTH",
"938 28 LINE SMOOTH",
"938 -15 OFFCURVE",
"902 -52 OFFCURVE",
"859 -52 CURVE SMOOTH",
"142 -52 LINE SMOOTH",
"99 -52 OFFCURVE",
"62 -15 OFFCURVE",
"62 28 CURVE SMOOTH",
"62 705 LINE SMOOTH",
"62 748 OFFCURVE",
"99 784 OFFCURVE",
"142 784 CURVE SMOOTH",
"859 784 LINE SMOOTH"
);
},
{
closed = 1;
nodes = (
"266 185 LINE",
"266 97 LINE SMOOTH",
"266 92 OFFCURVE",
"270 88 OFFCURVE",
"275 88 CURVE SMOOTH",
"340 88 LINE SMOOTH",
"346 88 OFFCURVE",
"350 92 OFFCURVE",
"350 97 CURVE SMOOTH",
"350 185 LINE"
);
},
{
closed = 1;
nodes = (
"342 238 OFFCURVE",
"362 258 OFFCURVE",
"362 284 CURVE SMOOTH",
"362 309 OFFCURVE",
"342 329 OFFCURVE",
"317 329 CURVE SMOOTH",
"292 329 OFFCURVE",
"272 309 OFFCURVE",
"272 284 CURVE SMOOTH",
"272 258 OFFCURVE",
"292 238 OFFCURVE",
"317 238 CURVE SMOOTH"
);
},
{
closed = 1;
nodes = (
"655 97 LINE SMOOTH",
"655 92 OFFCURVE",
"659 88 OFFCURVE",
"665 88 CURVE SMOOTH",
"730 88 LINE SMOOTH",
"735 88 OFFCURVE",
"739 92 OFFCURVE",
"739 97 CURVE SMOOTH",
"739 185 LINE",
"655 185 LINE"
);
},
{
closed = 1;
nodes = (
"713 238 OFFCURVE",
"733 258 OFFCURVE",
"733 284 CURVE SMOOTH",
"733 309 OFFCURVE",
"713 329 OFFCURVE",
"688 329 CURVE SMOOTH",
"663 329 OFFCURVE",
"643 309 OFFCURVE",
"643 284 CURVE SMOOTH",
"643 258 OFFCURVE",
"663 238 OFFCURVE",
"688 238 CURVE SMOOTH"
);
},
{
closed = 1;
nodes = (
"271 560 LINE",
"260 397 LINE",
"745 397 LINE",
"734 560 LINE"
);
},
{
closed = 1;
nodes = (
"760 592 LINE",
"602 592 LINE",
"602 645 LINE",
"403 645 LINE",
"403 592 LINE",
"245 592 LINE",
"231 397 LINE",
"194 397 LINE",
"194 160 LINE",
"811 160 LINE",
"811 397 LINE",
"774 397 LINE"
);
},
{
closed = 1;
nodes = (
"400 310 LINE",
"400 290 LINE",
"605 290 LINE",
"605 310 LINE"
);
},
{
closed = 1;
nodes = (
"400 265 LINE",
"400 245 LINE",
"605 245 LINE",
"605 265 LINE"
);
}
);
};
layerId = "346C0EA8-9638-4244-B17D-E97A86FA40DB";
name = "Sep 8 17, 13:27";
paths = (
{
closed = 1;
nodes = (
"139 806 LINE SMOOTH",
"85 806 OFFCURVE",
"40 762 OFFCURVE",
"40 708 CURVE SMOOTH",
"40 25 LINE SMOOTH",
"40 -29 OFFCURVE",
"85 -74 OFFCURVE",
"139 -74 CURVE SMOOTH",
"862 -74 LINE SMOOTH",
"916 -74 OFFCURVE",
"960 -29 OFFCURVE",
"960 25 CURVE SMOOTH",
"960 708 LINE SMOOTH",
"960 762 OFFCURVE",
"916 806 OFFCURVE",
"862 806 CURVE SMOOTH"
);
},
{
closed = 1;
nodes = (
"902 784 OFFCURVE",
"938 748 OFFCURVE",
"938 705 CURVE SMOOTH",
"938 28 LINE SMOOTH",
"938 -15 OFFCURVE",
"902 -52 OFFCURVE",
"859 -52 CURVE SMOOTH",
"142 -52 LINE SMOOTH",
"99 -52 OFFCURVE",
"62 -15 OFFCURVE",
"62 28 CURVE SMOOTH",
"62 705 LINE SMOOTH",
"62 748 OFFCURVE",
"99 784 OFFCURVE",
"142 784 CURVE SMOOTH",
"859 784 LINE SMOOTH"
);
},
{
closed = 1;
nodes = (
"266 185 LINE",
"266 97 LINE SMOOTH",
"266 92 OFFCURVE",
"270 88 OFFCURVE",
"275 88 CURVE SMOOTH",
"340 88 LINE SMOOTH",
"346 88 OFFCURVE",
"350 92 OFFCURVE",
"350 97 CURVE SMOOTH",
"350 185 LINE"
);
},
{
closed = 1;
nodes = (
"342 238 OFFCURVE",
"362 258 OFFCURVE",
"362 284 CURVE SMOOTH",
"362 309 OFFCURVE",
"342 329 OFFCURVE",
"317 329 CURVE SMOOTH",
"292 329 OFFCURVE",
"272 309 OFFCURVE",
"272 284 CURVE SMOOTH",
"272 258 OFFCURVE",
"292 238 OFFCURVE",
"317 238 CURVE SMOOTH"
);
},
{
closed = 1;
nodes = (
"655 97 LINE SMOOTH",
"655 92 OFFCURVE",
"659 88 OFFCURVE",
"665 88 CURVE SMOOTH",
"730 88 LINE SMOOTH",
"735 88 OFFCURVE",
"739 92 OFFCURVE",
"739 97 CURVE SMOOTH",
"739 185 LINE",
"655 185 LINE"
);
},
{
closed = 1;
nodes = (
"713 238 OFFCURVE",
"733 258 OFFCURVE",
"733 284 CURVE SMOOTH",
"733 309 OFFCURVE",
"713 329 OFFCURVE",
"688 329 CURVE SMOOTH",
"663 329 OFFCURVE",
"643 309 OFFCURVE",
"643 284 CURVE SMOOTH",
"643 258 OFFCURVE",
"663 238 OFFCURVE",
"688 238 CURVE SMOOTH"
);
},
{
closed = 1;
nodes = (
"271 560 LINE",
"260 397 LINE",
"745 397 LINE",
"734 560 LINE"
);
},
{
closed = 1;
nodes = (
"760 592 LINE",
"602 592 LINE",
"602 645 LINE",
"403 645 LINE",
"403 592 LINE",
"245 592 LINE",
"231 397 LINE",
"194 397 LINE",
"194 160 LINE",
"811 160 LINE",
"811 397 LINE",
"774 397 LINE"
);
},
{
closed = 1;
nodes = (
"400 310 LINE",
"400 290 LINE",
"605 290 LINE",
"605 310 LINE"
);
},
{
closed = 1;
nodes = (
"400 265 LINE",
"400 245 LINE",
"605 245 LINE",
"605 265 LINE"
);
}
);
width = 1000;
}
);
unicode = 0063;
},
{
glyphname = ccedilla;
lastChange = "2018-03-12 12:07:02 +0000";
layers = (
{
background = {
components = (
{
name = whiteRoundedCornersSquare;
transform = "{1, 0, 0, 1, 15, 0}";
}
);
paths = (
{
closed = 1;
nodes = (
"322 132 LINE SMOOTH",
"326 132 OFFCURVE",
"329 134 OFFCURVE",
"330 139 CURVE SMOOTH",
"352 280 LINE SMOOTH",
"356 308 OFFCURVE",
"359 333 OFFCURVE",
"361 361 CURVE",
"363 361 LINE",
"364 333 OFFCURVE",
"366 308 OFFCURVE",
"370 280 CURVE SMOOTH",
"388 138 LINE SMOOTH",
"388 135 OFFCURVE",
"392 132 OFFCURVE",
"395 132 CURVE SMOOTH",
"484 132 LINE SMOOTH",
"488 132 OFFCURVE",
"490 135 OFFCURVE",
"491 139 CURVE SMOOTH",
"556 580 LINE SMOOTH",
"557 587 OFFCURVE",
"554 591 OFFCURVE",
"550 591 CURVE SMOOTH",
"475 591 LINE SMOOTH",
"471 591 OFFCURVE",
"467 588 OFFCURVE",
"467 584 CURVE SMOOTH",
"446 324 LINE SMOOTH",
"444 294 OFFCURVE",
"442 264 OFFCURVE",
"440 234 CURVE",
"438 234 LINE",
"435 264 OFFCURVE",
"432 293 OFFCURVE",
"429 323 CURVE SMOOTH",
"402 574 LINE SMOOTH",
"402 578 OFFCURVE",
"399 580 OFFCURVE",
"396 580 CURVE SMOOTH",
"312 580 LINE SMOOTH",
"308 580 OFFCURVE",
"305 578 OFFCURVE",
"306 572 CURVE SMOOTH",
"324 489 LINE",
"297 324 LINE SMOOTH",
"292 294 OFFCURVE",
"289 264 OFFCURVE",
"285 234 CURVE",
"283 234 LINE",
"282 264 OFFCURVE",
"281 295 OFFCURVE",
"278 325 CURVE SMOOTH",
"256 584 LINE SMOOTH",
"256 588 OFFCURVE",
"252 591 OFFCURVE",
"247 591 CURVE SMOOTH",
"171 591 LINE SMOOTH",
"167 591 OFFCURVE",
"164 587 OFFCURVE",
"165 580 CURVE SMOOTH",
"230 138 LINE SMOOTH",
"230 135 OFFCURVE",
"232 132 OFFCURVE",
"237 132 CURVE SMOOTH"
);
},
{
closed = 1;
nodes = (
"848 290 OFFCURVE",
"845 296 OFFCURVE",
"840 296 CURVE SMOOTH",
"772 295 LINE SMOOTH",
"765 295 OFFCURVE",
"763 289 OFFCURVE",
"763 284 CURVE SMOOTH",
"763 246 OFFCURVE",
"764 209 OFFCURVE",
"727 209 CURVE SMOOTH",
"695 209 OFFCURVE",
"684 231 OFFCURVE",
"684 281 CURVE SMOOTH",
"684 442 LINE SMOOTH",
"684 493 OFFCURVE",
"695 514 OFFCURVE",
"727 514 CURVE SMOOTH",
"764 514 OFFCURVE",
"763 477 OFFCURVE",
"763 439 CURVE SMOOTH",
"763 434 OFFCURVE",
"765 428 OFFCURVE",
"772 428 CURVE SMOOTH",
"840 427 LINE SMOOTH",
"845 427 OFFCURVE",
"847 433 OFFCURVE",
"848 438 CURVE SMOOTH",
"863 515 OFFCURVE",
"826 598 OFFCURVE",
"724 598 CURVE SMOOTH",
"646 598 OFFCURVE",
"594 554 OFFCURVE",
"594 447 CURVE SMOOTH",
"594 276 LINE SMOOTH",
"594 153 OFFCURVE",
"646 125 OFFCURVE",
"724 125 CURVE SMOOTH",
"826 125 OFFCURVE",
"848 198 OFFCURVE",
"848 285 CURVE SMOOTH"
);
}
);
};
layerId = "9E4B8FD8-F8AF-4AA7-8E0D-0C907FFB2BDD";
paths = (
{
closed = 1;
nodes = (
"223 330 LINE",
"203 245 LINE SMOOTH",
"201 237 OFFCURVE",
"204 232 OFFCURVE",
"211 230 CURVE SMOOTH",
"222 227 LINE SMOOTH",
"228 225 OFFCURVE",
"234 227 OFFCURVE",
"238 232 CURVE SMOOTH",
"305 327 LINE",
"474 313 LINE",
"384 78 LINE SMOOTH",
"381 70 OFFCURVE",
"384 66 OFFCURVE",
"391 63 CURVE SMOOTH",
"430 49 LINE SMOOTH",
"437 46 OFFCURVE",
"442 47 OFFCURVE",
"447 53 CURVE SMOOTH",
"516 136 OFFCURVE",
"577 224 OFFCURVE",
"630 313 CURVE",
"780 311 LINE SMOOTH",
"826 310 OFFCURVE",
"871 332 OFFCURVE",
"871 359 CURVE SMOOTH",
"871 385 OFFCURVE",
"826 407 OFFCURVE",
"780 406 CURVE SMOOTH",
"630 404 LINE",
"577 493 OFFCURVE",
"516 581 OFFCURVE",
"447 664 CURVE SMOOTH",
"442 670 OFFCURVE",
"437 671 OFFCURVE",
"430 668 CURVE SMOOTH",
"391 654 LINE SMOOTH",
"384 651 OFFCURVE",
"381 647 OFFCURVE",
"384 639 CURVE SMOOTH",
"474 404 LINE",
"305 390 LINE",
"238 484 LINE SMOOTH",
"234 489 OFFCURVE",
"228 492 OFFCURVE",
"222 490 CURVE SMOOTH",
"211 486 LINE SMOOTH",
"204 484 OFFCURVE",
"201 480 OFFCURVE",
"203 472 CURVE SMOOTH",
"223 387 LINE",
"202 367 LINE SMOOTH",
"196 361 OFFCURVE",
"197 355 OFFCURVE",
"202 350 CURVE SMOOTH"
);
}
);
width = 1068;
},
{
associatedMasterId = "9E4B8FD8-F8AF-4AA7-8E0D-0C907FFB2BDD";
background = {
paths = (
{
closed = 1;
nodes = (
"264 591 LINE SMOOTH",
"257 591 OFFCURVE",
"252 586 OFFCURVE",
"252 579 CURVE SMOOTH",
"252 157 LINE SMOOTH",
"252 150 OFFCURVE",
"257 145 OFFCURVE",
"264 145 CURVE SMOOTH",
"824 145 LINE SMOOTH",
"831 145 OFFCURVE",
"836 150 OFFCURVE",
"836 157 CURVE SMOOTH",
"836 579 LINE SMOOTH",
"836 586 OFFCURVE",
"831 591 OFFCURVE",
"824 591 CURVE SMOOTH"
);
},
{
closed = 1;
nodes = (
"530 350 OFFCURVE",
"516 355 OFFCURVE",
"505 366 CURVE SMOOTH",
"324 549 LINE",
"764 549 LINE",
"583 366 LINE SMOOTH",
"572 355 OFFCURVE",
"557 350 OFFCURVE",
"544 350 CURVE SMOOTH"
);
},
{
closed = 1;
nodes = (
"323 187 LINE",
"474 337 LINE",
"494 317 OFFCURVE",
"519 306 OFFCURVE",
"544 306 CURVE SMOOTH",
"569 306 OFFCURVE",
"594 317 OFFCURVE",
"614 337 CURVE",
"765 187 LINE"
);
},
{
closed = 1;
nodes = (
"444 368 LINE",
"294 217 LINE",
"294 518 LINE"
);
},
{
closed = 1;
nodes = (
"794 217 LINE",
"644 368 LINE",
"794 518 LINE"
);
}
);
};
components = (
{
name = largecircle;
transform = "{1, 0, 0, 1, 10, 0}";
}
);
layerId = "955B2AA2-27DD-425E-8ACF-510DB3712361";
name = "Nov 14 17, 19:32";
paths = (
{
closed = 1;
nodes = (
"264 145 LINE SMOOTH",
"257 145 OFFCURVE",
"252 150 OFFCURVE",
"252 157 CURVE SMOOTH",
"252 579 LINE SMOOTH",
"252 586 OFFCURVE",
"257 591 OFFCURVE",
"264 591 CURVE SMOOTH",
"824 591 LINE SMOOTH",
"831 591 OFFCURVE",
"836 586 OFFCURVE",
"836 579 CURVE SMOOTH",
"836 157 LINE SMOOTH",
"836 150 OFFCURVE",
"831 145 OFFCURVE",
"824 145 CURVE SMOOTH"
);
},
{
closed = 1;
nodes = (
"298 563 LINE",
"536 338 LINE SMOOTH",
"541 333 OFFCURVE",
"547 333 OFFCURVE",
"552 338 CURVE SMOOTH",
"790 563 LINE"
);
},
{
closed = 1;
nodes = (
"480 345 LINE",
"300 173 LINE",
"788 173 LINE",
"607 347 LINE",
"552 297 LINE SMOOTH",
"547 292 OFFCURVE",
"540 292 OFFCURVE",
"535 297 CURVE SMOOTH"
);
},
{
closed = 1;
nodes = (
"280 196 LINE",
"458 368 LINE",
"280 537 LINE"
);
},
{
closed = 1;
nodes = (
"630 368 LINE",
"808 196 LINE",
"808 537 LINE"
);
}
);
width = 1088;
},
{
associatedMasterId = "9E4B8FD8-F8AF-4AA7-8E0D-0C907FFB2BDD";
background = {
paths = (
{
closed = 1;
nodes = (
"139 806 LINE SMOOTH",
"85 806 OFFCURVE",
"40 762 OFFCURVE",
"40 708 CURVE SMOOTH",
"40 25 LINE SMOOTH",
"40 -29 OFFCURVE",
"85 -74 OFFCURVE",
"139 -74 CURVE SMOOTH",
"862 -74 LINE SMOOTH",
"916 -74 OFFCURVE",
"960 -29 OFFCURVE",
"960 25 CURVE SMOOTH",
"960 708 LINE SMOOTH",
"960 762 OFFCURVE",
"916 806 OFFCURVE",
"862 806 CURVE SMOOTH"
);
},
{
closed = 1;
nodes = (
"902 784 OFFCURVE",
"938 748 OFFCURVE",
"938 705 CURVE SMOOTH",
"938 28 LINE SMOOTH",
"938 -15 OFFCURVE",
"902 -52 OFFCURVE",
"859 -52 CURVE SMOOTH",
"142 -52 LINE SMOOTH",
"99 -52 OFFCURVE",
"62 -15 OFFCURVE",
"62 28 CURVE SMOOTH",
"62 705 LINE SMOOTH",
"62 748 OFFCURVE",
"99 784 OFFCURVE",
"142 784 CURVE SMOOTH",
"859 784 LINE SMOOTH"
);
},
{
closed = 1;
nodes = (
"266 185 LINE",
"266 97 LINE SMOOTH",
"266 92 OFFCURVE",
"270 88 OFFCURVE",
"275 88 CURVE SMOOTH",
"340 88 LINE SMOOTH",
"346 88 OFFCURVE",
"350 92 OFFCURVE",
"350 97 CURVE SMOOTH",
"350 185 LINE"
);
},
{
closed = 1;
nodes = (
"342 238 OFFCURVE",
"362 258 OFFCURVE",
"362 284 CURVE SMOOTH",
"362 309 OFFCURVE",
"342 329 OFFCURVE",
"317 329 CURVE SMOOTH",
"292 329 OFFCURVE",
"272 309 OFFCURVE",
"272 284 CURVE SMOOTH",
"272 258 OFFCURVE",
"292 238 OFFCURVE",
"317 238 CURVE SMOOTH"
);
},
{
closed = 1;
nodes = (
"655 97 LINE SMOOTH",
"655 92 OFFCURVE",
"659 88 OFFCURVE",
"665 88 CURVE SMOOTH",
"730 88 LINE SMOOTH",
"735 88 OFFCURVE",
"739 92 OFFCURVE",
"739 97 CURVE SMOOTH",
"739 185 LINE",
"655 185 LINE"
);
},
{
closed = 1;
nodes = (
"713 238 OFFCURVE",
"733 258 OFFCURVE",
"733 284 CURVE SMOOTH",
"733 309 OFFCURVE",
"713 329 OFFCURVE",
"688 329 CURVE SMOOTH",
"663 329 OFFCURVE",
"643 309 OFFCURVE",
"643 284 CURVE SMOOTH",
"643 258 OFFCURVE",
"663 238 OFFCURVE",
"688 238 CURVE SMOOTH"
);
},
{
closed = 1;
nodes = (
"271 560 LINE",
"260 397 LINE",
"745 397 LINE",
"734 560 LINE"
);
},
{
closed = 1;
nodes = (
"760 592 LINE",
"602 592 LINE",
"602 645 LINE",
"403 645 LINE",
"403 592 LINE",
"245 592 LINE",
"231 397 LINE",
"194 397 LINE",
"194 160 LINE",
"811 160 LINE",
"811 397 LINE",
"774 397 LINE"
);
},
{
closed = 1;
nodes = (
"400 310 LINE",
"400 290 LINE",
"605 290 LINE",
"605 310 LINE"
);
},
{
closed = 1;
nodes = (
"400 265 LINE",
"400 245 LINE",
"605 245 LINE",
"605 265 LINE"
);
}
);
};
layerId = "346C0EA8-9638-4244-B17D-E97A86FA40DB";
name = "Sep 8 17, 13:27";
paths = (
{
closed = 1;
nodes = (
"139 806 LINE SMOOTH",
"85 806 OFFCURVE",
"40 762 OFFCURVE",
"40 708 CURVE SMOOTH",
"40 25 LINE SMOOTH",
"40 -29 OFFCURVE",
"85 -74 OFFCURVE",
"139 -74 CURVE SMOOTH",
"862 -74 LINE SMOOTH",
"916 -74 OFFCURVE",
"960 -29 OFFCURVE",
"960 25 CURVE SMOOTH",
"960 708 LINE SMOOTH",
"960 762 OFFCURVE",
"916 806 OFFCURVE",
"862 806 CURVE SMOOTH"
);
},
{
closed = 1;
nodes = (
"902 784 OFFCURVE",
"938 748 OFFCURVE",
"938 705 CURVE SMOOTH",
"938 28 LINE SMOOTH",
"938 -15 OFFCURVE",
"902 -52 OFFCURVE",
"859 -52 CURVE SMOOTH",
"142 -52 LINE SMOOTH",
"99 -52 OFFCURVE",
"62 -15 OFFCURVE",
"62 28 CURVE SMOOTH",
"62 705 LINE SMOOTH",
"62 748 OFFCURVE",
"99 784 OFFCURVE",
"142 784 CURVE SMOOTH",
"859 784 LINE SMOOTH"
);
},
{
closed = 1;
nodes = (
"266 185 LINE",
"266 97 LINE SMOOTH",
"266 92 OFFCURVE",
"270 88 OFFCURVE",
"275 88 CURVE SMOOTH",
"340 88 LINE SMOOTH",
"346 88 OFFCURVE",
"350 92 OFFCURVE",
"350 97 CURVE SMOOTH",
"350 185 LINE"
);
},
{
closed = 1;
nodes = (
"342 238 OFFCURVE",
"362 258 OFFCURVE",
"362 284 CURVE SMOOTH",
"362 309 OFFCURVE",
"342 329 OFFCURVE",
"317 329 CURVE SMOOTH",
"292 329 OFFCURVE",
"272 309 OFFCURVE",
"272 284 CURVE SMOOTH",
"272 258 OFFCURVE",
"292 238 OFFCURVE",
"317 238 CURVE SMOOTH"
);
},
{
closed = 1;
nodes = (
"655 97 LINE SMOOTH",
"655 92 OFFCURVE",
"659 88 OFFCURVE",
"665 88 CURVE SMOOTH",
"730 88 LINE SMOOTH",
"735 88 OFFCURVE",
"739 92 OFFCURVE",
"739 97 CURVE SMOOTH",
"739 185 LINE",
"655 185 LINE"
);
},
{
closed = 1;
nodes = (
"713 238 OFFCURVE",
"733 258 OFFCURVE",
"733 284 CURVE SMOOTH",
"733 309 OFFCURVE",
"713 329 OFFCURVE",
"688 329 CURVE SMOOTH",
"663 329 OFFCURVE",
"643 309 OFFCURVE",
"643 284 CURVE SMOOTH",
"643 258 OFFCURVE",
"663 238 OFFCURVE",
"688 238 CURVE SMOOTH"
);
},
{
closed = 1;
nodes = (
"271 560 LINE",
"260 397 LINE",
"745 397 LINE",
"734 560 LINE"
);
},
{
closed = 1;
nodes = (
"760 592 LINE",
"602 592 LINE",
"602 645 LINE",
"403 645 LINE",
"403 592 LINE",
"245 592 LINE",
"231 397 LINE",
"194 397 LINE",
"194 160 LINE",
"811 160 LINE",
"811 397 LINE",
"774 397 LINE"
);
},
{
closed = 1;
nodes = (
"400 310 LINE",
"400 290 LINE",
"605 290 LINE",
"605 310 LINE"
);
},
{
closed = 1;
nodes = (
"400 265 LINE",
"400 245 LINE",
"605 245 LINE",
"605 265 LINE"
);
}
);
width = 1000;
}
);
unicode = 00E7;
},
{
glyphname = d;
lastChange = "2018-03-12 12:07:02 +0000";
layers = (
{
background = {
components = (
{
name = whiteRoundedCornersSquare;
transform = "{1, 0, 0, 1, 34, 0}";
}
);
paths = (
{
closed = 1;
nodes = (
"330 553 OFFCURVE",
"336 560 OFFCURVE",
"350 560 CURVE SMOOTH",
"718 560 LINE SMOOTH",
"732 560 OFFCURVE",
"738 553 OFFCURVE",
"741 539 CURVE SMOOTH",
"771 397 LINE",
"297 397 LINE",
"327 539 LINE SMOOTH"
);
},
{
closed = 1;
nodes = (
"314 238 OFFCURVE",
"294 258 OFFCURVE",
"294 284 CURVE SMOOTH",
"294 309 OFFCURVE",
"314 329 OFFCURVE",
"339 329 CURVE SMOOTH",
"364 329 OFFCURVE",
"384 309 OFFCURVE",
"384 284 CURVE SMOOTH",
"384 258 OFFCURVE",
"364 238 OFFCURVE",
"339 238 CURVE SMOOTH"
);
},
{
closed = 1;
nodes = (
"704 238 OFFCURVE",
"684 258 OFFCURVE",
"684 284 CURVE SMOOTH",
"684 309 OFFCURVE",
"704 329 OFFCURVE",
"729 329 CURVE SMOOTH",
"754 329 OFFCURVE",
"774 309 OFFCURVE",
"774 284 CURVE SMOOTH",
"774 258 OFFCURVE",
"754 238 OFFCURVE",
"729 238 CURVE SMOOTH"
);
},
{
closed = 1;
nodes = (
"444 290 LINE SMOOTH",
"437 290 OFFCURVE",
"432 294 OFFCURVE",
"432 300 CURVE SMOOTH",
"432 306 OFFCURVE",
"437 310 OFFCURVE",
"444 310 CURVE SMOOTH",
"624 310 LINE SMOOTH",
"631 310 OFFCURVE",
"636 306 OFFCURVE",
"636 300 CURVE SMOOTH",
"636 294 OFFCURVE",
"631 290 OFFCURVE",
"624 290 CURVE SMOOTH"
);
},
{
closed = 1;
nodes = (
"444 245 LINE SMOOTH",
"437 245 OFFCURVE",
"432 249 OFFCURVE",
"432 255 CURVE SMOOTH",
"432 261 OFFCURVE",
"437 265 OFFCURVE",
"444 265 CURVE SMOOTH",
"624 265 LINE SMOOTH",
"631 265 OFFCURVE",
"636 261 OFFCURVE",
"636 255 CURVE SMOOTH",
"636 249 OFFCURVE",
"631 245 OFFCURVE",
"624 245 CURVE SMOOTH"
);
},
{
closed = 1;
nodes = (
"839 160 OFFCURVE",
"850 173 OFFCURVE",
"850 206 CURVE SMOOTH",
"850 351 LINE SMOOTH",
"850 384 OFFCURVE",
"839 397 OFFCURVE",
"815 397 CURVE SMOOTH",
"805 397 LINE",
"772 554 LINE SMOOTH",
"768 574 OFFCURVE",
"754 592 OFFCURVE",
"733 592 CURVE SMOOTH",
"633 592 LINE",
"633 624 LINE SMOOTH",
"633 638 OFFCURVE",
"625 646 OFFCURVE",
"611 646 CURVE SMOOTH",
"457 646 LINE SMOOTH",
"443 646 OFFCURVE",
"435 638 OFFCURVE",
"435 624 CURVE SMOOTH",
"435 592 LINE",
"335 592 LINE SMOOTH",
"314 592 OFFCURVE",
"300 574 OFFCURVE",
"296 554 CURVE SMOOTH",
"263 397 LINE",
"253 397 LINE SMOOTH",
"229 397 OFFCURVE",
"218 384 OFFCURVE",
"218 351 CURVE SMOOTH",
"218 206 LINE SMOOTH",
"218 173 OFFCURVE",
"229 160 OFFCURVE",
"253 160 CURVE SMOOTH",
"298 160 LINE",
"298 110 LINE SMOOTH",
"298 96 OFFCURVE",
"306 88 OFFCURVE",
"320 88 CURVE SMOOTH",
"360 88 LINE SMOOTH",
"374 88 OFFCURVE",
"382 96 OFFCURVE",
"382 110 CURVE SMOOTH",
"382 160 LINE",
"686 160 LINE",
"686 110 LINE SMOOTH",
"686 96 OFFCURVE",
"694 88 OFFCURVE",
"708 88 CURVE SMOOTH",
"748 88 LINE SMOOTH",
"762 88 OFFCURVE",
"770 96 OFFCURVE",
"770 110 CURVE SMOOTH",
"770 160 LINE",
"815 160 LINE SMOOTH"
);
}
);
};
components = (
{
name = whiteRoundedCornersSquare;
}
);
guideLines = (
{
position = "{522, 1204}";
}
);
layerId = "9E4B8FD8-F8AF-4AA7-8E0D-0C907FFB2BDD";
paths = (
{
closed = 1;
nodes = (
"330 553 OFFCURVE",
"336 560 OFFCURVE",
"350 560 CURVE SMOOTH",
"718 560 LINE SMOOTH",
"732 560 OFFCURVE",
"738 553 OFFCURVE",
"741 539 CURVE SMOOTH",
"771 397 LINE",
"297 397 LINE",
"327 539 LINE SMOOTH"
);
},
{
closed = 1;
nodes = (
"314 238 OFFCURVE",
"294 258 OFFCURVE",
"294 284 CURVE SMOOTH",
"294 309 OFFCURVE",
"314 329 OFFCURVE",
"339 329 CURVE SMOOTH",
"364 329 OFFCURVE",
"384 309 OFFCURVE",
"384 284 CURVE SMOOTH",
"384 258 OFFCURVE",
"364 238 OFFCURVE",
"339 238 CURVE SMOOTH"
);
},
{
closed = 1;
nodes = (
"704 238 OFFCURVE",
"684 258 OFFCURVE",
"684 284 CURVE SMOOTH",
"684 309 OFFCURVE",
"704 329 OFFCURVE",
"729 329 CURVE SMOOTH",
"754 329 OFFCURVE",
"774 309 OFFCURVE",
"774 284 CURVE SMOOTH",
"774 258 OFFCURVE",
"754 238 OFFCURVE",
"729 238 CURVE SMOOTH"
);
},
{
closed = 1;
nodes = (
"444 290 LINE SMOOTH",
"437 290 OFFCURVE",
"432 294 OFFCURVE",
"432 300 CURVE SMOOTH",
"432 306 OFFCURVE",
"437 310 OFFCURVE",
"444 310 CURVE SMOOTH",
"624 310 LINE SMOOTH",
"631 310 OFFCURVE",
"636 306 OFFCURVE",
"636 300 CURVE SMOOTH",
"636 294 OFFCURVE",
"631 290 OFFCURVE",
"624 290 CURVE SMOOTH"
);
},
{
closed = 1;
nodes = (
"444 245 LINE SMOOTH",
"437 245 OFFCURVE",
"432 249 OFFCURVE",
"432 255 CURVE SMOOTH",
"432 261 OFFCURVE",
"437 265 OFFCURVE",
"444 265 CURVE SMOOTH",
"624 265 LINE SMOOTH",
"631 265 OFFCURVE",
"636 261 OFFCURVE",
"636 255 CURVE SMOOTH",
"636 249 OFFCURVE",
"631 245 OFFCURVE",
"624 245 CURVE SMOOTH"
);
},
{
closed = 1;
nodes = (
"839 160 OFFCURVE",
"850 173 OFFCURVE",
"850 206 CURVE SMOOTH",
"850 351 LINE SMOOTH",
"850 384 OFFCURVE",
"839 397 OFFCURVE",
"815 397 CURVE SMOOTH",
"805 397 LINE",
"772 554 LINE SMOOTH",
"768 574 OFFCURVE",
"754 592 OFFCURVE",
"733 592 CURVE SMOOTH",
"633 592 LINE",
"633 624 LINE SMOOTH",
"633 638 OFFCURVE",
"625 646 OFFCURVE",
"611 646 CURVE SMOOTH",
"457 646 LINE SMOOTH",
"443 646 OFFCURVE",
"435 638 OFFCURVE",
"435 624 CURVE SMOOTH",
"435 592 LINE",
"335 592 LINE SMOOTH",
"314 592 OFFCURVE",
"300 574 OFFCURVE",
"296 554 CURVE SMOOTH",
"263 397 LINE",
"253 397 LINE SMOOTH",
"229 397 OFFCURVE",
"218 384 OFFCURVE",
"218 351 CURVE SMOOTH",
"218 206 LINE SMOOTH",
"218 173 OFFCURVE",
"229 160 OFFCURVE",
"253 160 CURVE SMOOTH",
"298 160 LINE",
"298 110 LINE SMOOTH",
"298 96 OFFCURVE",
"306 88 OFFCURVE",
"320 88 CURVE SMOOTH",
"360 88 LINE SMOOTH",
"374 88 OFFCURVE",
"382 96 OFFCURVE",
"382 110 CURVE SMOOTH",
"382 160 LINE",
"686 160 LINE",
"686 110 LINE SMOOTH",
"686 96 OFFCURVE",
"694 88 OFFCURVE",
"708 88 CURVE SMOOTH",
"748 88 LINE SMOOTH",
"762 88 OFFCURVE",
"770 96 OFFCURVE",
"770 110 CURVE SMOOTH",
"770 160 LINE",
"815 160 LINE SMOOTH"
);
}
);
width = 1068;
},
{
associatedMasterId = "9E4B8FD8-F8AF-4AA7-8E0D-0C907FFB2BDD";
background = {
paths = (
{
closed = 1;
nodes = (
"139 806 LINE SMOOTH",
"85 806 OFFCURVE",
"40 762 OFFCURVE",
"40 708 CURVE SMOOTH",
"40 25 LINE SMOOTH",
"40 -29 OFFCURVE",
"85 -74 OFFCURVE",
"139 -74 CURVE SMOOTH",
"862 -74 LINE SMOOTH",
"916 -74 OFFCURVE",
"960 -29 OFFCURVE",
"960 25 CURVE SMOOTH",
"960 708 LINE SMOOTH",
"960 762 OFFCURVE",
"916 806 OFFCURVE",
"862 806 CURVE SMOOTH"
);
},
{
closed = 1;
nodes = (
"902 784 OFFCURVE",
"938 748 OFFCURVE",
"938 705 CURVE SMOOTH",
"938 28 LINE SMOOTH",
"938 -15 OFFCURVE",
"902 -52 OFFCURVE",
"859 -52 CURVE SMOOTH",
"142 -52 LINE SMOOTH",
"99 -52 OFFCURVE",
"62 -15 OFFCURVE",
"62 28 CURVE SMOOTH",
"62 705 LINE SMOOTH",
"62 748 OFFCURVE",
"99 784 OFFCURVE",
"142 784 CURVE SMOOTH",
"859 784 LINE SMOOTH"
);
},
{
closed = 1;
nodes = (
"266 185 LINE",
"266 97 LINE SMOOTH",
"266 92 OFFCURVE",
"270 88 OFFCURVE",
"275 88 CURVE SMOOTH",
"340 88 LINE SMOOTH",
"346 88 OFFCURVE",
"350 92 OFFCURVE",
"350 97 CURVE SMOOTH",
"350 185 LINE"
);
},
{
closed = 1;
nodes = (
"342 238 OFFCURVE",
"362 258 OFFCURVE",
"362 284 CURVE SMOOTH",
"362 309 OFFCURVE",
"342 329 OFFCURVE",
"317 329 CURVE SMOOTH",
"292 329 OFFCURVE",
"272 309 OFFCURVE",
"272 284 CURVE SMOOTH",
"272 258 OFFCURVE",
"292 238 OFFCURVE",
"317 238 CURVE SMOOTH"
);
},
{
closed = 1;
nodes = (
"655 97 LINE SMOOTH",
"655 92 OFFCURVE",
"659 88 OFFCURVE",
"665 88 CURVE SMOOTH",
"730 88 LINE SMOOTH",
"735 88 OFFCURVE",
"739 92 OFFCURVE",
"739 97 CURVE SMOOTH",
"739 185 LINE",
"655 185 LINE"
);
},
{
closed = 1;
nodes = (
"713 238 OFFCURVE",
"733 258 OFFCURVE",
"733 284 CURVE SMOOTH",
"733 309 OFFCURVE",
"713 329 OFFCURVE",
"688 329 CURVE SMOOTH",
"663 329 OFFCURVE",
"643 309 OFFCURVE",
"643 284 CURVE SMOOTH",
"643 258 OFFCURVE",
"663 238 OFFCURVE",
"688 238 CURVE SMOOTH"
);
},
{
closed = 1;
nodes = (
"271 560 LINE",
"260 397 LINE",
"745 397 LINE",
"734 560 LINE"
);
},
{
closed = 1;
nodes = (
"760 592 LINE",
"602 592 LINE",
"602 645 LINE",
"403 645 LINE",
"403 592 LINE",
"245 592 LINE",
"231 397 LINE",
"194 397 LINE",
"194 160 LINE",
"811 160 LINE",
"811 397 LINE",
"774 397 LINE"
);
},
{
closed = 1;
nodes = (
"400 310 LINE",
"400 290 LINE",
"605 290 LINE",
"605 310 LINE"
);
},
{
closed = 1;
nodes = (
"400 265 LINE",
"400 245 LINE",
"605 245 LINE",
"605 265 LINE"
);
}
);
};
layerId = "346C0EA8-9638-4244-B17D-E97A86FA40DB";
name = "Sep 8 17, 13:27";
paths = (
{
closed = 1;
nodes = (
"139 806 LINE SMOOTH",
"85 806 OFFCURVE",
"40 762 OFFCURVE",
"40 708 CURVE SMOOTH",
"40 25 LINE SMOOTH",
"40 -29 OFFCURVE",
"85 -74 OFFCURVE",
"139 -74 CURVE SMOOTH",
"862 -74 LINE SMOOTH",
"916 -74 OFFCURVE",
"960 -29 OFFCURVE",
"960 25 CURVE SMOOTH",
"960 708 LINE SMOOTH",
"960 762 OFFCURVE",
"916 806 OFFCURVE",
"862 806 CURVE SMOOTH"
);
},
{
closed = 1;
nodes = (
"902 784 OFFCURVE",
"938 748 OFFCURVE",
"938 705 CURVE SMOOTH",
"938 28 LINE SMOOTH",
"938 -15 OFFCURVE",
"902 -52 OFFCURVE",
"859 -52 CURVE SMOOTH",
"142 -52 LINE SMOOTH",
"99 -52 OFFCURVE",
"62 -15 OFFCURVE",
"62 28 CURVE SMOOTH",
"62 705 LINE SMOOTH",
"62 748 OFFCURVE",
"99 784 OFFCURVE",
"142 784 CURVE SMOOTH",
"859 784 LINE SMOOTH"
);
},
{
closed = 1;
nodes = (
"266 185 LINE",
"266 97 LINE SMOOTH",
"266 92 OFFCURVE",
"270 88 OFFCURVE",
"275 88 CURVE SMOOTH",
"340 88 LINE SMOOTH",
"346 88 OFFCURVE",
"350 92 OFFCURVE",
"350 97 CURVE SMOOTH",
"350 185 LINE"
);
},
{
closed = 1;
nodes = (
"342 238 OFFCURVE",
"362 258 OFFCURVE",
"362 284 CURVE SMOOTH",
"362 309 OFFCURVE",
"342 329 OFFCURVE",
"317 329 CURVE SMOOTH",
"292 329 OFFCURVE",
"272 309 OFFCURVE",
"272 284 CURVE SMOOTH",
"272 258 OFFCURVE",
"292 238 OFFCURVE",
"317 238 CURVE SMOOTH"
);
},
{
closed = 1;
nodes = (
"655 97 LINE SMOOTH",
"655 92 OFFCURVE",
"659 88 OFFCURVE",
"665 88 CURVE SMOOTH",
"730 88 LINE SMOOTH",
"735 88 OFFCURVE",
"739 92 OFFCURVE",
"739 97 CURVE SMOOTH",
"739 185 LINE",
"655 185 LINE"
);
},
{
closed = 1;
nodes = (
"713 238 OFFCURVE",
"733 258 OFFCURVE",
"733 284 CURVE SMOOTH",
"733 309 OFFCURVE",
"713 329 OFFCURVE",
"688 329 CURVE SMOOTH",
"663 329 OFFCURVE",
"643 309 OFFCURVE",
"643 284 CURVE SMOOTH",
"643 258 OFFCURVE",
"663 238 OFFCURVE",
"688 238 CURVE SMOOTH"
);
},
{
closed = 1;
nodes = (
"271 560 LINE",
"260 397 LINE",
"745 397 LINE",
"734 560 LINE"
);
},
{
closed = 1;
nodes = (
"760 592 LINE",
"602 592 LINE",
"602 645 LINE",
"403 645 LINE",
"403 592 LINE",
"245 592 LINE",
"231 397 LINE",
"194 397 LINE",
"194 160 LINE",
"811 160 LINE",
"811 397 LINE",
"774 397 LINE"
);
},
{
closed = 1;
nodes = (
"400 310 LINE",
"400 290 LINE",
"605 290 LINE",
"605 310 LINE"
);
},
{
closed = 1;
nodes = (
"400 265 LINE",
"400 245 LINE",
"605 245 LINE",
"605 265 LINE"
);
}
);
width = 1000;
}
);
unicode = 0064;
},
